<?xml version="1.0" encoding="UTF-8" standalone="no"?>
<!DOCTYPE svg PUBLIC "-//W3C//DTD SVG 1.1//EN" "http://www.w3.org/Graphics/SVG/1.1/DTD/svg11.dtd">
<svg width="100%" height="100%" viewBox="0 0 1131 2575" version="1.1" xmlns="http://www.w3.org/2000/svg" xmlns:xlink="http://www.w3.org/1999/xlink" xml:space="preserve" style="fill-rule:evenodd;clip-rule:evenodd;stroke-linejoin:round;stroke-miterlimit:1.41421;">
    <g transform="matrix(4.16667,0,0,4.16667,-472.88,-1319.32)">
        <path d="M337.142,814.591L335.897,873.162L328.584,907.327C328.584,907.327 346.439,897.495 354.907,912.757C366.835,934.258 317.538,919.297 317.538,919.297L323.92,871.506L318.724,832.169C318.724,832.169 267.425,846.482 198.14,843.407L199.459,876.551L189.192,915.945C189.192,915.945 209.461,898.014 216.322,916.245C225.498,940.63 179.227,921.04 179.227,921.04L183.205,876.439L178.883,833.696C178.883,833.696 237.156,812.202 337.142,814.591Z" style="fill-rule:nonzero;"/>
        <path d="M208.773,683.922L271.273,751.446L318.931,674.003L334.898,672.726L337.142,814.591C337.142,814.591 322.774,820.87 291.131,826.279C277.918,828.774 257.56,830.865 257.56,830.865C236.768,832.608 208.512,833.935 178.883,833.696L152.564,688.912L208.773,683.922Z" style="fill:rgb(63,67,173);fill-rule:nonzero;"/>
        <path d="M334.898,672.726C334.898,672.726 348.518,463.577 192.069,541.984C192.069,541.984 115.095,534.447 152.564,688.912L334.898,672.726Z" style="fill:rgb(253,218,187);fill-rule:nonzero;"/>
        <path d="M327.974,459.939C327.974,459.939 401.535,595.858 197.446,575.347L193.443,612.294C193.443,612.294 176.047,596.791 172.298,614.762C168.55,632.733 190.094,625.349 190.094,625.349C190.094,625.349 173.822,675.739 152.564,688.912C152.564,688.912 84.083,518.784 171.932,529.253C171.932,529.253 163.505,490.241 207.967,478.615C271.41,462.027 302.318,536.131 327.974,459.939Z" style="fill:rgb(150,150,150);fill-rule:nonzero;"/>
        <path d="M318.931,674.003L271.273,751.446L208.773,683.922L318.931,674.003Z" style="fill:rgb(246,248,249);fill-rule:nonzero;"/>
        <path d="M318.931,674.003L322.372,705.063L305.111,710.171L309.632,733.647L271.273,751.446L318.931,674.003Z" style="fill-opacity:0.247059;fill-rule:nonzero;"/>
        <path d="M271.273,751.446L231.315,736.138L231.178,718.794L212.104,713.7L208.773,683.922L271.273,751.446Z" style="fill-opacity:0.247059;fill-rule:nonzero;"/>
        <path d="M281.961,692.609L275.404,684.438L260.396,685.214L255.803,696.143L262.434,702.677L257.157,736.261L271.273,751.446L283.943,730.877L275.732,701.857L281.961,692.609Z" style="fill:url(#_Linear1);fill-rule:nonzero;"/>
        <path d="M166.409,822.851L177.278,808.532L189.916,815.754C190.757,816.304 195.812,820.031 194.061,822.388C193.225,823.521 191.879,823.524 190.611,823.16C191.358,824.189 191.82,825.415 191.041,826.468C190.281,827.495 189.105,827.593 187.947,827.329C188.565,828.294 188.883,829.382 188.17,830.336C187.333,831.466 185.993,831.472 184.722,831.107C185.471,832.138 185.933,833.36 185.152,834.411C183.518,836.617 179.98,834.566 178.809,833.792L166.409,822.851Z" style="fill:rgb(253,218,187);fill-rule:nonzero;"/>
        <path d="M178.129,807.853L182.508,810.161L169.787,827.084L166.206,823.657L178.129,807.853Z" style="fill:rgb(246,248,249);fill-rule:nonzero;"/>
        <path d="M153.647,693.752C153.647,693.752 55.571,749.303 165.968,826.591L181.138,807.864C181.138,807.864 95.313,762.87 157.757,716.431L153.647,693.752Z" style="fill:rgb(63,67,173);fill-rule:nonzero;"/>
        <path d="M152.201,811.995C153.265,812.589 154.606,812.208 155.198,811.149C155.796,810.081 155.415,808.738 154.353,808.146C153.291,807.547 151.947,807.929 151.352,808.991C150.759,810.055 151.135,811.4 152.201,811.995Z" style="fill:rgb(72,72,73);fill-rule:nonzero;"/>
        <path d="M158.193,816.865C159.257,817.46 160.601,817.08 161.196,816.02C161.788,814.952 161.408,813.61 160.347,813.016C159.287,812.421 157.941,812.802 157.344,813.861C156.75,814.926 157.13,816.271 158.193,816.865Z" style="fill:rgb(72,72,73);fill-rule:nonzero;"/>
        <path d="M163.995,821.628C165.06,822.222 166.401,821.842 166.998,820.779C167.593,819.718 167.213,818.373 166.15,817.78C165.086,817.186 163.742,817.564 163.147,818.627C162.552,819.688 162.931,821.033 163.995,821.628Z" style="fill:rgb(72,72,73);fill-rule:nonzero;"/>
        <path d="M267.752,764.35C268.569,767.027 271.401,768.529 274.076,767.712C276.752,766.896 278.255,764.065 277.439,761.388C276.622,758.714 273.789,757.211 271.118,758.026C268.441,758.846 266.934,761.676 267.752,764.35Z" style="fill-rule:nonzero;"/>
        <path d="M268.939,787.482C269.757,790.157 272.59,791.662 275.262,790.846C277.937,790.028 279.443,787.197 278.622,784.524C277.809,781.848 274.976,780.342 272.302,781.16C269.627,781.975 268.119,784.807 268.939,787.482Z" style="fill-rule:nonzero;"/>
        <path d="M244.138,616.386C244.138,621.605 242.111,625.835 239.61,625.835C237.11,625.835 235.083,621.605 235.083,616.386C235.083,611.167 237.11,606.937 239.61,606.937C242.111,606.937 244.138,611.167 244.138,616.386Z" style="fill-rule:nonzero;"/>
        <path d="M311.686,609.803C311.686,615.022 309.659,619.253 307.158,619.253C304.658,619.253 302.631,615.022 302.631,609.803C302.631,604.585 304.658,600.354 307.158,600.354C309.659,600.354 311.686,604.585 311.686,609.803Z" style="fill-rule:nonzero;"/>
        <g transform="matrix(0.661711,-0.749759,0.749759,0.661711,-371.011,376.748)">
            <path d="M247.134,606.937L207.522,592.369L211.853,585.676L250.284,601.929L247.134,606.937Z" style="fill:rgb(150,150,150);fill-rule:nonzero;"/>
        </g>
        <g transform="matrix(0.371471,0.928444,-0.928444,0.371471,737.275,83.7434)">
            <path d="M298.427,602.268L327.239,577.667L320.88,572.86L293.754,598.64L298.427,602.268Z" style="fill:rgb(150,150,150);fill-rule:nonzero;"/>
        </g>
        <path d="M352.655,803.288L338.469,792.247L328.114,802.477C327.443,803.225 323.517,808.126 325.814,809.954C326.915,810.834 328.215,810.49 329.348,809.812C328.89,810.999 328.758,812.302 329.783,813.12C330.781,813.916 331.942,813.708 332.994,813.156C332.645,814.247 332.618,815.38 333.552,816.119C334.651,816.996 335.948,816.657 337.083,815.977C336.624,817.166 336.492,818.465 337.517,819.281C339.663,820.992 342.555,818.1 343.486,817.05L352.655,803.288Z" style="fill:rgb(253,218,187);fill-rule:nonzero;"/>
        <path d="M337.472,791.81L333.834,795.166L350.48,808.248L353.059,804.015L337.472,791.81Z" style="fill:rgb(246,248,249);fill-rule:nonzero;"/>
        <path d="M331.781,675.25C331.781,675.25 427.944,716.189 354.044,806.789L334.567,792.594C334.567,792.594 393.544,737.042 333.643,698.223L331.781,675.25Z" style="fill:rgb(63,67,173);fill-rule:nonzero;"/>
        <path d="M363.593,789.143C362.718,789.991 361.323,789.968 360.479,789.096C359.627,788.218 359.649,786.822 360.523,785.977C361.396,785.125 362.793,785.149 363.64,786.021C364.488,786.898 364.47,788.294 363.593,789.143Z" style="fill:rgb(72,72,73);fill-rule:nonzero;"/>
        <path d="M359.056,795.391C358.18,796.239 356.784,796.217 355.935,795.346C355.089,794.467 355.111,793.072 355.984,792.225C356.855,791.377 358.254,791.399 359.103,792.269C359.951,793.145 359.929,794.542 359.056,795.391Z" style="fill:rgb(72,72,73);fill-rule:nonzero;"/>
        <path d="M354.674,801.485C353.798,802.334 352.404,802.312 351.553,801.438C350.706,800.565 350.727,799.168 351.601,798.322C352.477,797.474 353.873,797.493 354.721,798.367C355.569,799.24 355.549,800.637 354.674,801.485Z" style="fill:rgb(72,72,73);fill-rule:nonzero;"/>
        <path d="M260.131,656.779L257.017,656.311C257.042,656.142 259.76,639.343 277.299,637.393C294.974,635.434 299.42,650.719 299.463,650.875L296.429,651.718C296.28,651.196 292.593,638.868 277.646,640.524C262.49,642.208 260.153,656.633 260.131,656.779Z" style="fill-rule:nonzero;"/>
        <path d="M302.385,353.715C297.942,355.505 292.666,355.27 287.969,355.163C283.135,355.052 278.325,354.533 273.515,354.022C271.093,348.772 264.316,345.751 258.489,344.094C261.97,343.858 265.44,343.53 268.886,343.099C274.203,342.433 280.952,341.727 286.354,339.259C291.637,341.16 296.788,343.564 301.141,347.041C303.976,349.304 306.9,351.895 302.385,353.715ZM271.555,364.956C272.375,364.206 273.069,363.351 273.562,362.352C275.787,364.654 276.805,367.066 274.886,368.951C274.029,367.487 272.871,366.147 271.555,364.956ZM266.093,380.251C263.528,378.977 260.842,377.948 258.308,377.064C262.822,377.078 267.341,376.793 271.19,376C270.369,377.891 268.305,379.276 266.093,380.251ZM238.458,386.865C241.865,387.496 245.314,387.73 248.23,387.833C252.405,387.98 258.321,387.846 263.669,386.533C264.205,386.865 264.745,387.192 265.273,387.536C267.184,388.784 269.075,390.344 270.526,392.03C260.812,393.81 248.303,391.889 238.458,386.865ZM196.91,348.711C200.888,341.349 217.304,343.499 225.538,344.73C225.005,345.014 224.485,345.318 223.986,345.648C222.854,346.397 222.462,347.753 223.116,348.968C225.087,352.635 228.053,354.906 231.565,356.291C230.355,356.334 229.149,356.387 227.954,356.453C223.876,356.68 211.892,356.535 212.804,362.644C201.39,360.151 193.043,355.87 196.91,348.711ZM229.162,377.481C235.516,376.542 242.396,377.785 248.636,379.303C251.361,380.268 254.031,381.393 256.633,382.657C247.449,383.93 233.826,383.817 229.162,377.481ZM236.046,346.537C243.301,348.036 250.503,350.132 257.358,352.928L257.135,352.924C248.875,352.997 234.966,355.61 228.767,348.567C230.948,347.554 233.419,346.9 236.046,346.537ZM217.493,362.666C219.238,362.198 221.069,361.964 222.85,361.748C234.315,360.352 246.531,360.711 257.756,363.466C258.868,363.739 260.017,364.062 261.157,364.444C258.495,365.06 255.72,365.365 253.241,365.642C249.519,366.056 233.095,366.015 218.78,363.757C218.033,362.967 218.252,362.525 217.493,362.666ZM270.485,370.892L270.573,371.058C270.263,371.142 269.946,371.225 269.604,371.302C260.522,373.355 250.304,372.701 240.778,371.062C246.446,371.091 252.114,370.729 257.709,369.921C260.568,369.508 264.187,368.869 267.33,367.549C268.565,368.476 269.662,369.561 270.485,370.892ZM267.443,361.995C266.406,361.404 265.356,360.896 264.336,360.505C261.508,359.422 258.584,358.587 255.603,357.952C257.945,357.855 260.168,357.796 262.174,357.886C264.193,357.976 266.37,358.196 268.646,358.472C268.939,358.659 269.23,358.85 269.519,359.046C269.372,360.126 268.757,361.15 267.443,361.995ZM200.114,329.056C196.707,324.392 213.367,323.567 215.192,323.61C215.517,323.618 215.843,323.644 216.168,323.656C215.945,323.787 215.712,323.908 215.494,324.046C214.298,324.798 214.047,326.137 214.623,327.366C219.666,338.122 236.005,338.313 246.029,338.56C256.508,338.818 266.902,337.647 277.315,336.852C273.894,337.581 270.722,337.981 269.613,338.145C256.584,340.066 243.098,340.02 230.006,338.848C221.259,338.065 205.893,336.965 200.114,329.056ZM250.978,321.827C261.548,321.241 278.874,320.06 286.979,328.436C288.039,329.531 288.375,330.513 288.194,331.393C285.189,331.483 282.186,331.654 279.183,331.874C267.07,328.244 254.465,325.733 242.157,322.917C241.516,322.77 240.859,322.618 240.2,322.464C243.99,322.158 247.683,322.009 250.978,321.827ZM226.338,324.695C231.227,325.463 236.083,326.53 240.866,327.597C248.754,329.357 256.706,331.118 264.599,333.06C261.509,333.298 258.419,333.501 255.326,333.616C246.169,333.957 226.93,335.69 220.127,327.029C222.051,326.069 224.143,325.307 226.338,324.695ZM310.422,352.349C307.958,344.084 299.922,339.302 291.701,336.049C293.009,335.641 293.513,334.228 293.213,333.045C294.483,328.288 288.745,323.006 284.89,321.099C273.901,315.662 259.463,316.394 247.618,317.177C241.313,317.595 233.774,318.007 226.853,319.616C218.127,318.103 209.062,317.563 201.422,320.547C192.781,323.922 193.895,331.192 200.404,335.827C202.334,337.2 204.471,338.303 206.73,339.211C202.393,339.726 198.281,340.965 195.178,343.523C189.734,348.012 190.501,355.229 195.27,359.845C200.752,365.151 209.245,367.42 217.061,368.788C218.666,370 220.569,370.975 222.612,371.765C222.03,372.016 221.462,372.296 220.917,372.623C219.71,373.347 219.477,374.738 220.047,375.943C227.936,392.629 255.172,400.636 272.995,396.498C273.563,399.14 272.322,401.711 267.825,403.592C262.12,405.976 251.741,407.088 246.529,402.939C244.412,401.254 241.399,403.311 242.718,405.88C245.188,410.694 244.746,416.452 247.339,421.256C248.826,424.011 253.017,421.561 251.53,418.807C249.903,415.792 249.475,412.363 248.75,409.025C261.311,412.456 282.74,407.059 277.854,394.292C278.132,393.784 278.232,393.181 278.052,392.547C276.959,388.682 274.417,385.716 271.239,383.361C272.961,382.188 274.39,380.741 275.319,378.918C276.113,377.359 276.462,375.828 276.461,374.353C280.773,372.353 282.904,369.036 280.688,363.704C280.086,362.255 279.238,360.934 278.214,359.723C289.666,361.151 301.888,361.819 309.798,354.71C310.422,354.149 310.658,353.14 310.422,352.349Z" style="fill-rule:nonzero;"/>
        <path d="M259.707,437.943C258.759,437.462 257.773,437.099 256.769,436.796C256.816,436.198 256.603,435.572 256.004,435.033C253.463,432.747 245.231,431.864 244.585,436.086C242.04,436.473 241.41,439.963 244.081,440.815C245.986,441.422 247.934,441.825 249.903,442.079L250.089,442.122C250.618,443.357 251.966,444.167 253.356,443.159C253.586,442.992 253.836,442.774 254.095,442.589C255.729,442.638 257.285,442.555 258.482,442.465C260.709,442.299 262.023,439.119 259.707,437.943Z" style="fill-rule:nonzero;"/>
        <path d="M369.365,934.428L161.971,934.428C153.475,934.428 146.588,927.54 146.588,919.044C146.588,910.549 153.475,903.661 161.971,903.661L180.777,903.661L179.227,921.04C179.227,921.04 196.806,928.483 208.145,928.483C215.202,928.483 219.842,925.599 216.322,916.245C214.01,910.1 210.175,908.064 206.105,908.064C198.101,908.064 189.192,915.945 189.192,915.945L192.393,903.661L319.626,903.661L317.538,919.297C317.538,919.297 334.23,924.363 345.838,924.362C354.178,924.362 359.894,921.747 354.907,912.757C351.207,906.088 345.714,904.211 340.702,904.211C334.245,904.211 328.584,907.327 328.584,907.327L329.369,903.661L369.365,903.661C377.86,903.661 384.747,910.549 384.747,919.044C384.747,927.54 377.86,934.428 369.365,934.428Z" style="fill:rgb(200,200,200);fill-rule:nonzero;"/>
        <path d="M208.145,928.483C196.806,928.483 179.227,921.04 179.227,921.04L180.777,903.661L192.393,903.661L189.192,915.945C189.192,915.945 198.101,908.064 206.105,908.064C210.175,908.064 214.01,910.1 216.322,916.245C219.842,925.599 215.202,928.483 208.145,928.483ZM345.838,924.362C334.23,924.363 317.538,919.297 317.538,919.297L319.626,903.661L329.369,903.661L328.584,907.327C328.584,907.327 334.245,904.211 340.702,904.211C345.714,904.211 351.207,906.088 354.907,912.757C359.894,921.747 354.178,924.362 345.838,924.362Z" style="fill:rgb(24,24,24);fill-rule:nonzero;"/>
    </g>
    <defs>
        <linearGradient id="_Linear1" x1="0" y1="0" x2="1" y2="0" gradientUnits="userSpaceOnUse" gradientTransform="matrix(4.10306e-15,67.008,-67.008,4.10306e-15,277.369,684.438)"><stop offset="0%" style="stop-color:rgb(237,28,36);stop-opacity:1"/><stop offset="41%" style="stop-color:rgb(249,161,26);stop-opacity:1"/><stop offset="66%" style="stop-color:rgb(255,242,0);stop-opacity:1"/><stop offset="87%" style="stop-color:rgb(216,230,12);stop-opacity:1"/><stop offset="94%" style="stop-color:rgb(115,200,44);stop-opacity:1"/><stop offset="99%" style="stop-color:rgb(0,166,80);stop-opacity:1"/><stop offset="100%" style="stop-color:rgb(0,166,80);stop-opacity:1"/></linearGradient>
    </defs>
</svg>
