<?xml version="1.0" encoding="UTF-8" standalone="no"?><!DOCTYPE svg PUBLIC "-//W3C//DTD SVG 1.1//EN" "http://www.w3.org/Graphics/SVG/1.1/DTD/svg11.dtd"><svg width="100%" height="100%" viewBox="0 0 1131 2575" version="1.1" xmlns="http://www.w3.org/2000/svg" xmlns:xlink="http://www.w3.org/1999/xlink" xml:space="preserve" style="fill-rule:evenodd;clip-rule:evenodd;stroke-linejoin:round;stroke-miterlimit:1.41421;"><g><path d="M931.879,2074.81l-5.187,244.046l-30.471,142.354c0,0 74.396,-40.967 109.679,22.625c49.7,89.588 -155.704,27.25 -155.704,27.25l26.592,-199.129l-21.65,-163.904c0,0 -213.746,59.637 -502.434,46.825l5.496,138.1l-42.779,164.142c0,0 84.454,-74.713 113.041,1.25c38.234,101.604 -154.562,19.979 -154.562,19.979l16.575,-185.838l-18.009,-178.096c0,0 242.805,-89.558 659.413,-79.604Z" style="fill-rule:nonzero;"/><path d="M397.008,1530.36l260.417,281.351l198.575,-322.68l66.529,-5.321l9.35,591.105c0,0 -59.866,26.162 -191.712,48.7c-55.054,10.396 -139.879,19.108 -139.879,19.108c-86.634,7.263 -204.367,12.792 -327.822,11.796l-109.662,-603.267l234.204,-20.792Z" style="fill:#3f43ad;fill-rule:nonzero;"/><path d="M922.529,1483.71c0,0 56.75,-871.455 -595.121,-544.759c0,0 -320.725,-31.404 -164.604,612.201l759.725,-67.442Z" style="fill:#fddabb;fill-rule:nonzero;"/><path d="M893.679,597.094c0,0 306.505,566.33 -543.867,480.867l-16.679,153.946c0,0 -72.483,-64.596 -88.104,10.283c-15.617,74.88 74.15,44.113 74.15,44.113c0,0 -67.8,209.958 -156.375,264.846c0,0 -285.338,-708.867 80.7,-665.246c0,0 -35.113,-162.551 150.146,-210.992c264.346,-69.117 393.129,239.65 500.029,-77.817Z" style="fill:#969696;fill-rule:nonzero;"/><path d="M856,1489.03l-198.575,322.68l-260.417,-281.351l458.992,-41.329Z" style="fill:#f6f8f9;fill-rule:nonzero;"/><path d="M856,1489.03l14.338,129.417l-71.921,21.283l18.837,97.817l-159.829,74.163l198.575,-322.68Z" style="fill-opacity:0.247059;fill-rule:nonzero;"/><path d="M657.425,1811.71l-166.492,-63.784l-0.571,-72.267l-79.475,-21.225l-13.879,-124.075l260.417,281.351Z" style="fill-opacity:0.247059;fill-rule:nonzero;"/><path d="M701.958,1566.55l-27.32,-34.046l-62.534,3.234l-19.137,45.537l27.629,27.225l-21.988,139.934l58.817,63.271l52.792,-85.705l-34.213,-120.916l25.954,-38.534Z" style="fill:url(#_Linear1);fill-rule:nonzero;"/><path d="M220.491,2109.23l45.288,-59.663l52.658,30.092c3.504,2.291 24.567,17.821 17.271,27.641c-3.483,4.721 -9.092,4.734 -14.375,3.217c3.113,4.288 5.038,9.396 1.792,13.783c-3.167,4.28 -8.067,4.688 -12.892,3.588c2.575,4.021 3.9,8.554 0.929,12.529c-3.487,4.708 -9.071,4.733 -14.366,3.213c3.12,4.295 5.045,9.387 1.791,13.766c-6.808,9.192 -21.55,0.646 -26.429,-2.579l-51.667,-45.587Z" style="fill:#fddabb;fill-rule:nonzero;"/><path d="M269.325,2046.74l18.246,9.617l-53.005,70.512l-14.92,-14.279l49.679,-65.85Z" style="fill:#f6f8f9;fill-rule:nonzero;"/><path d="M167.316,1571.32c0,0 -408.65,231.462 51.338,553.496l63.208,-78.029c0,0 -357.604,-187.475 -97.421,-380.971l-17.125,-94.496Z" style="fill:#3f43ad;fill-rule:nonzero;"/><path d="M161.291,2063.99c4.434,2.475 10.021,0.888 12.488,-3.525c2.492,-4.45 0.904,-10.046 -3.521,-12.512c-4.425,-2.496 -10.025,-0.904 -12.504,3.521c-2.471,4.433 -0.904,10.037 3.537,12.516Z" style="fill:#484849;fill-rule:nonzero;"/><path d="M186.258,2084.29c4.433,2.479 10.033,0.896 12.513,-3.521c2.466,-4.45 0.883,-10.042 -3.538,-12.517c-4.417,-2.479 -10.025,-0.891 -12.512,3.521c-2.475,4.438 -0.892,10.042 3.537,12.517Z" style="fill:#484849;fill-rule:nonzero;"/><path d="M210.433,2104.13c4.438,2.475 10.025,0.891 12.513,-3.538c2.479,-4.421 0.895,-10.025 -3.534,-12.496c-4.433,-2.475 -10.033,-0.9 -12.512,3.53c-2.479,4.42 -0.9,10.025 3.533,12.504Z" style="fill:#484849;fill-rule:nonzero;"/><path d="M642.754,1865.47c3.404,11.154 15.204,17.413 26.35,14.009c11.15,-3.4 17.413,-15.196 14.013,-26.35c-3.404,-11.142 -15.209,-17.405 -26.338,-14.009c-11.154,3.417 -17.433,15.209 -14.025,26.35Z" style="fill-rule:nonzero;"/><path d="M647.7,1961.86c3.408,11.145 15.213,17.416 26.346,14.016c11.146,-3.408 17.421,-15.204 14,-26.341c-3.388,-11.15 -15.192,-17.425 -26.333,-14.017c-11.146,3.396 -17.43,15.196 -14.013,26.342Z" style="fill-rule:nonzero;"/><path d="M544.362,1248.96c0,21.746 -8.445,39.371 -18.866,39.371c-10.417,0 -18.863,-17.625 -18.863,-39.371c0,-21.746 8.446,-39.371 18.863,-39.371c10.421,0 18.866,17.625 18.866,39.371Z" style="fill-rule:nonzero;"/><path d="M825.813,1221.53c0,21.746 -8.446,39.375 -18.867,39.375c-10.417,0 -18.862,-17.629 -18.862,-39.375c0,-21.742 8.445,-39.371 18.862,-39.371c10.421,0 18.867,17.629 18.867,39.371Z" style="fill-rule:nonzero;"/><path d="M558.691,1151.82l-154.726,83.582l-8.968,-31.983l156.734,-75.247l6.96,23.648Z" style="fill:#969696;fill-rule:nonzero;"/><path d="M731.12,1116.27l139.765,73.382l8.754,-32.04l-141.716,-65.035l-6.803,23.693Z" style="fill:#969696;fill-rule:nonzero;"/><path d="M996.517,2027.72l-59.108,-46.004l-43.146,42.625c-2.796,3.117 -19.154,23.537 -9.584,31.154c4.588,3.667 10.005,2.233 14.725,-0.592c-1.908,4.946 -2.458,10.375 1.813,13.784c4.158,3.316 8.996,2.45 13.379,0.15c-1.454,4.546 -1.567,9.266 2.325,12.346c4.579,3.654 9.983,2.241 14.713,-0.592c-1.913,4.954 -2.463,10.367 1.808,13.767c8.942,7.129 20.992,-4.921 24.871,-9.296l38.204,-57.342Z" style="fill:#fddabb;fill-rule:nonzero;"/><path d="M933.254,1979.89l-15.158,13.983l69.359,54.509l10.745,-17.638l-64.946,-50.854Z" style="fill:#f6f8f9;fill-rule:nonzero;"/><path d="M909.542,1494.22c0,0 400.679,170.579 92.763,548.08l-81.155,-59.146c0,0 245.738,-231.467 -3.85,-393.213l-7.758,-95.721Z" style="fill:#3f43ad;fill-rule:nonzero;"/><path d="M1042.09,1968.78c-3.646,3.534 -9.458,3.438 -12.975,-0.195c-3.55,-3.659 -3.458,-9.475 0.183,-12.996c3.638,-3.55 9.459,-3.45 12.988,0.183c3.533,3.654 3.458,9.471 -0.196,13.008Z" style="fill:#484849;fill-rule:nonzero;"/><path d="M1023.19,1994.81c-3.65,3.533 -9.467,3.441 -13.004,-0.188c-3.525,-3.662 -3.434,-9.475 0.204,-13.004c3.629,-3.533 9.458,-3.442 12.996,0.183c3.533,3.65 3.441,9.471 -0.196,13.009Z" style="fill:#484849;fill-rule:nonzero;"/><path d="M1004.93,2020.2c-3.65,3.537 -9.459,3.445 -13.005,-0.196c-3.529,-3.638 -3.441,-9.459 0.2,-12.984c3.65,-3.533 9.467,-3.454 13,0.188c3.534,3.637 3.45,9.458 -0.195,12.992Z" style="fill:#484849;fill-rule:nonzero;"/><path d="M611,1417.26l-12.975,-1.95c0.104,-0.704 11.429,-70.7 84.508,-78.825c73.646,-8.162 92.171,55.525 92.35,56.175l-12.641,3.513c-0.621,-2.175 -15.984,-53.542 -78.263,-46.642c-63.15,7.017 -72.887,67.121 -72.979,67.729Z" style="fill-rule:nonzero;"/><path d="M787.059,154.494c-18.513,7.458 -40.496,6.479 -60.067,6.033c-20.142,-0.462 -40.184,-2.625 -60.225,-4.754c-10.092,-21.875 -38.329,-34.463 -62.609,-41.367c14.505,-0.983 28.963,-2.35 43.321,-4.146c22.154,-2.775 50.275,-5.716 72.784,-16c22.012,7.921 43.475,17.938 61.612,32.425c11.813,9.429 23.996,20.225 5.184,27.809Zm-128.459,46.837c3.417,-3.125 6.308,-6.687 8.363,-10.85c9.27,9.592 13.512,19.642 5.516,27.496c-3.571,-6.1 -8.396,-11.683 -13.879,-16.646Zm-22.758,63.729c-10.688,-5.308 -21.879,-9.595 -32.438,-13.279c18.809,0.059 37.638,-1.129 53.675,-4.433c-3.421,7.879 -12.021,13.65 -21.237,17.712Zm-115.146,27.559c14.196,2.629 28.566,3.604 40.716,4.033c17.396,0.613 42.046,0.054 64.33,-5.417c2.233,1.384 4.483,2.746 6.683,4.18c7.963,5.2 15.842,11.7 21.888,18.725c-40.475,7.416 -92.596,-0.588 -133.617,-21.521Zm-173.117,-158.975c16.575,-30.675 84.975,-21.717 119.283,-16.588c-2.22,1.183 -4.387,2.45 -6.466,3.825c-4.717,3.121 -6.35,8.771 -3.625,13.833c8.212,15.28 20.571,24.742 35.204,30.513c-5.042,0.179 -10.067,0.4 -15.046,0.675c-16.992,0.946 -66.925,0.342 -63.125,25.796c-47.558,-10.388 -82.338,-28.225 -66.225,-58.054Zm134.383,119.875c26.475,-3.913 55.142,1.266 81.142,7.591c11.354,4.021 22.479,8.709 33.321,13.975c-38.267,5.305 -95.029,4.834 -114.463,-21.566Zm28.684,-128.934c30.229,6.246 60.237,14.98 88.8,26.63l-0.929,-0.017c-34.417,0.304 -92.371,11.192 -118.2,-18.154c9.087,-4.221 19.383,-6.946 30.329,-8.459Zm-77.304,67.205c7.27,-1.95 14.9,-2.925 22.32,-3.825c47.771,-5.817 98.671,-4.321 145.442,7.158c4.634,1.137 9.421,2.483 14.171,4.075c-11.092,2.567 -22.654,3.837 -32.983,4.992c-15.509,1.725 -83.942,1.554 -143.588,-7.855c-3.112,-3.291 -2.2,-5.133 -5.362,-4.545Zm220.8,34.275l0.366,0.691c-1.291,0.35 -2.612,0.696 -4.037,1.017c-37.842,8.554 -80.417,5.829 -120.109,-1c23.617,0.121 47.234,-1.388 70.546,-4.754c11.913,-1.721 26.992,-4.384 40.088,-9.884c5.146,3.863 9.717,8.384 13.146,13.93Zm-12.675,-37.071c-4.321,-2.463 -8.696,-4.579 -12.946,-6.209c-11.783,-4.512 -23.967,-7.991 -36.388,-10.637c9.759,-0.404 19.021,-0.65 27.38,-0.275c8.412,0.375 17.483,1.292 26.966,2.442c1.221,0.779 2.434,1.575 3.638,2.391c-0.613,4.5 -3.175,8.767 -8.65,12.288Zm-280.538,-137.246c-14.196,-19.434 55.221,-22.871 62.825,-22.692c1.354,0.033 2.713,0.142 4.067,0.192c-0.929,0.546 -1.9,1.05 -2.809,1.625c-4.983,3.133 -6.029,8.712 -3.629,13.833c21.013,44.817 89.092,45.613 130.859,46.642c43.662,1.075 86.971,-3.804 130.358,-7.117c-14.254,3.038 -27.471,4.704 -32.092,5.388c-54.287,8.004 -110.479,7.812 -165.029,2.929c-36.446,-3.263 -100.471,-7.846 -124.55,-40.8Zm211.934,-30.121c44.041,-2.442 116.233,-7.363 150.004,27.537c4.416,4.563 5.816,8.655 5.062,12.321c-12.521,0.375 -25.033,1.088 -37.546,2.004c-50.47,-15.125 -102.991,-25.587 -154.275,-37.32c-2.671,-0.613 -5.408,-1.246 -8.154,-1.888c15.792,-1.275 31.179,-1.896 44.909,-2.654Zm-102.667,11.95c20.371,3.2 40.604,7.646 60.533,12.092c32.867,7.333 66,14.67 98.888,22.762c-12.875,0.992 -25.75,1.838 -38.638,2.317c-38.154,1.421 -118.317,8.641 -146.662,-27.446c8.016,-4 16.733,-7.175 25.879,-9.725Zm350.35,115.225c-10.267,-34.438 -43.75,-54.363 -78.004,-67.917c5.45,-1.7 7.55,-7.587 6.3,-12.516c5.291,-19.821 -18.617,-41.83 -34.679,-49.775c-45.788,-22.655 -105.946,-19.605 -155.301,-16.342c-26.27,1.742 -57.683,3.458 -86.52,10.162c-36.359,-6.304 -74.13,-8.554 -105.963,3.88c-36.004,14.062 -31.363,44.354 -4.242,63.666c8.042,5.721 16.946,10.317 26.359,14.1c-18.071,2.146 -35.205,7.309 -48.134,17.967c-22.683,18.704 -19.487,48.775 0.384,68.008c22.841,22.109 58.229,31.563 90.796,37.263c6.687,5.05 14.616,9.112 23.129,12.404c-2.425,1.046 -4.792,2.213 -7.063,3.575c-5.029,3.017 -6,8.813 -3.625,13.833c32.871,69.525 146.355,102.888 220.617,85.646c2.367,11.009 -2.804,21.721 -21.542,29.559c-23.77,9.933 -67.016,14.566 -88.733,-2.721c-8.821,-7.021 -21.375,1.55 -15.879,12.254c10.291,20.058 8.45,44.05 19.254,64.067c6.196,11.479 23.658,1.271 17.463,-10.204c-6.78,-12.563 -8.563,-26.85 -11.584,-40.759c52.338,14.296 141.625,-8.191 121.267,-61.387c1.158,-2.117 1.575,-4.63 0.825,-7.271c-4.554,-16.104 -15.146,-28.463 -28.388,-38.275c7.175,-4.888 13.13,-10.917 17,-18.513c3.309,-6.496 4.763,-12.875 4.759,-19.021c17.966,-8.333 26.846,-22.154 17.612,-44.37c-2.508,-6.038 -6.041,-11.542 -10.308,-16.588c47.717,5.95 98.642,8.733 131.6,-20.887c2.6,-2.338 3.583,-6.542 2.6,-9.838Z" style="fill-rule:nonzero;"/><path d="M609.233,505.444c-3.95,-2.004 -8.058,-3.517 -12.241,-4.779c0.196,-2.492 -0.692,-5.1 -3.188,-7.346c-10.587,-9.525 -44.887,-13.204 -47.579,4.387c-10.604,1.613 -13.229,16.155 -2.1,19.705c7.937,2.529 16.054,4.208 24.258,5.266l0.775,0.179c2.205,5.146 7.821,8.521 13.613,4.321c0.958,-0.696 2,-1.604 3.079,-2.375c6.808,0.204 13.292,-0.141 18.279,-0.516c9.279,-0.692 14.754,-13.942 5.104,-18.842Z" style="fill-rule:nonzero;"/><path d="M1066.14,2574.13l-864.142,0c-35.4,0 -64.096,-28.7 -64.096,-64.1c0,-35.396 28.696,-64.096 64.096,-64.096l78.358,0l-6.458,72.413c0,0 73.246,31.012 120.492,31.012c29.404,0 48.737,-12.016 34.07,-50.991c-9.633,-25.605 -25.612,-34.088 -42.57,-34.088c-33.351,0 -70.471,32.838 -70.471,32.838l13.337,-51.184l530.138,0l-8.7,65.15c0,0 69.55,21.109 117.917,21.104c34.75,0 58.567,-10.895 37.787,-48.354c-15.416,-27.787 -38.304,-35.608 -59.187,-35.608c-26.904,0 -50.492,12.983 -50.492,12.983l3.271,-15.275l166.65,0c35.396,0 64.092,28.7 64.092,64.096c0,35.4 -28.696,64.1 -64.092,64.1Z" style="fill:#c8c8c8;fill-rule:nonzero;"/><path d="M394.392,2549.36c-47.246,0 -120.492,-31.012 -120.492,-31.012l6.458,-72.413l48.4,0l-13.337,51.184c0,0 37.12,-32.838 70.471,-32.838c16.958,0 32.937,8.483 42.57,34.088c14.667,38.975 -4.666,50.991 -34.07,50.991Zm573.721,-17.171c-48.367,0.005 -117.917,-21.104 -117.917,-21.104l8.7,-65.15l40.596,0l-3.271,15.275c0,0 23.588,-12.983 50.492,-12.983c20.883,0 43.771,7.821 59.187,35.608c20.78,37.459 -3.037,48.354 -37.787,48.354Z" style="fill:#181818;fill-rule:nonzero;"/></g><defs><linearGradient id="_Linear1" x1="0" y1="0" x2="1" y2="0" gradientUnits="userSpaceOnUse" gradientTransform="matrix(1.70961e-14,279.2,-279.2,1.70961e-14,682.825,1532.51)"><stop offset="0%" style="stop-color:#ed1c24;stop-opacity:1"/><stop offset="41%" style="stop-color:#f9a11a;stop-opacity:1"/><stop offset="66%" style="stop-color:#fff200;stop-opacity:1"/><stop offset="87%" style="stop-color:#d8e60c;stop-opacity:1"/><stop offset="94%" style="stop-color:#73c82c;stop-opacity:1"/><stop offset="99%" style="stop-color:#00a650;stop-opacity:1"/><stop offset="100%" style="stop-color:#00a650;stop-opacity:1"/></linearGradient></defs></svg>