<?xml version="1.0" encoding="UTF-8" standalone="no"?>
<!DOCTYPE svg PUBLIC "-//W3C//DTD SVG 1.1//EN" "http://www.w3.org/Graphics/SVG/1.1/DTD/svg11.dtd">
<svg width="100%" height="100%" viewBox="0 0 512 512" version="1.1" xmlns="http://www.w3.org/2000/svg" xmlns:xlink="http://www.w3.org/1999/xlink" xml:space="preserve" style="fill-rule:evenodd;clip-rule:evenodd;stroke-linejoin:round;stroke-miterlimit:1.41421;">
    <g transform="matrix(-1,0,-0,1,511.997,0)">
        <path d="M441.383,145.879C441.251,119.501 419.682,98.041 393.303,98.041C382.669,98.041 302.213,98.041 291.594,98.041C271.179,98.041 252.455,109.191 242.726,127.14L227.252,155.694L216.763,175.049L187.498,183.569C183.951,190.325 178.856,196.14 172.686,200.55L183.824,200.55C197.867,200.55 210.495,206.82 219.073,216.698L236.263,211.693C241.384,210.202 245.865,206.631 248.446,201.866C256.185,187.727 274.348,157.453 281.579,145.451C281.96,144.819 282.716,144.519 283.427,144.716C284.138,144.914 284.629,145.562 284.629,146.3L284.638,487.62C284.638,501.085 295.554,512 309.018,512C322.482,512 333.398,501.085 333.398,487.62L333.398,292.744L343.923,292.744L343.923,487.62C343.923,501.085 354.839,512 368.303,512C381.767,512 392.683,501.085 392.683,487.62C392.683,165.18 392.251,349.828 392.241,146.057C392.241,143.71 394.143,141.806 396.492,141.805C398.839,141.804 400.744,143.707 400.745,146.055C400.745,146.064 400.745,146.074 400.745,146.083L401.495,295.345C401.552,306.532 410.636,315.56 421.81,315.56C421.844,315.56 421.88,315.56 421.914,315.56C433.135,315.503 442.185,306.361 442.129,295.141L441.383,145.879Z" style="fill-rule:nonzero;"/>
    </g>
    <g transform="matrix(-1,0,-0,1,511.997,0)">
        <circle cx="144.59" cy="161.126" r="38.231"/>
    </g>
    <g transform="matrix(-1,0,-0,1,511.997,0)">
        <path d="M109.815,212.547C104.475,212.547 90.691,211.415 79.296,224.112C73.815,230.219 70.454,238.263 70.41,247.072C70.41,247.072 69.921,344.512 69.868,354.793C69.827,362.891 76.358,369.488 84.456,369.529C84.482,369.529 84.507,369.529 84.532,369.529C92.595,369.529 99.153,363.013 99.193,354.94C99.253,342.975 99.671,259.797 99.735,247.219C99.744,245.657 101.014,244.398 102.574,244.402C104.135,244.406 105.397,245.673 105.397,247.233L105.397,266.572L105.398,266.572C111.119,259.069 113.41,250.262 113.921,241.871C114.703,228.99 111.327,217.115 109.815,212.547Z" style="fill-rule:nonzero;"/>
    </g>
    <g transform="matrix(-1,0,-0,1,511.997,0)">
        <path d="M183.063,281.894C170.528,271.971 164.212,258.329 163.137,241.871C162.477,231.772 163.781,221.676 166.479,212.546L122.117,212.546C124.814,221.669 126.119,231.766 125.459,241.871C124.38,258.39 118.025,272.073 105.397,282.004L105.404,493.704C105.404,503.421 113.281,511.299 122.998,511.299C132.715,511.299 140.592,503.421 140.592,493.704L140.592,353.064L148.19,353.064L148.19,493.705C148.19,503.422 156.067,511.3 165.784,511.3C175.501,511.3 183.378,503.422 183.378,493.705C183.381,360.997 183.063,281.923 183.063,281.894Z" style="fill-rule:nonzero;"/>
    </g>
    <g transform="matrix(-1,0,-0,1,511.997,0)">
        <path d="M218.524,247.072C218.496,241.453 217.111,236.147 214.695,231.452C208.928,220.244 197.244,212.546 183.826,212.546L178.78,212.546C177.267,217.116 173.891,228.99 174.676,241.871C175.182,250.194 177.443,258.928 183.064,266.391L183.064,247.227C183.064,245.534 184.435,244.161 186.127,244.158C187.82,244.156 189.195,245.524 189.2,247.218C189.2,247.218 189.688,344.245 189.742,354.939C189.782,363.012 196.338,369.528 204.403,369.528C204.427,369.528 204.453,369.528 204.479,369.528C212.577,369.487 219.108,362.89 219.067,354.792C219.006,342.885 218.589,259.769 218.524,247.072Z" style="fill-rule:nonzero;"/>
    </g>
    <g transform="matrix(-1,0,-0,1,511.997,0)">
        <circle cx="338.935" cy="42.108" r="42.108"/>
    </g>
</svg>
