<?xml version="1.0" encoding="UTF-8" standalone="no"?>
<!DOCTYPE svg PUBLIC "-//W3C//DTD SVG 1.1//EN" "http://www.w3.org/Graphics/SVG/1.1/DTD/svg11.dtd">
<svg width="100%" height="100%" viewBox="0 0 156 156" version="1.1" xmlns="http://www.w3.org/2000/svg" xmlns:xlink="http://www.w3.org/1999/xlink" xml:space="preserve" style="fill-rule:evenodd;clip-rule:evenodd;stroke-linejoin:round;stroke-miterlimit:1.41421;">
    <g>
        <g transform="matrix(-1,0,-0,1,155.739,0)">
            <path d="M93.192,25.738C101.518,25.738 108.265,32.49 108.265,40.819C108.265,49.144 101.518,55.897 93.192,55.897C84.862,55.897 78.113,49.144 78.113,40.819C78.113,32.49 84.862,25.738 93.192,25.738Z" style="fill-rule:nonzero;"/>
        </g>
        <g transform="matrix(-1,0,-0,1,155.739,0)">
            <path d="M101.102,73.074C106.456,73.074 110.794,77.413 110.794,82.765C110.794,88.121 106.456,92.462 101.102,92.462C95.746,92.462 91.409,88.121 91.409,82.765C91.409,77.413 95.746,73.074 101.102,73.074Z" style="fill-rule:nonzero;"/>
        </g>
        <g transform="matrix(-1,0,-0,1,155.739,0)">
            <path d="M52.781,155.739L139.73,155.739C139.73,155.739 114.498,135.46 115.029,113.226C115.346,100.838 139.73,85.068 139.609,50.646C139.533,33.335 122.744,4.558 94.238,0.971C65.724,-2.62 44.386,3.656 35.062,21.235C25.727,38.805 25.02,54.234 25.737,57.096C26.463,59.972 29.506,65.351 29.506,65.351C29.506,65.351 15.16,87.405 16.049,90.988C16.957,94.584 26.797,96.515 26.797,96.515C26.797,96.515 27.689,99.012 25.891,103.85C24.096,108.696 29.229,114.318 30.771,116.28C32.29,118.234 28.613,124.342 29.863,127.756C31.116,131.154 37.039,135.279 43.849,134.388C50.668,133.486 59.415,131.884 62.453,131.334C69.312,147.479 52.781,155.739 52.781,155.739ZM117.141,90.021L114.194,94.546L111.327,92.663C110.012,94.016 108.408,95.115 106.613,95.87L107.321,99.241L102.045,100.341L101.339,96.977C99.369,97.009 97.475,96.642 95.737,95.926L93.854,98.798L89.327,95.843L91.204,92.971C89.858,91.659 88.753,90.059 88.005,88.265L84.629,88.97L83.519,83.685L86.899,82.984C86.872,81.032 87.232,79.132 87.944,77.386L85.073,75.504L88.025,70.982L90.901,72.861C92.213,71.501 93.809,70.403 95.612,69.649L94.904,66.281L100.184,65.17L100.892,68.544C102.844,68.511 104.745,68.882 106.491,69.592L108.373,66.717L112.893,69.666L111.015,72.544C112.366,73.857 113.471,75.449 114.223,77.255L117.58,76.555L118.691,81.835L115.326,82.535C115.358,84.493 114.988,86.392 114.275,88.139L117.141,90.021ZM67.762,30.636L72.98,31.843C74.168,29.158 75.905,26.698 78.137,24.63L75.3,20.086L82.415,15.637L85.255,20.182C88.09,19.087 91.062,18.601 93.994,18.707L95.194,13.503L103.383,15.386L102.179,20.589C104.861,21.785 107.307,23.52 109.383,25.747L113.922,22.909L118.376,30.031L113.829,32.86C114.926,35.697 115.405,38.671 115.308,41.601L120.51,42.808L118.622,50.989L113.407,49.782C112.225,52.461 110.49,54.928 108.258,56.994L111.1,61.534L103.976,65.982L101.145,61.443C98.299,62.543 95.328,63.03 92.397,62.918L91.191,68.122L83.013,66.234L84.208,61.03C81.532,59.844 79.073,58.105 77.014,55.875L72.464,58.716L68.014,51.594L72.564,48.76C71.464,45.917 70.983,42.954 71.084,40.024L65.873,38.82L67.762,30.636Z" style="fill-rule:nonzero;"/>
        </g>
    </g>
</svg>
