<?xml version="1.0" encoding="UTF-8" standalone="no"?>
<!DOCTYPE svg PUBLIC "-//W3C//DTD SVG 1.1//EN" "http://www.w3.org/Graphics/SVG/1.1/DTD/svg11.dtd">
<svg width="100%" height="100%" viewBox="0 0 126 21" version="1.1" xmlns="http://www.w3.org/2000/svg" xmlns:xlink="http://www.w3.org/1999/xlink" xml:space="preserve" style="fill-rule:evenodd;clip-rule:evenodd;stroke-linejoin:round;stroke-miterlimit:1.41421;">
    <g transform="matrix(1,0,0,1,-435.579,-192.835)">
        <path d="M496.264,203.236C496.264,199.574 497.906,196.35 501.422,194.388C503.414,193.303 505.787,192.835 508.278,192.835C511.533,192.835 513.142,193.538 514.079,193.538C514.168,194.417 514.198,196.468 514.491,198.255C514.373,198.577 513.582,198.607 513.377,198.314C512.438,195.56 510.593,194.183 507.867,194.183C503.209,194.183 500.954,198.05 500.954,202.681C500.954,206.871 502.388,209.361 504.293,210.65C505.699,211.588 507.222,211.764 508.308,211.764C509.976,211.764 510.328,211.441 510.328,209.538L510.328,207.691C510.328,206.109 510.152,205.933 508.747,205.728L507.457,205.552C507.136,205.376 507.136,204.702 507.457,204.526C509.537,204.585 510.974,204.614 512.41,204.614C513.817,204.614 515.251,204.585 516.248,204.526C516.483,204.702 516.483,205.376 516.248,205.552L515.574,205.67C514.696,205.816 514.52,206.109 514.52,207.691L514.52,209.332C514.52,210.563 514.578,211.148 515.133,211.266C515.251,211.383 515.223,211.881 515.047,211.969C514.549,212.057 513.785,212.146 512.996,212.408C511.97,212.731 509.451,213.111 507.809,213.111C505.817,213.111 504.117,212.907 502.037,212.086C498.609,210.709 496.264,207.457 496.264,203.236ZM527.939,213.111C534.24,213.111 538.519,209.274 538.519,202.885C538.519,196.937 534.327,192.835 528.232,192.835C522.108,192.835 517.773,197.318 517.773,203.119C517.773,209.245 522.05,213.111 527.939,213.111ZM540.217,194.241C540.013,194.006 540.042,193.303 540.335,193.216C541.713,193.274 543.177,193.303 544.379,193.303C545.375,193.303 546.225,193.274 546.839,193.216C547.133,194.534 549.039,196.76 551.675,199.896L554.136,202.798C555.426,204.322 556.277,205.347 556.95,206.021C557.066,205.728 557.066,205.229 557.066,204.702L557.066,200.657C557.066,198.285 556.95,196.087 556.628,195.295C556.363,194.681 555.719,194.475 554.927,194.359L554.136,194.241C553.902,194.006 553.96,193.392 554.136,193.216C555.719,193.274 556.861,193.303 558.064,193.303C559.147,193.303 560.203,193.274 561.345,193.216C561.52,193.392 561.579,194.006 561.345,194.241L560.816,194.329C560.056,194.446 559.498,194.681 559.235,195.295C558.913,196.087 558.795,198.285 558.795,200.657L558.795,207.662C558.795,209.567 558.795,211.412 558.854,212.38C558.649,212.731 557.828,213.054 557.125,213.054C557.095,213.054 556.13,211.559 554.752,209.86L547.983,201.479C546.283,199.397 545.315,198.168 544.787,197.728C544.642,198.021 544.642,198.519 544.642,199.604L544.642,205.288C544.642,207.662 544.759,209.86 545.081,210.65C545.346,211.266 546.019,211.471 546.781,211.588L547.602,211.705C547.836,211.939 547.777,212.556 547.602,212.731C546.019,212.673 544.847,212.643 543.675,212.643C542.592,212.643 541.506,212.673 540.393,212.731C540.217,212.556 540.159,211.939 540.393,211.705L540.892,211.618C541.682,211.471 542.268,211.266 542.503,210.65C542.826,209.86 542.913,207.662 542.913,205.288L542.913,197.845C542.913,196.233 542.885,195.764 542.709,195.355C542.473,194.857 542.064,194.505 541.038,194.359L540.217,194.241ZM440.326,212.643C441.381,212.643 442.846,212.82 444.223,212.82C447.242,212.82 449.644,212.438 451.638,211.441C455.006,209.772 456.882,206.607 456.882,202.681C456.882,199.017 454.772,195.56 450.933,194.183C448.911,193.45 446.509,193.216 444.106,193.216C441,193.216 438.714,193.333 436.253,193.479C435.901,193.508 435.901,194.359 436.195,194.505L436.751,194.563C438.1,194.71 438.158,195.266 438.158,198.05L438.158,208.424C438.158,211.119 437.982,211.354 436.663,211.559L435.755,211.705C435.52,211.853 435.52,212.556 435.755,212.731C437.425,212.673 438.92,212.643 440.326,212.643ZM483.518,206.021C482.806,206.025 482.718,206.074 482.55,206.607L481.408,210.006C481.233,210.592 481.203,210.826 481.203,211.061C481.203,211.237 481.583,211.412 482.404,211.559L483.283,211.705C483.458,211.911 483.518,212.584 483.224,212.731C482.199,212.673 481.143,212.673 479.913,212.643C479.134,212.643 478.548,212.696 477.687,212.719C477.208,212.793 476.607,212.82 476.016,212.82C473.321,212.82 471.622,211.853 470.332,209.743C469.394,208.189 468.721,206.753 468.046,205.2C467.695,204.409 467.226,204.175 466.493,204.175C465.468,204.175 465.41,204.233 465.41,204.819L465.41,208.424C465.41,211.119 465.585,211.325 466.904,211.559L467.695,211.705C467.9,211.853 467.9,212.556 467.695,212.731C466.142,212.673 464.794,212.643 463.387,212.643C461.922,212.643 460.633,212.673 459.109,212.731C458.875,212.556 458.875,211.853 459.109,211.705L459.9,211.559C461.218,211.325 461.395,211.119 461.395,208.424L461.395,198.05C461.395,195.12 461.336,194.797 460.106,194.622L459.315,194.505C459.021,194.359 459.021,193.626 459.373,193.479C461.571,193.333 463.857,193.216 466.64,193.216C469.131,193.216 471.27,193.597 472.384,194.27C474.083,195.266 474.963,196.732 474.963,198.607C474.963,201.215 473.203,202.328 471.856,203.002C471.563,203.148 471.563,203.326 471.709,203.647C473.644,207.574 474.845,209.772 476.251,210.973C476.669,211.311 477.086,211.513 477.451,211.634L477.599,211.618C478.302,211.53 478.888,211.295 479.386,210.152C479.884,208.98 480.441,207.574 481.233,205.464L483.897,198.314C484.572,196.468 485.07,195.443 484.983,194.593C486.389,194.27 487.472,192.835 487.531,192.835C487.913,192.835 488.088,192.981 488.206,193.421C488.442,194.27 488.793,195.355 489.525,197.435L493.511,208.922C494.125,210.68 494.39,211.354 495.473,211.53L496.587,211.705C496.763,211.853 496.822,212.556 496.558,212.731C495.151,212.673 493.569,212.643 492.045,212.643C490.58,212.643 489.436,212.673 488.088,212.731C487.766,212.556 487.708,211.939 488.03,211.705L488.968,211.559C489.642,211.441 489.759,211.237 489.759,211.061C489.759,210.856 489.554,210.152 489.203,209.068L488.412,206.548C488.269,206.094 488.046,206.025 487.005,206.021L483.518,206.021ZM527.997,194.183C531.632,194.183 533.831,198.255 533.831,203.266C533.831,208.013 532.336,211.764 528.497,211.764C523.72,211.764 522.46,206.021 522.46,202.445C522.46,197.552 524.394,194.183 527.997,194.183ZM442.348,196.644C442.348,195.735 442.377,195.179 442.553,194.944C442.729,194.71 443.286,194.563 444.076,194.563C449.381,194.563 452.164,197.699 452.164,202.972C452.164,206.959 450.435,211.471 445.366,211.471C444.311,211.471 443.461,211.207 442.934,210.621C442.407,210.006 442.348,208.951 442.348,207.339L442.348,196.644ZM486.858,204.468C487.548,204.455 487.665,204.335 487.445,203.617L486.682,201.245C486.272,199.984 485.744,198.402 485.481,197.787C485.247,198.461 484.66,200.042 484.22,201.391L483.488,203.589C483.224,204.38 483.371,204.468 484.105,204.468L486.858,204.468ZM465.41,196.058C465.41,194.651 465.468,194.563 466.67,194.563C468.955,194.563 470.508,196.263 470.508,198.899C470.508,200.628 469.951,201.567 469.453,202.065C468.896,202.622 468.282,202.885 467.226,202.885C465.498,202.885 465.41,202.798 465.41,201.772L465.41,196.058Z" style="fill:rgb(0,153,77);"/>
    </g>
</svg>
