<?xml version="1.0" encoding="UTF-8" standalone="no"?>
<!DOCTYPE svg PUBLIC "-//W3C//DTD SVG 1.1//EN" "http://www.w3.org/Graphics/SVG/1.1/DTD/svg11.dtd">
<svg width="100%" height="100%" viewBox="0 0 140 140" version="1.1" xmlns="http://www.w3.org/2000/svg" xmlns:xlink="http://www.w3.org/1999/xlink" xml:space="preserve" style="fill-rule:evenodd;clip-rule:evenodd;stroke-linejoin:round;stroke-miterlimit:1.41421;">
    <g transform="matrix(1,0,0,1,-1339.79,-205.499)">
        <g transform="matrix(1,0,0,1,909.052,5.68434e-14)">
            <g transform="matrix(0.857101,0,0,0.857101,243.105,-72.435)">
                <path d="M250.581,357.56C250.581,357.56 252.705,352.727 257.174,358.733C257.174,358.733 260.763,351.819 255.051,352.566C255.051,352.566 258.638,348.551 261.201,353.605C261.201,353.605 267.353,354.556 260.47,362.906C260.47,362.906 267.721,363.785 265.598,357.705C265.598,357.705 270.284,359.098 266.767,364.517C266.767,364.517 270.137,367.813 262.301,368.839C262.301,368.839 259.664,369.278 261.568,381.657C261.568,381.657 262.665,378.213 266.401,379.021C266.401,379.021 259.152,383.855 268.453,387.223C268.453,387.223 267.133,388.396 266.182,392.202C265.23,396.013 264.864,397.696 263.62,398.135C263.62,398.135 266.328,391.397 259.517,391.325C259.517,391.325 256.222,391.47 254.392,394.4C254.392,394.4 257.026,388.174 254.463,386.051C251.9,383.926 250.581,386.565 250.581,386.565C250.581,386.565 250.727,381.948 256,383.047C256,383.047 258.199,372.647 255.413,371.622C255.413,371.622 251.534,378.067 250.362,372.354C250.362,372.354 245.455,372.354 247.653,366.788C247.653,366.788 247.725,370.742 251.386,369.863C255.051,368.986 257.54,360.93 250.581,360.93C250.581,360.93 247.507,361.001 248.312,363.931C248.312,363.931 245.234,359.464 250.581,357.56Z" style="fill:rgb(0,153,77);"/>
            </g>
            <g transform="matrix(0.857101,0,0,0.857101,243.105,-72.435)">
                <path d="M345.214,341.503C340.639,346.815 336.014,352.345 336.717,359.136C337.521,366.914 352.001,362.758 352.001,362.758C352.001,362.758 334.841,368.255 332.828,375.63C330.818,383.005 346.103,382.87 346.103,382.87C331.221,383.542 328.137,392.254 328.137,392.254C324.784,402.714 334.973,405.395 334.973,405.395C329.477,403.919 325.456,406.601 325.456,406.601C318.211,411.293 325.184,419.475 325.184,419.475C320.091,415.182 317.004,415.986 317.004,415.986C308.156,417.597 312.18,429.93 312.18,429.93C312.18,429.93 310.84,426.712 302.125,421.752C293.411,416.795 288.315,399.63 304.672,387.831C321.032,376.03 321.431,339.427 321.431,339.427C321.098,366.31 339.139,348.314 345.214,341.503Z" style="fill:rgb(0,153,77);"/>
            </g>
            <g transform="matrix(0.857101,0,0,0.857101,243.105,-72.435)">
                <path d="M273.164,459.024C272.358,451.514 268.471,449.236 268.471,449.236C275.174,444.944 270.08,440.523 270.08,440.523C274.371,441.06 274.906,437.303 274.906,437.303C277.856,430.064 270.481,428.589 270.481,428.589C281.477,427.783 285.498,437.974 285.498,437.974C270.885,441.862 273.164,459.024 273.164,459.024Z" style="fill:rgb(0,153,77);"/>
            </g>
            <g transform="matrix(0.857101,0,0,0.857101,243.105,-72.435)">
                <path d="M286.392,364.981C286.392,364.981 286.326,365.019 286.215,365.07C286.328,365.015 286.392,364.981 286.392,364.981Z" style="fill:rgb(0,153,77);"/>
            </g>
            <g transform="matrix(0.857101,0,0,0.857101,243.105,-72.435)">
                <path d="M272.584,363.592C272.584,363.592 273.819,365.443 276.672,363.516C276.672,363.516 278.678,362.28 281.302,364.364C283.514,366.121 285.612,365.354 286.215,365.07C285.586,365.375 283.252,366.369 279.525,366.369C275.131,366.369 273.278,369.84 275.668,371.846C275.668,371.846 270.503,370.072 275.668,365.829C275.668,365.829 271.428,367.141 270.811,363.516C270.192,359.89 273.741,359.656 273.741,359.656C273.741,359.656 270.657,360.97 272.584,363.592Z" style="fill:rgb(0,153,77);"/>
            </g>
            <g transform="matrix(0.857101,0,0,0.857101,243.105,-72.435)">
                <path d="M254.304,419.746C254.304,419.746 249.986,418.204 247.67,422.908C247.67,422.908 246.361,425.84 249.134,425.76C249.134,425.76 241.576,428.152 245.277,420.518C245.277,420.518 242.889,418.741 246.051,416.196C249.214,413.653 252.064,414.269 252.686,414.809C252.686,414.809 247.284,406.786 243.658,413.96C243.658,413.96 241.423,409.948 248.597,408.56C248.597,408.56 249.907,404.549 254.226,409.178C258.546,413.806 263.021,406.633 263.789,403.239C263.789,403.239 260.398,404.937 257.542,400.384C257.542,400.384 264.95,403.701 267.416,393.753C269.885,383.802 275.131,381.948 281.376,381.026C281.376,381.026 276.828,379.559 273.355,380.793C273.355,380.793 275.362,377.708 282.072,378.787C282.072,378.787 284.386,379.482 285.929,377.554C285.929,377.554 281.533,378.711 280.686,374.083C280.686,374.083 284.848,380.638 291.716,370.303C291.716,370.303 289.092,371.921 284.233,370.765C279.372,369.609 281.222,371.611 279.061,371.846C279.061,371.846 280.606,367.834 285.929,367.217C285.929,367.217 289.168,366.215 289.785,364.055C289.785,364.055 285.697,364.748 282.612,361.895C279.525,359.041 276.902,358.654 275.515,360.275C275.515,360.275 274.051,352.871 289.247,357.73C289.247,357.73 287.858,353.179 292.717,354.49C297.576,355.801 297.96,357.345 299.657,356.804C301.355,356.264 300.967,353.563 298.808,353.796C298.808,353.796 304.439,350.402 303.976,357.421C303.976,357.421 307.371,354.498 307.371,352.566C307.371,352.566 306.756,361.279 316.626,355.724C316.626,355.724 304.746,363.359 313.006,367.527C313.006,367.527 307.986,367.834 304.748,364.517C304.748,364.517 311.767,373.234 306.369,380.793C306.369,380.793 307.218,375.779 304.903,373.618C304.903,373.618 306.369,383.648 297.113,391.9C287.858,400.154 292.179,418.28 299.271,421.518C299.271,421.518 295.108,420.825 292.179,418.28C292.179,418.28 299.657,429.693 305.135,437.329C310.613,444.964 315.472,458.849 306.445,466.485C297.423,474.121 280.915,476.589 275.206,460.699C269.497,444.811 287.547,437.328 290.096,438.255C290.096,438.255 294.874,441.726 295.416,442.652C295.416,442.652 279.22,444.734 283.15,458.077C287.087,471.422 315.086,463.862 297.576,442.652C297.576,442.652 274.975,425.608 273.819,416.892C273.819,416.892 271.813,420.054 271.969,422.523C271.969,422.523 269.423,409.408 274.359,401.08C274.359,401.08 269.19,406.553 269.578,412.185C269.578,412.185 267.262,403.239 263.018,413.342C263.018,413.342 266.952,412.801 267.416,414.961C267.879,417.124 267.959,418.974 266.261,419.05C266.261,419.05 270.272,423.445 262.403,425.532C262.403,425.532 267.416,419.59 261.092,419.205C261.092,419.205 255.15,418.974 257.389,425.915C257.389,425.915 258.625,429.849 260.86,425.374C260.86,425.374 261.94,428.616 259.01,429.849C259.01,429.849 256.771,430.698 255.768,427.998C255.768,427.998 248.518,427.456 254.304,419.746Z" style="fill:rgb(0,153,77);"/>
            </g>
            <g transform="matrix(0.857101,0,0,0.857101,243.105,-72.435)">
                <path d="M337.394,407.667C337.394,407.667 344.91,419.901 348.226,391.68C348.226,391.68 345.607,413.433 357.838,412.909C357.838,412.909 337.83,420.424 349.541,425.138C349.541,425.138 334.338,424.176 340.017,433.697C340.017,433.697 330.583,430.818 328.309,439.376C328.309,439.376 320.096,437.543 317.215,443.743C317.215,443.743 314.59,440.424 309.264,441.21L307.168,437.808C307.168,437.808 317.563,441.389 331.98,427.759C331.98,427.759 342.461,419.813 337.394,407.667Z" style="fill:rgb(0,153,77);"/>
            </g>
        </g>
        <g transform="matrix(0.935299,0,0,0.935299,-107.121,-168.62)">
            <rect x="1547" y="400" width="149.685" height="149.685" style="fill:none;"/>
        </g>
    </g>
</svg>
