<?xml version="1.0" encoding="UTF-8" standalone="no"?>
<!DOCTYPE svg PUBLIC "-//W3C//DTD SVG 1.1//EN" "http://www.w3.org/Graphics/SVG/1.1/DTD/svg11.dtd">
<svg width="100%" height="100%" viewBox="0 0 140 140" version="1.1" xmlns="http://www.w3.org/2000/svg" xmlns:xlink="http://www.w3.org/1999/xlink" xml:space="preserve" style="fill-rule:evenodd;clip-rule:evenodd;stroke-linejoin:round;stroke-miterlimit:1.41421;">
    <g transform="matrix(1,0,0,1,-1562.79,-205.499)">
        <g transform="matrix(0.888251,0,0,0.888251,943.108,29.554)">
            <g transform="matrix(0.857104,0,0,0.857104,526.679,-72.4364)">
                <path d="M326.372,356.729C325.93,356.729 325.555,356.699 325.251,356.655C327.37,357.732 329.356,358.277 331.168,358.277C334.183,358.277 336.272,356.817 337.921,355.389C338.709,354.708 339.797,354.363 341.161,354.363C342.819,354.363 344.493,354.883 345.307,355.174C344.412,354.246 341.916,351.977 338.857,351.977C337.392,351.977 335.974,352.495 334.638,353.516C331.164,356.17 328.228,356.729 326.372,356.729" style="fill:rgb(247,166,27);fill-rule:nonzero;"/>
            </g>
            <g transform="matrix(0.857104,0,0,0.857104,526.679,-72.4364)">
                <path d="M299.892,354.385L300.043,354.417L299.982,354.558C293.96,369.271 297.353,379.867 301.258,386.166C304.91,392.047 309.674,395.381 310.964,396.215C309.502,392.453 311.094,387.419 311.115,387.367L311.221,387.028L311.35,387.359C313.48,392.894 321.035,395.625 323.442,396.367C321.6,394.937 320.613,392.631 320.091,390.862C319.472,388.74 319.378,386.911 319.376,386.892L319.347,386.329L319.612,386.827C322.202,391.716 330.13,392.602 332.455,392.759C327.171,390.078 326.786,382.836 326.78,382.761L326.776,382.62L326.913,382.63C327.335,382.656 327.757,382.672 328.16,382.672C333.568,382.672 335.458,380.093 335.947,379.213C335.346,379.447 334.736,379.566 334.127,379.566C330.721,379.567 328.447,375.915 328.349,375.759L328.212,375.534L328.473,375.571C329.031,375.643 329.57,375.679 330.069,375.679C334.97,375.679 335.986,372.284 336.196,370.827C335.71,371.666 334.609,373.089 332.724,373.089C331.132,373.089 329.317,372.085 327.332,370.098C323.837,366.601 320.139,365.866 317.656,365.866C315.316,365.866 313.71,366.504 313.691,366.511L313.294,366.673L313.546,366.321C315.015,364.262 317.141,363.081 319.383,363.081C320.001,363.081 320.631,363.167 321.259,363.342C321.689,363.462 322.155,363.525 322.627,363.525C324.453,363.525 326.126,362.617 326.898,362.124C325.036,362.228 323.6,360.687 323.538,360.622C321.019,357.423 317.465,357.22 317.429,357.219L316.533,357.176L317.404,356.972C320.326,356.284 325.945,352.364 326.619,350.842C326.913,350.186 327.621,349.839 328.671,349.839C329.291,349.839 329.876,349.957 330.177,350.03C329.475,347.354 327.892,346 325.468,346C322.158,346 318.408,348.56 318.369,348.587L318.217,348.691L318.175,348.512C317.565,345.972 317.081,344.939 314.718,344.939C312.744,344.939 309.363,345.749 304.551,347.054C302.256,347.676 300.111,347.993 298.181,347.993C292.593,347.993 290.104,345.341 289.342,344.302C290.037,352.323 299.791,354.366 299.892,354.385" style="fill:rgb(247,166,27);fill-rule:nonzero;"/>
            </g>
            <g transform="matrix(0.857104,0,0,0.857104,526.679,-72.4364)">
                <path d="M293.623,445.006C296.023,445.004 298.291,443.537 299.179,442.881C298.595,442.973 298.029,443.018 297.495,443.018C294.469,443.018 292.715,441.6 291.773,440.41C290.754,439.121 290.455,437.852 290.442,437.799C289.874,428.807 294.087,423.662 297.716,420.93C301.648,417.971 305.771,417.121 305.808,417.114C318.137,415.374 321.171,409.851 322.63,407.194C322.835,406.819 323.011,406.499 323.177,406.261C323.331,406.045 323.527,405.933 323.768,405.933C324.941,405.933 326.858,408.827 328.107,410.964C328.081,410.366 328.274,409.752 328.683,409.154C329.692,407.676 331.798,406.641 333.801,406.641C335.257,406.641 337.871,407.188 339.035,410.839C340.009,413.906 341.251,416.095 342.724,417.344C343.684,418.159 344.483,418.34 344.858,418.374C343.773,416.579 344.977,414.821 344.99,414.801L345.091,414.661L345.195,414.799C347.29,417.59 350.165,417.982 351.285,418.023C350.494,417.598 348.996,416.612 348.866,415.208C348.76,414.092 349.548,412.965 351.201,411.862C352.337,411.104 353.38,410.719 354.296,410.719C356.735,410.719 357.629,413.425 357.867,414.36C359.215,412.066 359.531,410.2 358.808,408.805C357.626,406.53 354.025,406.279 353.991,406.278L353.69,406.26L353.915,406.059C355.021,405.073 356.124,404.575 357.195,404.575C359.734,404.575 361.34,407.302 361.798,408.192C362.61,405.869 362.532,403.973 361.562,402.549C359.726,399.849 355.277,399.74 355.231,399.737L355.012,399.734L355.124,399.549C356.329,397.57 357.573,396.568 358.818,396.568C360.749,396.568 362.11,398.93 362.621,399.98C362.693,397.456 362.196,395.668 361.113,394.523C359.98,393.327 358.203,392.832 355.642,393.008C349.646,393.42 347.062,408.743 347.037,408.898L347.013,409.015L346.899,409.004C346.821,408.995 344.983,408.759 342.798,404.024C340.651,399.381 335.973,395.563 335.927,395.525L336.069,395.321C339.023,397.111 342.099,397.487 344.163,397.487C344.941,397.487 345.575,397.434 345.986,397.383C345.218,397.007 344.483,396.066 344.173,394.989C343.843,393.843 344.081,392.842 344.832,392.243C346.6,390.824 348.588,385.444 348.608,385.391L348.701,385.14L348.837,385.369C350.289,387.839 353.31,388.173 354.353,388.212C353.096,387.07 352.622,384.306 352.602,384.18L352.558,383.936L352.781,384.047C353.886,384.598 355.009,384.88 356.119,384.88C357.667,384.88 358.812,384.327 359.297,384.043C358.492,383.869 356.388,383.291 355.765,381.871C355.423,381.091 355.59,380.187 356.258,379.185C357.053,377.988 357.971,377.383 358.986,377.383C360.279,377.383 361.34,378.367 361.739,378.797C362.068,377.073 361.832,375.704 361.043,374.723C359.791,373.173 357.484,373.005 356.55,373.005C356.328,373.005 356.189,373.015 356.186,373.015L355.965,373.033L356.068,372.833C357.07,370.883 358.337,369.897 359.828,369.897C361.552,369.897 363.06,371.216 363.651,371.806C363.131,367.446 360.567,366.516 358.476,366.516C356.962,366.516 355.693,367.005 355.68,367.012L355.389,367.124L355.517,366.841C356.371,365 357.82,364.066 359.831,364.066C361.226,364.066 362.504,364.525 363.123,364.787C361.367,362.035 359.562,360.854 357.157,360.854C355.764,360.854 354.15,361.262 352.232,362.102C349.288,363.39 348.572,367.173 348.489,370.12C348.398,373.339 349.023,376.288 349.029,376.318L349.038,376.37L349.013,376.413C344.032,384.028 338.55,385.628 334.828,385.628C331.415,385.628 328.793,384.312 328.007,383.867C329.55,391.435 336.798,393.772 336.871,393.795L337.343,393.941L336.857,394.038C335.974,394.214 335.031,394.303 334.049,394.303L334.047,394.303C328.285,394.303 322.515,391.235 321.248,390.518C322.098,393.655 326.619,398.239 326.664,398.288L326.894,398.518L326.572,398.502C316.748,398.006 312.531,391.589 311.64,390.015C311.255,393.296 312.688,398.775 312.706,398.83L312.762,399.053L312.545,398.983C309.102,397.886 303.986,391.943 303.131,390.925C302.318,392.293 301.206,392.984 299.824,392.984C297.81,392.984 295.407,391.499 293.052,388.799C288.881,384.017 285.164,375.606 286.265,367.605C287.269,360.297 286.456,355.249 283.776,352.175C281.554,349.626 278.058,348.385 273.097,348.385C271.068,348.385 268.759,348.602 266.232,349.027C263.848,349.429 261.169,349.633 258.271,349.633C243.664,349.633 226.974,344.464 224.082,343.532C234.827,355.697 250.983,357.022 257.475,357.022C258.844,357.022 259.651,356.957 259.659,356.957L260.48,356.891L259.718,357.198C257.313,358.169 253.903,358.661 249.576,358.661C240.84,358.661 230.854,356.641 228.774,356.197C236.136,364.067 245.959,365.73 252.941,365.73C258.186,365.73 261.968,364.785 262.004,364.776L262.726,364.591L262.106,365.004C255.7,369.238 248.299,370.127 243.218,370.127C240.192,370.127 237.865,369.811 236.886,369.652C241.651,373.281 247.231,375.118 253.479,375.117C262.096,375.116 268.996,371.545 269.066,371.511L269.675,371.192L269.218,371.706C266.043,375.286 261.407,377.854 255.435,379.341C250.631,380.537 246.306,380.667 244.67,380.667C244.541,380.667 244.427,380.664 244.328,380.663C248.206,382.967 252.34,384.136 256.626,384.136C265.387,384.136 271.89,379.206 271.953,379.155L272.339,378.861L272.145,379.305C271.23,381.442 268.153,383.94 263.001,386.724C259.881,388.416 256.907,389.703 255.898,390.128C258.298,390.684 260.706,390.966 263.063,390.966C272.661,390.966 278.618,386.292 278.675,386.246L279.191,385.834L278.864,386.406C276.236,391.006 267.605,396.997 265.997,398.088C267.226,398.299 268.461,398.407 269.673,398.407C278.825,398.407 284.606,392.319 284.662,392.256L285.049,391.844L284.877,392.382C283.581,396.423 277.81,401.218 276.537,402.241C277.163,402.293 277.784,402.319 278.389,402.319C283.246,402.319 286.564,400.577 288.496,399.118C290.587,397.532 291.544,395.928 291.554,395.911L291.779,396.018C290.485,399.74 285.857,403.929 284.848,404.81C285.552,404.949 286.265,405.02 286.969,405.02L286.971,405.02C292.998,405.018 297.153,399.948 297.194,399.898L297.391,399.659L297.417,399.965C297.578,401.542 295.794,404.365 295.214,405.239C298.291,404.483 303.525,400.283 303.581,400.239L303.973,399.922L303.774,400.387C299.77,409.774 287.662,413.184 280.504,413.184C278.473,413.184 276.66,412.928 275.261,412.451C273.453,411.834 271.063,411.491 268.528,411.491C256.383,411.491 248.82,418.057 245.79,424.199C241.131,433.645 236.799,438.436 232.914,438.436C231.836,438.436 230.786,438.064 229.791,437.327C227.73,435.805 226.286,432.456 226.024,428.591C225.774,424.883 226.7,421.624 228.503,419.873C229.449,418.958 230.304,418.493 231.042,418.493C232.441,418.493 233.019,420.089 233.198,420.754C233.63,420.087 233.79,419.392 233.666,418.693C233.382,417.025 231.623,415.829 231.605,415.816L231.451,415.715L231.602,415.609C232.527,414.964 233.396,414.638 234.185,414.638C236.058,414.638 236.967,416.489 237.248,417.199C237.832,416.065 237.958,415.035 237.623,414.133C237.038,412.566 235.24,411.906 235.222,411.902L235.036,411.836L235.17,411.694C236.53,410.283 237.782,409.568 238.89,409.568C240.494,409.568 241.355,411.084 241.666,411.776C242.247,409.834 242.206,408.394 241.549,407.488C241.008,406.741 240.051,406.363 238.71,406.363C237.604,406.363 236.637,406.635 236.625,406.637L236.379,406.707L236.476,406.468C243.54,389.004 235.183,380.166 229.082,373.714C226.612,371.101 224.48,368.846 223.999,366.595C223.69,365.154 223.805,364.086 224.343,363.423C224.745,362.922 225.392,362.659 226.208,362.659C226.403,362.659 226.579,362.674 226.729,362.693C226.164,362.239 225.502,362.004 224.789,362.004C223.122,362.004 221.105,363.358 220.355,366.382C219.317,370.559 223.907,374.94 223.951,374.984L224.202,375.219L223.859,375.201C223.712,375.194 223.563,375.191 223.424,375.191C221.788,375.191 220.606,375.692 219.912,376.682C218.567,378.599 219.389,381.844 219.702,382.882C220.447,381.102 221.443,380.199 222.668,380.199C224.007,380.199 225.097,381.298 225.142,381.346L225.222,381.427L225.149,381.515C223.062,383.978 222.326,386.048 222.963,387.668C223.774,389.739 226.646,390.557 227.952,390.828C226.62,389.964 225.979,389.1 226.05,388.249C226.17,386.749 228.451,385.896 228.547,385.86L228.587,385.854C230.754,385.774 232.316,386.65 233.214,388.438C236.176,394.33 230.967,409.51 227.058,414.772C224.008,418.877 221.167,428.817 223.466,435.676C224.546,438.893 226.588,440.965 229.541,441.831C230.331,442.063 231.13,442.179 231.92,442.179C240.948,442.178 247.134,426.977 247.196,426.823C254.44,416.378 261.869,414.19 266.83,414.19C270.324,414.19 272.609,415.296 272.631,415.307L272.757,415.369L272.684,415.487C266.08,425.839 272.798,437.41 272.868,437.525L272.927,437.629L272.829,437.694C268.126,440.735 264.243,442.28 261.286,442.28C259.472,442.28 258.001,441.699 256.911,440.559C255.022,438.58 254.826,435.526 254.817,434.486C253.063,436.626 252.5,438.789 253.145,440.92C253.646,442.574 254.723,443.585 254.732,443.597L254.967,443.813L254.648,443.813C251.645,443.813 249.523,441.027 248.978,440.227C247.431,444.512 250.992,447.639 251.027,447.67L251.326,447.928L250.935,447.891C250.806,447.881 250.679,447.875 250.554,447.875C247.415,447.875 245.723,451.542 245.337,452.492C249.891,451.367 252.923,451.846 254.294,453.896C256.207,456.762 254.239,461.604 254.156,461.808C252.051,465.039 251.335,467.483 252.071,468.899C252.665,470.036 254.023,470.164 254.205,470.176C255.229,469.86 256.129,469.699 256.886,469.699C259.127,469.699 259.526,471.106 259.598,471.593C260.568,471.303 261.183,470.81 261.423,470.129C261.927,468.723 260.673,466.943 260.659,466.926L260.513,466.719L260.767,466.727C262.457,466.785 263.753,467.309 264.624,468.281C265.721,469.508 265.807,471.067 265.802,471.588C267.219,471.173 268.142,470.479 268.542,469.52C269.205,467.932 268.202,466.131 268.192,466.11L268.069,465.896L268.311,465.924C270.628,466.182 272.208,466.948 273.01,468.203C273.748,469.357 273.612,470.59 273.496,471.141C274.273,470.65 276.47,468.817 274.708,464.549C273.543,461.725 271.095,460.293 267.425,460.293C264.127,460.293 261.019,461.503 260.988,461.512L260.791,461.59L260.821,461.381C261.603,455.212 263.753,450.748 267.205,448.106C270.05,445.931 273.151,445.475 275.256,445.475C276.5,445.475 277.291,445.635 277.326,445.642L277.378,445.653L277.406,445.699C280.04,449.795 284.151,450.924 285.55,451.196C284.05,449.781 283.731,446.301 283.717,446.143L283.688,445.829L283.924,446.035C287.322,449.022 290.778,449.649 293.081,449.649C294.143,449.649 294.982,449.513 295.48,449.406C292.94,448.592 290.738,444.553 290.636,444.37L290.409,443.944L290.818,444.203C291.656,444.736 292.598,445.006 293.623,445.006" style="fill:rgb(247,166,27);fill-rule:nonzero;"/>
            </g>
            <g transform="matrix(0.857104,0,0,0.857104,526.679,-72.4364)">
                <path d="M342.66,469.561C343.544,468.168 342.704,466.352 342.694,466.331L342.554,466.036L342.856,466.163C345.071,467.096 346.25,468.144 346.362,469.279C346.451,470.223 345.773,470.952 345.381,471.293C345.466,471.295 345.546,471.295 345.627,471.295C349.156,471.295 349.287,467.706 349.291,467.552C350.29,459.891 344.486,459.014 338.345,458.088C334.926,457.574 331.392,457.041 329.301,455.186C326.348,452.566 325.743,448.727 325.758,445.968C325.768,442.987 326.486,440.587 326.493,440.563L326.54,440.411L326.68,440.492C327.694,441.108 328.824,441.418 330.036,441.418C332.052,441.418 333.807,440.543 334.561,440.108C331.06,440.082 330.122,436.408 330.111,436.37L330.068,436.198L330.244,436.215C330.577,436.245 330.903,436.26 331.225,436.26C336.21,436.26 338.928,432.575 339.756,431.23C338.232,432.254 336.715,432.774 335.233,432.774C331.48,432.774 329.195,429.413 329.174,429.377L329.032,429.164L329.289,429.184C333.016,429.45 335.659,428.598 337.142,426.666C338.752,424.569 338.583,421.691 338.372,420.281C338.203,421.089 337.764,422.078 336.919,422.959C336.014,423.899 334.339,425.022 331.466,425.022C328.854,425.022 325.731,424.1 322.19,422.281C318.211,420.245 314.12,419.212 310.025,419.212C302.824,419.212 297.788,422.45 296.895,423.062L301.459,426.396L301.171,426.448C293.145,427.959 291.357,435.725 291.082,437.237C296.221,434.336 300.975,432.862 305.215,432.862C311.182,432.862 314.87,435.754 316.913,438.183C319.12,440.812 321.209,445.331 320.56,449.039C319.764,453.586 316.854,454.264 315.186,454.264C314.662,454.264 314.218,454.2 313.912,454.143C315.389,455.506 317.351,455.805 318.782,455.805C319.559,455.805 320.089,455.711 320.093,455.71L320.389,455.657L320.222,455.907C318.009,459.161 315.898,459.844 314.52,459.844C314.31,459.844 314.124,459.83 313.955,459.801C315.495,460.735 316.965,461.209 318.344,461.209C320.399,461.207 321.504,460.127 321.52,460.115L321.718,459.916L321.728,460.196C321.9,463.242 320.075,464.528 319.257,464.952C319.975,465.079 320.658,465.139 321.288,465.139C325.323,465.139 326.272,462.534 326.279,462.508L326.345,462.325L326.486,462.454C329.266,464.967 330.657,467.233 330.604,469.186C330.577,470.196 330.164,470.842 329.896,471.16C332.178,471.118 333.591,470.587 334.1,469.584C334.843,468.102 333.349,466.051 333.33,466.031L333.176,465.819L333.44,465.831C335.547,465.933 336.89,466.522 337.429,467.582C338.116,468.938 337.272,470.625 336.952,471.176C337.332,471.199 337.694,471.211 338.042,471.211C340.411,471.211 341.965,470.655 342.66,469.561" style="fill:rgb(247,166,27);fill-rule:nonzero;"/>
            </g>
        </g>
        <g transform="matrix(0.935299,0,0,0.935299,115.879,-168.62)">
            <rect x="1547" y="400" width="149.685" height="149.685" style="fill:none;"/>
        </g>
    </g>
</svg>
