<?xml version="1.0" encoding="UTF-8" standalone="no"?>
<!DOCTYPE svg PUBLIC "-//W3C//DTD SVG 1.1//EN" "http://www.w3.org/Graphics/SVG/1.1/DTD/svg11.dtd">
<svg width="100%" height="100%" viewBox="0 0 116 21" version="1.1" xmlns="http://www.w3.org/2000/svg" xmlns:xlink="http://www.w3.org/1999/xlink" xml:space="preserve" style="fill-rule:evenodd;clip-rule:evenodd;stroke-linejoin:round;stroke-miterlimit:1.41421;">
    <g transform="matrix(1,0,0,1,-723.931,-192.835)">
        <path d="M729.703,212.086C731.784,212.906 733.483,213.111 735.475,213.111C737.116,213.111 739.636,212.731 740.662,212.408C741.453,212.144 742.215,212.057 742.713,211.969C742.889,211.881 742.918,211.383 742.801,211.266C742.245,211.148 742.186,210.562 742.186,209.331L742.186,207.691C742.186,206.108 742.362,205.815 743.24,205.669L743.915,205.551C744.149,205.376 744.149,204.702 743.915,204.526C742.918,204.585 741.483,204.614 740.076,204.614C738.64,204.614 737.205,204.585 735.124,204.526C734.802,204.702 734.802,205.376 735.124,205.551L736.414,205.727C737.82,205.932 737.996,206.108 737.996,207.691L737.996,209.537C737.996,211.442 737.644,211.764 735.974,211.764C734.89,211.764 733.366,211.587 731.959,210.65C730.055,209.361 728.619,206.871 728.619,202.679C728.619,198.05 730.875,194.182 735.534,194.182C738.26,194.182 740.105,195.559 741.043,198.314C741.249,198.606 742.04,198.577 742.156,198.255C741.864,196.468 741.835,194.417 741.747,193.537C740.809,193.537 739.198,192.835 735.945,192.835C733.453,192.835 731.08,193.303 729.088,194.388C725.571,196.35 723.931,199.573 723.931,203.236C723.931,207.456 726.275,210.71 729.703,212.086ZM818.929,194.358C819.952,194.504 820.365,194.856 820.597,195.354C820.773,195.765 820.805,196.233 820.805,197.845L820.805,205.287C820.805,207.661 820.715,209.859 820.393,210.65C820.159,211.266 819.573,211.471 818.78,211.618L818.283,211.705C818.049,211.94 818.108,212.554 818.283,212.731C819.396,212.672 820.482,212.643 821.567,212.643C822.737,212.643 823.911,212.672 825.492,212.731C825.668,212.554 825.727,211.94 825.492,211.705L824.672,211.588C823.911,211.471 823.235,211.266 822.971,210.65C822.65,209.859 822.532,207.661 822.532,205.287L822.532,199.603C822.532,198.518 822.532,198.02 822.679,197.727C823.207,198.167 824.172,199.398 825.873,201.478L832.64,209.859C834.018,211.558 834.984,213.053 835.017,213.053C835.718,213.053 836.539,212.731 836.744,212.379C836.685,211.412 836.685,209.567 836.685,207.661L836.685,200.658C836.685,198.284 836.803,196.087 837.125,195.296C837.387,194.68 837.946,194.446 838.708,194.329L839.234,194.241C839.47,194.007 839.41,193.391 839.234,193.216C838.092,193.274 837.036,193.303 835.952,193.303C834.751,193.303 833.609,193.274 832.025,193.216C831.85,193.391 831.793,194.007 832.025,194.241L832.817,194.358C833.609,194.475 834.253,194.68 834.517,195.296C834.839,196.087 834.957,198.284 834.957,200.658L834.957,204.702C834.957,205.229 834.957,205.728 834.839,206.021C834.164,205.346 833.315,204.32 832.025,202.797L829.565,199.896C826.928,196.761 825.023,194.534 824.731,193.216C824.116,193.274 823.266,193.303 822.269,193.303C821.066,193.303 819.601,193.274 818.225,193.216C817.931,193.303 817.903,194.007 818.108,194.241L818.929,194.358ZM746.112,211.559L745.321,211.705C745.086,211.852 745.086,212.555 745.321,212.73C746.844,212.672 748.134,212.643 749.6,212.643C751.006,212.643 752.353,212.672 753.907,212.73C754.112,212.555 754.112,211.852 753.907,211.705L753.115,211.559C751.797,211.324 751.622,211.119 751.622,208.423L751.622,204.819C751.622,204.233 751.68,204.174 752.706,204.174C753.438,204.174 753.907,204.409 754.258,205.2C754.932,206.753 755.607,208.189 756.545,209.742C757.834,211.852 759.533,212.819 762.228,212.819C763.138,212.819 764.074,212.76 764.543,212.555C764.56,212.535 764.567,212.502 764.581,212.476C764.609,212.585 764.652,212.68 764.719,212.73C766.301,212.672 767.767,212.643 769.174,212.643C770.55,212.643 771.987,212.672 773.569,212.73C773.803,212.555 773.833,211.881 773.599,211.705L772.777,211.559C771.43,211.324 771.254,211.119 771.254,208.364L771.254,197.581C771.254,194.826 771.43,194.622 772.777,194.388L773.599,194.241C773.833,194.064 773.833,193.391 773.599,193.215C772.016,193.273 770.55,193.303 769.174,193.303C767.767,193.303 766.301,193.273 764.719,193.215C764.484,193.391 764.484,194.064 764.719,194.241L765.54,194.388C766.887,194.622 767.064,194.826 767.064,197.581L767.064,208.364C767.064,211.119 766.887,211.324 765.54,211.559L764.719,211.705C764.651,211.756 764.609,211.852 764.58,211.962C764.545,211.892 764.496,211.832 764.426,211.793C763.987,211.764 763.225,211.588 762.463,210.973C761.057,209.771 759.855,207.573 757.921,203.647C757.775,203.325 757.775,203.148 758.068,203.002C759.416,202.328 761.174,201.214 761.174,198.607C761.174,196.732 760.295,195.266 758.596,194.27C757.482,193.596 755.343,193.215 752.852,193.215C750.068,193.215 747.783,193.332 745.585,193.479C745.233,193.626 745.233,194.358 745.527,194.504L746.317,194.622C747.548,194.797 747.606,195.12 747.606,198.05L747.606,208.423C747.606,211.119 747.43,211.324 746.112,211.559ZM786.199,193.303C788.073,193.303 789.743,193.274 790.154,193.215C790.154,193.714 790.154,195.823 790.212,197.786C790.095,198.109 789.451,198.138 789.098,197.903C788.776,196.702 788.542,195.999 788.248,195.618C787.751,195.003 786.872,194.651 785.378,194.651L783.093,194.651C782.124,194.651 782.124,194.709 782.124,195.852L782.124,201.157C782.124,201.947 782.153,202.035 782.944,202.035L785.2,202.035C786.755,202.035 787.077,201.829 787.369,200.394L787.517,199.691C787.721,199.427 788.455,199.456 788.63,199.72C788.571,200.658 788.542,201.742 788.542,202.855C788.542,203.94 788.571,205.024 788.63,205.903C788.455,206.166 787.721,206.196 787.517,205.932L787.369,205.229C787.077,203.822 786.755,203.588 785.2,203.588L782.944,203.588C782.153,203.588 782.124,203.676 782.124,204.467L782.124,208.423C782.124,211.149 782.3,211.383 783.618,211.558L784.704,211.705C784.908,211.881 784.908,212.554 784.704,212.731C782.887,212.672 781.451,212.643 780.044,212.643C778.697,212.643 777.232,212.672 775.473,212.731C775.239,212.554 775.239,211.881 775.473,211.705L776.44,211.558C777.758,211.354 777.935,211.149 777.935,208.423L777.935,197.522C777.935,194.798 777.758,194.534 776.44,194.329L775.854,194.241C775.591,194.065 775.591,193.332 775.913,193.215C777.173,193.274 778.638,193.303 780.044,193.303L786.199,193.303ZM802.257,193.303C804.132,193.303 805.799,193.274 806.212,193.215C806.212,193.714 806.212,195.823 806.268,197.786C806.153,198.109 805.509,198.138 805.156,197.903C804.834,196.702 804.6,195.999 804.306,195.618C803.807,195.003 802.93,194.651 801.435,194.651L799.151,194.651C798.182,194.651 798.182,194.709 798.182,195.852L798.182,201.157C798.182,201.947 798.212,202.035 799.001,202.035L801.26,202.035C802.812,202.035 803.133,201.829 803.429,200.394L803.574,199.691C803.779,199.427 804.512,199.456 804.688,199.72C804.628,200.658 804.6,201.742 804.6,202.855C804.6,203.94 804.628,205.024 804.688,205.903C804.512,206.166 803.779,206.196 803.574,205.932L803.429,205.229C803.133,203.822 802.812,203.588 801.26,203.588L799.001,203.588C798.212,203.588 798.182,203.676 798.182,204.467L798.182,208.423C798.182,211.149 798.357,211.383 799.676,211.558L800.761,211.705C800.966,211.881 800.966,212.554 800.761,212.731C798.942,212.672 797.508,212.643 796.101,212.643C794.753,212.643 793.289,212.672 791.53,212.731C791.296,212.554 791.296,211.881 791.53,211.705L792.497,211.558C793.816,211.354 793.992,211.149 793.992,208.423L793.992,197.522C793.992,194.798 793.816,194.534 792.497,194.329L791.911,194.241C791.649,194.065 791.649,193.332 791.97,193.215C793.229,193.274 794.693,193.303 796.101,193.303L802.257,193.303ZM808.526,211.559L807.706,211.705C807.472,211.881 807.472,212.555 807.706,212.73C809.288,212.672 810.753,212.643 812.159,212.643C813.537,212.643 814.971,212.672 816.554,212.73C816.789,212.555 816.819,211.881 816.585,211.705L815.763,211.559C814.415,211.325 814.239,211.119 814.239,208.364L814.239,197.581C814.239,194.827 814.415,194.621 815.763,194.387L816.585,194.241C816.819,194.064 816.819,193.391 816.585,193.215C815.002,193.274 813.537,193.303 812.159,193.303C810.753,193.303 809.288,193.274 807.706,193.215C807.472,193.391 807.472,194.064 807.706,194.241L808.526,194.387C809.873,194.621 810.049,194.827 810.049,197.581L810.049,208.364C810.049,211.119 809.873,211.325 808.526,211.559ZM751.622,196.057C751.622,194.651 751.68,194.563 752.881,194.563C755.167,194.563 756.72,196.263 756.72,198.899C756.72,200.628 756.163,201.566 755.665,202.064C755.108,202.621 754.494,202.885 753.438,202.885C751.709,202.885 751.622,202.797 751.622,201.771L751.622,196.057Z" style="fill:rgb(247,166,27);"/>
    </g>
</svg>
