<?xml version="1.0" encoding="UTF-8" standalone="no"?>
<!DOCTYPE svg PUBLIC "-//W3C//DTD SVG 1.1//EN" "http://www.w3.org/Graphics/SVG/1.1/DTD/svg11.dtd">
<svg width="100%" height="100%" viewBox="0 0 603 115" version="1.1" xmlns="http://www.w3.org/2000/svg" xmlns:xlink="http://www.w3.org/1999/xlink" xml:space="preserve" style="fill-rule:evenodd;clip-rule:evenodd;stroke-linejoin:round;stroke-miterlimit:1.41421;">
    <g transform="matrix(1,0,0,1,-1594.05,-620.456)">
        <path d="M1993.13,622.828C1993.15,622.789 1993.17,622.75 1993.19,622.713C1993.17,622.737 1993.15,622.776 1993.13,622.828C1991.9,625.264 1991.34,631.025 1985.26,631.957C1984.79,633.473 1984.27,635.816 1984.88,637.391C1985.85,639.886 1986.85,643.982 1986.48,645.742C1985.85,648.741 1988.5,648.028 1988.92,647.045C1988.69,647.996 1987.74,650.756 1984.58,648.905L1984.54,649.422C1985.85,651.028 1989.01,653.455 1993.29,647.144C1999,638.733 2000.19,625.014 2016.62,630.022C2016.62,630.022 2011.31,628.521 2008.71,633.527C2008.71,633.527 2016.52,628.92 2028.43,635.329C2028.43,635.329 2039.45,639.634 2039.65,631.624C2039.65,631.624 2038.85,627.318 2035.14,628.721C2035.14,628.721 2042.05,623.213 2044.25,633.126C2044.25,633.126 2045.65,645.141 2025.03,641.738C2025.03,641.738 2031.04,648.645 2040.75,641.738C2040.75,641.738 2034.34,651.951 2021.02,645.542C2021.02,645.542 2028.04,654.654 2035.64,648.645C2035.64,648.645 2033.14,659.36 2016.42,651.95C2016.42,651.95 2019.42,658.358 2027.13,655.654C2027.13,655.654 2021.53,660.662 2012.61,656.857C2012.61,656.857 2018.62,662.464 2026.63,659.261C2026.63,659.261 2017.62,668.272 2004.8,659.06C2004.8,659.06 2005.4,663.565 2012.21,664.566C2012.21,664.566 2003.6,666.869 1997.89,660.261C1997.89,660.261 2000.19,668.471 2010.51,666.97C2010.51,666.97 1997.49,673.778 1990.99,660.962C1990.99,660.962 1991.19,665.768 1993.69,667.772C1993.69,667.772 1988.88,667.47 1986.08,661.562C1986.08,661.562 1988.08,671.576 1996.09,670.075C1996.09,670.075 1993.99,673.277 1990.38,672.176C1990.38,672.176 1993.09,673.98 1995.09,673.479C1997.1,672.977 1997.7,676.58 1997.7,677.484C1997.7,677.484 2002,671.676 2006.31,676.882C2006.31,676.882 2007.51,679.285 2005.6,680.688C2005.6,680.688 2006.91,678.083 2003.8,677.184C2003.8,677.184 2000.19,677.484 2001.8,681.088C2001.8,681.088 2006,681.588 2005.1,685.093C2005.1,685.093 2005.1,687.196 2002.1,687.297C2002.1,687.297 2004.6,685.695 2002.4,684.191C2002.4,684.191 2001.1,683.392 1999.9,684.293C1999.9,684.293 1999.9,688.299 1995.99,687.096C1995.99,687.096 1993.09,686.795 1994.29,683.291C1994.29,683.291 1994.69,685.794 1996.69,684.793C1998.7,683.792 1997.8,679.466 1994.59,679.387C1991.66,679.314 1991.4,681.186 1991.39,681.284C1991.39,681.286 1991.39,681.288 1991.39,681.288C1991.39,681.288 1991.39,681.286 1991.39,681.284C1991.41,681.097 1992.11,674.308 1985.05,674.531L1984.51,674.522L1984.5,674.766C1984.95,677.328 1986.69,685.858 1990.5,689.715C1990.5,689.715 1987.21,692.39 1983.82,684.701L1983.77,685.385C1984.93,689.715 1987.97,699.743 1992.2,702.828C1992.2,702.828 1988.97,708.788 1984.54,698.259C1984.54,698.259 1988.12,716.734 1991.61,720.509C1991.61,720.509 1985.46,719.818 1981.97,702.573L1982.37,706.344C1983.08,713.319 1984,727.981 1980.38,735.406L1980.38,735.405C1975.53,725.472 1978.85,702.432 1978.85,702.432C1975.44,722.693 1969.15,720.509 1969.15,720.509C1972.63,716.734 1976.21,698.259 1976.21,698.259C1971.78,708.788 1968.55,702.828 1968.55,702.828C1974,698.855 1977.49,683.359 1977.49,683.359C1973.91,692.696 1970.25,689.715 1970.25,689.715C1974.28,685.632 1976,676.322 1976.32,674.385L1975.7,674.375C1968.63,674.152 1969.35,680.962 1969.37,681.13C1969.37,681.132 1969.37,681.133 1969.37,681.133C1969.37,681.133 1969.37,681.132 1969.37,681.13C1969.36,681.042 1969.1,679.156 1966.16,679.231C1962.95,679.311 1962.06,683.636 1964.06,684.637C1966.06,685.638 1966.46,683.136 1966.46,683.136C1967.66,686.64 1964.76,686.939 1964.76,686.939C1960.86,688.141 1960.86,684.137 1960.86,684.137C1959.65,683.236 1958.35,684.037 1958.35,684.037C1956.15,685.54 1958.65,687.141 1958.65,687.141C1955.65,687.041 1955.65,684.937 1955.65,684.937C1954.75,681.432 1958.95,680.933 1958.95,680.933C1960.56,677.327 1956.95,677.028 1956.95,677.028C1953.85,677.929 1955.15,680.532 1955.15,680.532C1953.24,679.13 1954.45,676.727 1954.45,676.727C1958.75,671.52 1963.06,677.327 1963.06,677.327C1963.06,676.426 1963.66,672.822 1965.66,673.323C1967.66,673.823 1970.37,672.021 1970.37,672.021C1966.76,673.121 1964.66,669.917 1964.66,669.917C1972.67,671.42 1974.67,661.406 1974.67,661.406C1971.87,667.316 1967.06,667.614 1967.06,667.614C1969.57,665.613 1969.77,660.806 1969.77,660.806C1963.26,673.622 1950.24,666.812 1950.24,666.812C1960.56,668.316 1962.86,660.104 1962.86,660.104C1957.15,666.714 1948.54,664.411 1948.54,664.411C1955.35,663.41 1955.95,658.904 1955.95,658.904C1943.13,668.116 1934.12,659.105 1934.12,659.105C1942.13,662.308 1948.14,656.7 1948.14,656.7C1939.23,660.506 1933.62,655.499 1933.62,655.499C1941.33,658.203 1944.33,651.794 1944.33,651.794C1927.61,659.204 1925.11,648.49 1925.11,648.49C1932.72,654.497 1939.73,645.386 1939.73,645.386C1926.41,651.795 1920,641.58 1920,641.58C1929.71,648.49 1935.72,641.58 1935.72,641.58C1915.1,644.986 1916.5,632.971 1916.5,632.971C1918.7,623.057 1925.61,628.564 1925.61,628.564C1921.9,627.163 1921.1,631.468 1921.1,631.468C1921.3,639.478 1932.32,635.173 1932.32,635.173C1944.23,628.764 1952.04,633.371 1952.04,633.371C1949.44,628.365 1944.13,629.866 1944.13,629.866C1960.56,624.86 1961.76,638.577 1967.46,646.987C1973.17,655.399 1976.88,648.289 1976.88,648.289C1973.15,651 1972.08,647.908 1971.83,646.89C1972.25,647.871 1974.91,648.586 1974.27,645.586C1973.57,642.282 1977.18,638.077 1977.18,638.077C1971.57,638.577 1969.77,636.173 1969.77,636.173C1969.77,636.173 1971.97,637.374 1972.87,635.974C1973.77,634.572 1975.48,634.372 1975.48,634.372C1973.37,634.572 1971.57,633.271 1971.57,633.271C1968.77,630.968 1968.27,633.77 1968.27,633.77C1966.97,631.267 1968.47,629.465 1968.47,629.465C1970.77,627.063 1975.88,629.265 1975.88,629.265C1975.37,627.963 1975.88,627.363 1979.38,628.064C1982.88,628.764 1984.39,627.463 1984.18,626.462C1983.98,625.461 1982.78,625.259 1982.78,625.259C1982.78,625.259 1983.08,623.958 1985.39,626.061C1986.01,626.63 1986.32,627.211 1986.45,627.759C1988.17,626.94 1988.93,624.191 1989.06,623.654C1989.07,623.623 1989.08,623.592 1989.09,623.562C1989.09,623.562 1989.08,623.595 1989.06,623.654C1988.8,624.861 1989.05,627.216 1987.42,628.721C1990.49,627.544 1992.7,623.628 1993.13,622.828ZM1988.92,647.045C1988.97,646.946 1988.99,646.846 1988.98,646.743C1988.98,646.743 1988.97,646.861 1988.92,647.045ZM1971.83,646.89C1971.79,646.705 1971.77,646.588 1971.77,646.588C1971.76,646.689 1971.79,646.79 1971.83,646.89ZM1970.21,635.124C1970.19,635.124 1970.18,635.123 1970.16,635.123C1970.17,635.123 1970.19,635.124 1970.21,635.124C1970.23,635.125 1970.24,635.125 1970.24,635.125C1970.23,635.125 1970.22,635.125 1970.21,635.124ZM1955.75,625.148C1957.82,625.339 1962.33,623.987 1964.08,629.523C1965.74,634.743 1969.58,635.099 1970.16,635.123C1965.59,635.099 1961.89,632.677 1961.64,629.182C1961.41,625.981 1956.6,625.252 1955.75,625.148C1955.7,625.144 1955.66,625.139 1955.62,625.133C1955.62,625.133 1955.66,625.138 1955.75,625.148Z"/>
    </g>
    <g transform="matrix(1,0,0,1,-1261.77,-620.456)">
        <path d="M1797.39,653.035L1795.71,652.583C1795.57,652.544 1781.49,648.679 1780.67,642.602C1782.55,643.151 1791.95,645.924 1794.4,646.954L1794.61,646.546C1794.47,646.46 1780.75,638.062 1780.3,632.127C1781.86,632.831 1788.67,635.975 1794.2,639.907C1796.18,641.607 1797.64,642.642 1797.66,642.652L1797.94,642.294C1796.95,641.399 1795.78,640.469 1794.46,639.533C1790.1,635.8 1782.79,628.529 1782.03,621.198C1784.22,623.622 1793.95,633.974 1802.35,636.8C1803.1,637.051 1803.8,637.281 1804.45,637.496C1812.09,640.007 1813.46,640.46 1812.98,649.404C1812.43,659.607 1819.05,665.201 1821.53,666.085L1822.52,666.438L1821.76,665.703C1821.73,665.671 1818.37,662.317 1819.83,656.553L1820.26,654.856L1819.41,656.384C1819.34,656.5 1818.11,658.73 1818.2,660.845C1817.46,659.096 1816.73,655.512 1819.37,650.052L1818.98,649.822C1818.89,649.948 1817.19,652.445 1816.37,654.729C1816.38,652.796 1816.89,649.018 1820.05,645.072L1821.04,643.825L1819.73,644.742C1819.62,644.817 1817.37,646.407 1815.85,648.252C1816.31,646.015 1818,640.332 1823.45,638.4L1825.06,637.828L1823.35,637.953C1823.22,637.965 1820.35,638.183 1818.53,638.822C1819.16,637.708 1821.23,635.119 1826.99,635.119C1827.77,635.119 1828.6,635.167 1829.47,635.261L1830.14,635.334L1829.65,634.865C1829.58,634.804 1828.09,633.429 1824.58,633.294C1825.34,632.951 1826.64,632.513 1828.41,632.513C1830.71,632.513 1833.14,633.237 1835.64,634.666L1836.77,635.309L1835.93,634.319C1835.85,634.217 1834.09,632.159 1831.33,631.11C1833.15,631.262 1836.29,632.026 1840.4,634.922L1841.25,635.513L1840.74,634.62C1840.67,634.508 1839.3,632.159 1836.35,630.82C1838.01,630.972 1841.22,631.854 1844.64,635.954L1845.02,636.4L1845.05,635.82C1845.06,635.745 1845.12,634.259 1843.65,632.511C1845.6,633.686 1849.03,636.28 1849.88,640.372L1849.93,640.581L1850.14,640.553C1850.15,640.552 1850.55,640.498 1851.13,640.498C1851.73,640.498 1852.58,640.555 1853.36,640.811C1853.01,641.471 1852.25,642.656 1851.5,642.771L1849.56,643.071L1851.52,643.228C1851.72,643.244 1856.29,643.672 1856.79,648.722C1856.2,647.662 1854.95,646.189 1852.48,645.627L1851.73,645.456L1852.27,646.011C1852.37,646.117 1854.62,648.504 1853.66,651.616C1853.42,650.646 1852.82,649.044 1851.43,648.147C1851.46,647.529 1851.52,645.097 1850.57,644.135L1850.07,643.627L1850.18,644.335C1850.48,646.205 1850.89,651.207 1849.21,651.868L1849.13,651.898L1849.09,651.973C1849.03,652.094 1847.48,655.052 1847.8,662.261C1847.79,662.27 1847.62,663.492 1846.23,663.294L1846.15,663.283L1846.08,663.327C1846.06,663.337 1844.53,664.298 1843.52,664.298C1843.26,664.298 1843.07,664.234 1842.95,664.103C1842.8,663.934 1842.74,663.637 1842.77,663.223C1842.97,660.941 1842.44,658.269 1841.59,657.273C1841.37,657.016 1841.14,656.877 1840.89,656.857L1840.62,656.836L1840.65,657.105C1840.8,659.009 1840.86,661.202 1840.72,661.789C1840.31,661.553 1839.28,660.944 1838.74,660.35C1838.41,659.979 1838.47,659.552 1838.65,658.618C1838.78,657.984 1838.93,657.195 1838.96,656.14C1838.99,655.048 1838.42,654.555 1837.83,654.035C1836.9,653.239 1835.87,652.338 1836.34,648.856L1836.51,647.576L1835.9,648.717C1835.87,648.786 1832.34,655.698 1838.38,665.233L1838.45,665.308C1838.52,665.348 1845.07,669.383 1844.22,677.241L1844.2,677.415L1844.37,677.479C1844.47,677.518 1846.88,678.447 1850.37,678.447C1850.95,678.447 1851.53,678.419 1852.1,678.369C1852.46,678.336 1852.79,678.319 1853.09,678.319C1855.16,678.319 1855.24,679.076 1855.31,679.745C1855.34,680.046 1855.37,680.328 1855.57,680.526C1855.97,680.932 1858.2,686.638 1858.16,689.099C1858.15,689.63 1858.03,689.823 1857.96,689.889C1857.18,690.614 1856.21,692.836 1855.36,694.802C1854.85,695.962 1854.38,697.056 1854.02,697.644C1853.61,698.331 1853.25,698.41 1852.53,698.567C1851.76,698.733 1850.61,698.983 1848.77,700.194C1847.22,701.22 1846.26,701.432 1845.72,701.432C1845.22,701.432 1844.97,701.248 1844.87,701.143C1845.38,699.708 1846.8,695.596 1846.4,694.87C1846.37,694.869 1846.47,694.779 1846.89,694.779C1847.66,694.779 1848.98,695.077 1850.22,695.741C1850.54,695.912 1850.84,696 1851.13,696C1852.67,696 1852.93,693.523 1852.94,693.415L1852.98,692.953L1852.59,693.198C1852.58,693.203 1851.84,693.661 1850.97,693.661C1850,693.661 1849.27,693.092 1848.79,691.969C1849.14,692.152 1849.64,692.332 1850.21,692.332C1850.85,692.332 1851.44,692.108 1851.99,691.664L1852.31,691.402L1851.91,691.27C1851.9,691.266 1851.13,690.996 1850.81,690.341C1850.67,690.062 1850.63,689.743 1850.7,689.393C1851.05,689.602 1851.66,689.907 1852.37,689.907C1853.25,689.907 1853.98,689.451 1854.55,688.554C1854.67,688.467 1854.95,688.223 1855.09,687.696C1855.33,686.809 1855.16,685.071 1853.06,681.829L1853.02,681.754L1852.93,681.732C1852.9,681.725 1852.29,681.565 1851.36,681.565C1850.5,681.565 1849.2,681.706 1847.84,682.382C1842.4,685.106 1839.99,685.677 1838.92,685.677C1838.57,685.677 1838.31,685.619 1838.15,685.5C1837.7,685.176 1837.31,684.612 1836.91,684.012C1836.05,682.757 1835.08,681.335 1833.03,681.168L1831.73,681.063L1832.91,681.605C1832.94,681.619 1835.47,682.813 1836.93,686.487C1837.27,687.364 1837.13,688.272 1836.5,689.195C1834.86,691.612 1830.31,693.483 1827.5,693.483L1827.37,693.48C1827.25,693.48 1827.12,693.479 1826.99,693.479C1823.28,693.479 1812.15,694.61 1809.08,698.25L1809.03,698.338C1808.95,698.633 1807.1,705.609 1808,707.968C1808.2,708.469 1808.17,708.945 1807.93,709.421C1807.25,710.744 1805.02,711.729 1803.17,712.208C1800.66,712.861 1793.78,718.34 1793.49,718.819C1793.12,719.438 1793.79,725.693 1794.95,726.938C1795.23,727.241 1795.74,727.604 1796.38,728.062C1798.37,729.484 1801.67,731.845 1802,735.379C1801.54,735.39 1800.49,735.409 1799.32,735.409C1795.99,735.409 1794.91,735.259 1794.56,735.151C1794.37,734.762 1793.51,732.867 1794.75,731.48C1795.22,730.962 1795.21,730.133 1794.75,729.085C1793.88,727.145 1791.58,724.846 1790.5,724.846C1790.39,724.846 1790.28,724.87 1790.19,724.915C1789.7,724.689 1787.72,723.693 1786.78,721.961C1787.08,722.081 1787.46,722.187 1787.9,722.187C1788.64,722.187 1789.35,721.901 1790.01,721.338L1790.4,721L1789.89,720.938C1789.86,720.934 1786.88,720.538 1785.91,718.099C1786.49,718.45 1787.51,718.892 1788.91,718.892C1789.26,718.892 1789.62,718.863 1789.98,718.808L1791.35,718.595L1789.99,718.353C1789.96,718.348 1787.4,717.883 1786.61,716.243C1786.29,715.59 1786.29,714.83 1786.61,713.971C1786.71,714.364 1786.89,714.83 1787.26,715.197C1787.93,715.892 1788.99,716.028 1790.37,715.591C1794.04,714.429 1796.86,711.466 1796.98,711.34C1797.17,711.207 1798.19,709.894 1795.52,700.248C1793.08,691.438 1794.32,690.07 1796.59,687.588C1796.86,687.293 1797.14,686.983 1797.43,686.645L1797.74,686.291L1797.27,686.266C1797.27,686.266 1797.22,686.263 1797.12,686.263C1796.34,686.263 1793.65,686.433 1791.79,688.618C1790.16,690.522 1789.64,693.422 1790.25,697.228C1791.38,704.278 1790.58,706.467 1790.01,707.146C1789.96,707.199 1789.91,707.241 1789.87,707.279C1790.27,706.5 1790.69,704.969 1789.62,702.878L1789.32,702.306L1789.19,702.935C1789.16,703.033 1787,712.753 1780.58,712.753C1778.88,712.753 1777.01,712.078 1775.01,710.738C1775.67,710.91 1776.51,711.065 1777.38,711.065C1779.22,711.065 1780.63,710.4 1781.58,709.09L1781.9,708.634L1781.35,708.728C1781.34,708.73 1780.55,708.86 1779.37,708.86C1777.01,708.86 1773.71,708.363 1771.37,705.986C1769.82,704.423 1768.92,702.244 1768.67,699.492C1769.12,700.704 1769.88,702.222 1771.1,703.081L1771.83,703.6L1771.44,702.797C1771.42,702.757 1769.64,699.016 1771.52,695.336C1773.15,692.163 1773.09,690.619 1772.66,689.593C1773.1,689.95 1773.63,690.738 1773.58,692.463L1773.57,693.028L1773.98,692.634C1774,692.604 1776.77,689.836 1774.31,685.071C1774.99,685.211 1776.17,685.795 1776.35,688.207L1776.4,688.94L1776.78,688.306C1776.81,688.256 1779.54,683.496 1776.11,679.574C1777.1,679.778 1779,680.599 1779.56,683.863L1779.62,684.18L1779.9,684.023C1779.95,683.993 1781.23,683.263 1781.65,681.529C1782.03,679.909 1781.54,677.992 1780.17,675.832C1780.76,675.955 1781.78,676.295 1782.59,677.215C1783.6,678.347 1784.02,680.025 1783.84,682.197L1783.76,683.071L1784.25,682.345C1784.29,682.29 1787.72,677.084 1782.73,672.632C1784.37,673.367 1786.97,674.911 1787.83,677.561C1788.67,680.146 1787.7,683.225 1784.95,686.71C1778.85,694.443 1779.67,697.72 1780.07,698.541C1780.38,699.184 1780.95,699.553 1781.62,699.553C1782.44,699.553 1783.32,699.019 1783.98,698.129C1784.66,697.222 1785.14,695.577 1785.7,693.675C1786.98,689.3 1788.58,683.856 1793.45,683.856C1794.84,683.856 1796.44,684.304 1798.22,685.186L1798.33,685.24L1798.43,685.183C1798.44,685.179 1799.63,684.561 1801.31,684.561C1802.37,684.561 1803.4,684.803 1804.38,685.276C1804.75,685.456 1805.21,685.548 1805.76,685.548C1809.95,685.548 1819.24,679.891 1819.32,673.842L1819.34,672.932L1818.89,673.726C1818.86,673.792 1815.47,679.829 1813.31,680.963C1813.48,679.829 1813.99,676.489 1814.7,674.398C1814.92,673.885 1815.03,673.561 1815.03,673.561L1814.61,673.386C1814.49,673.631 1814.38,673.92 1814.27,674.248C1813.58,675.931 1811.14,681.355 1808.33,682.262C1808.54,681.14 1809.29,677.502 1810.83,674.441C1811.06,674.023 1811.19,673.766 1811.19,673.766L1810.78,673.548C1810.65,673.773 1810.53,674.003 1810.42,674.236C1808.47,677.845 1805.87,681.719 1804.29,682.055C1804.16,681.405 1803.98,678.869 1807.4,674.388L1807.51,674.244L1807.15,673.966L1807.04,674.11C1806.53,674.758 1802.07,680.378 1798.97,680.559C1799.2,679.694 1800.29,676.76 1804.72,672.762L1804.41,672.417C1804.35,672.472 1797.88,678.02 1793.54,678.02C1793.45,678.02 1793.36,678.019 1793.27,678.013C1793.91,676.983 1796.12,673.586 1799.23,671.129C1800.8,670.215 1801.93,669.398 1801.94,669.389L1801.7,668.998C1800.78,669.446 1799.86,670.044 1798.94,670.768C1796.78,672.026 1793.67,673.549 1791.26,673.549C1790.71,673.549 1790.23,673.47 1789.8,673.313C1790.65,672.442 1793.74,669.362 1797.08,667.575C1798.48,667.05 1799.49,666.562 1799.5,666.558L1799.33,666.132C1798.56,666.36 1797.73,666.709 1796.87,667.17C1795.12,667.83 1792.55,668.63 1790.42,668.63C1788.86,668.63 1787.77,668.202 1787.17,667.356C1788.54,666.822 1795.02,664.342 1798.55,663.635L1798.49,663.181C1798.47,663.181 1797.1,663.276 1795.24,663.276C1791.66,663.276 1785.54,662.929 1784.48,660.619C1784.57,660.368 1785.6,658.519 1795.93,658.203L1795.93,657.744C1795.81,657.735 1783.5,656.925 1782.22,651.995C1784,652.171 1792.86,653.035 1795.65,653.035L1797.39,653.035ZM1804.28,717.774C1804.78,718.047 1805.79,718.481 1807.12,718.481C1807.72,718.481 1808.33,718.393 1808.92,718.22L1809.13,718.164L1809.2,718.358C1809.21,718.383 1810.09,720.684 1808.59,722.133C1808.94,722.223 1809.46,722.33 1809.98,722.33C1810.65,722.33 1811.11,722.161 1811.36,721.834L1811.62,721.501L1811.76,721.891C1811.97,722.456 1812.1,723.623 1811.32,724.425C1811.45,724.446 1811.59,724.467 1811.74,724.467C1812.27,724.467 1812.67,724.265 1812.95,723.869C1813.1,723.647 1813.28,723.596 1813.41,723.596C1813.98,723.596 1814.43,724.557 1814.62,725.45C1814.84,726.519 1814.75,727.779 1813.98,728.536C1815.3,728.581 1817.67,728.868 1818.68,730.286C1819.19,731.003 1819.29,731.907 1818.97,732.974C1819.48,733.231 1821.14,733.974 1823.4,733.974C1824.4,733.974 1825.39,733.829 1826.36,733.545C1826.14,732.649 1824.92,728.849 1819.41,727.038C1819.33,727.008 1817.35,726.262 1816.62,723.622C1816.26,722.333 1815.39,721.468 1814.48,720.55C1813.64,719.719 1812.78,718.857 1812.3,717.643C1811.25,714.97 1816.61,711.994 1819.81,710.214C1820.44,709.867 1820.79,709.484 1820.87,709.046C1821.05,708.128 1820.08,706.942 1819.05,705.686C1818.38,704.871 1817.69,704.025 1817.17,703.116C1815.42,700.062 1815.13,698.746 1816.68,696.041C1815.42,696.184 1811.77,696.791 1810.08,699.135C1809.55,701.07 1808.37,706.181 1809.17,707.182L1809.21,707.27C1809.23,707.344 1811.04,714.704 1804.28,717.774ZM1858.73,675.525C1859.01,675.677 1859.41,675.837 1859.86,675.837C1860.34,675.837 1860.8,675.653 1861.21,675.292L1861.37,675.152L1861.52,675.304C1861.55,675.329 1862.14,675.933 1862.05,676.573C1862,676.905 1861.78,677.176 1861.4,677.378C1860.68,677.763 1860.13,678.807 1860.05,679.554C1860.02,679.838 1860.05,680.06 1860.13,680.131C1860.5,680.402 1863.4,682.512 1864.41,683.945C1864.67,682.486 1865.19,678.845 1864.11,677.091C1863.51,676.121 1863.31,675.301 1863.51,674.654C1863.66,674.173 1864,673.936 1864.13,673.859C1864.12,673.644 1863.75,672.236 1856.64,666.627L1856.59,666.583L1856.56,666.516C1856.56,666.49 1855.68,663.836 1854.18,663.836C1853.93,663.836 1853.67,663.909 1853.41,664.051C1853.01,664.272 1852.5,664.526 1851.93,664.811C1849.43,666.075 1845.66,667.974 1844.07,670.285C1844.39,670.883 1845.62,673.455 1845.15,676.47L1846.74,676.981C1847.47,676.237 1852.03,671.486 1853.63,667.655L1853.73,667.44L1853.94,667.535C1854.08,667.596 1857.46,669.104 1857.77,671.335C1857.9,672.203 1857.54,673.051 1856.71,673.858C1857.48,673.91 1858.87,673.843 1859.43,672.934L1859.68,672.525L1859.84,672.98C1859.85,673.019 1860.17,673.948 1859.72,674.731C1859.51,675.091 1859.18,675.357 1858.73,675.525Z"/>
    </g>
    <g transform="matrix(1,0,0,1,-1434.41,-620.456)">
        <path d="M1648.3,676.866C1647.7,676.866 1647.09,676.805 1646.49,676.686C1647.35,675.93 1651.32,672.34 1652.42,669.15L1652.23,669.058C1652.22,669.073 1651.4,670.448 1649.61,671.807C1647.95,673.057 1645.11,674.55 1640.95,674.55C1640.43,674.55 1639.9,674.528 1639.36,674.484C1640.45,673.607 1645.4,669.497 1646.51,666.033L1646.66,665.572L1646.33,665.925C1646.28,665.979 1641.32,671.198 1633.48,671.198C1632.44,671.198 1631.38,671.105 1630.33,670.924C1631.71,669.989 1639.1,664.854 1641.36,660.911L1641.64,660.421L1641.19,660.774C1641.14,660.814 1636.04,664.82 1627.81,664.82C1625.79,664.82 1623.73,664.578 1621.67,664.102C1622.54,663.737 1625.09,662.634 1627.76,661.184C1632.17,658.798 1634.81,656.657 1635.6,654.825L1635.76,654.445L1635.43,654.697C1635.38,654.74 1629.81,658.966 1622.3,658.966C1618.62,658.966 1615.08,657.964 1611.76,655.989C1611.84,655.99 1611.94,655.992 1612.05,655.992C1613.45,655.992 1617.16,655.881 1621.28,654.856C1626.39,653.581 1630.37,651.38 1633.09,648.312L1633.48,647.871L1632.96,648.145C1632.9,648.174 1626.98,651.235 1619.6,651.236C1614.24,651.236 1609.46,649.662 1605.38,646.551C1606.22,646.688 1608.21,646.959 1610.8,646.959C1615.16,646.959 1621.5,646.197 1626.99,642.568L1627.52,642.214L1626.9,642.372C1626.87,642.38 1623.63,643.19 1619.14,643.19C1613.15,643.19 1604.73,641.765 1598.42,635.019C1600.21,635.4 1608.77,637.131 1616.25,637.131C1619.96,637.131 1622.88,636.709 1624.95,635.877L1625.6,635.614L1624.89,635.671C1624.89,635.671 1624.2,635.726 1623.02,635.726C1617.46,635.726 1603.61,634.591 1594.4,624.164C1596.88,624.963 1611.19,629.393 1623.7,629.393C1626.19,629.393 1628.49,629.218 1630.53,628.874C1632.69,628.509 1634.67,628.323 1636.41,628.323C1640.66,628.323 1643.66,629.387 1645.57,631.572C1647.86,634.207 1648.56,638.533 1647.7,644.797C1646.76,651.655 1649.94,658.864 1653.52,662.962C1655.54,665.277 1657.59,666.549 1659.32,666.549C1660.51,666.549 1661.46,665.957 1662.15,664.785C1662.89,665.657 1667.27,670.751 1670.22,671.691L1670.41,671.751L1670.36,671.56C1670.35,671.513 1669.12,666.817 1669.45,664.005C1670.21,665.354 1673.83,670.854 1682.25,671.279L1682.52,671.293L1682.33,671.096C1682.29,671.054 1678.41,667.125 1677.68,664.436C1678.77,665.05 1683.72,667.68 1688.65,667.68L1691.06,667.453L1691.48,667.37L1691.07,667.245C1691.01,667.225 1684.8,665.222 1683.48,658.735C1684.15,659.117 1686.4,660.245 1689.32,660.245C1692.51,660.245 1697.21,658.873 1701.48,652.346L1701.5,652.31L1701.49,652.265C1701.49,652.239 1700.95,649.712 1701.03,646.953C1701.1,644.427 1701.72,641.184 1704.24,640.08C1705.88,639.36 1707.27,639.011 1708.46,639.011C1710.52,639.011 1712.07,640.023 1713.57,642.382C1713.04,642.157 1711.95,641.764 1710.75,641.764C1709.03,641.764 1707.79,642.564 1707.06,644.142L1706.95,644.385L1707.19,644.289C1707.21,644.283 1708.29,643.864 1709.59,643.864C1711.38,643.864 1713.58,644.661 1714.03,648.398C1713.52,647.892 1712.23,646.761 1710.75,646.761C1709.47,646.761 1708.39,647.607 1707.53,649.278L1707.44,649.449L1707.63,649.434C1707.63,649.434 1707.75,649.425 1707.94,649.425C1708.74,649.425 1710.72,649.569 1711.79,650.898C1712.47,651.739 1712.67,652.912 1712.39,654.39C1712.05,654.021 1711.14,653.178 1710.03,653.178C1709.16,653.178 1708.37,653.696 1707.69,654.722C1707.12,655.581 1706.98,656.356 1707.27,657.024C1707.8,658.242 1709.61,658.737 1710.3,658.886C1709.88,659.129 1708.9,659.603 1707.57,659.603C1706.62,659.603 1705.66,659.362 1704.71,658.889L1704.52,658.794L1704.56,659.003C1704.57,659.111 1704.98,661.481 1706.06,662.459C1705.16,662.426 1702.57,662.14 1701.33,660.023L1701.21,659.826L1701.13,660.041C1701.12,660.087 1699.41,664.698 1697.9,665.914C1697.25,666.428 1697.05,667.286 1697.33,668.268C1697.6,669.191 1698.23,669.998 1698.89,670.32C1698.53,670.364 1697.99,670.409 1697.32,670.409C1695.56,670.409 1692.92,670.087 1690.39,668.552L1690.27,668.727C1690.3,668.76 1694.31,672.032 1696.15,676.012C1698.03,680.07 1699.6,680.273 1699.67,680.28L1699.77,680.29L1699.79,680.189C1699.81,680.057 1702.02,666.923 1707.16,666.57C1709.36,666.419 1710.88,666.843 1711.85,667.869C1712.78,668.85 1713.21,670.382 1713.14,672.546C1712.71,671.646 1711.54,669.621 1709.88,669.621C1708.82,669.621 1707.75,670.48 1706.72,672.176L1706.62,672.335L1706.81,672.337C1706.85,672.34 1710.66,672.433 1712.24,674.748C1713.07,675.968 1713.13,677.593 1712.44,679.584C1712.05,678.821 1710.67,676.484 1708.49,676.484C1707.58,676.484 1706.63,676.911 1705.68,677.756L1705.49,677.928L1705.75,677.944C1705.78,677.945 1708.86,678.16 1709.88,680.11C1710.5,681.305 1710.23,682.905 1709.07,684.871C1708.87,684.069 1708.1,681.75 1706.01,681.75C1705.22,681.75 1704.33,682.08 1703.36,682.73C1701.94,683.675 1701.26,684.641 1701.36,685.598C1701.47,686.801 1702.75,687.646 1703.43,688.01C1702.47,687.975 1700,687.639 1698.21,685.247L1698.12,685.129L1698.03,685.249C1698.02,685.266 1696.99,686.773 1697.92,688.311C1697.6,688.282 1696.91,688.127 1696.09,687.428C1694.83,686.358 1693.76,684.482 1692.93,681.853C1691.93,678.724 1689.69,678.255 1688.44,678.255C1686.73,678.255 1684.92,679.142 1684.06,680.409C1683.7,680.921 1683.54,681.448 1683.56,681.96C1682.49,680.129 1680.85,677.648 1679.84,677.648C1679.64,677.648 1679.47,677.744 1679.34,677.929C1679.19,678.133 1679.04,678.407 1678.87,678.729C1677.62,681.006 1675.02,685.74 1664.45,687.231C1664.42,687.237 1660.88,687.966 1657.51,690.502C1654.4,692.844 1650.79,697.253 1651.28,704.961C1651.29,705.006 1651.55,706.094 1652.42,707.198C1653.23,708.218 1654.73,709.434 1657.32,709.434C1657.78,709.434 1658.27,709.395 1658.77,709.316C1658.01,709.879 1656.06,711.136 1654.01,711.138C1653.13,711.138 1652.32,710.906 1651.6,710.449L1651.25,710.227L1651.45,710.593C1651.53,710.749 1653.42,714.211 1655.6,714.909C1655.17,715.001 1654.45,715.117 1653.54,715.117C1651.57,715.117 1648.61,714.58 1645.69,712.02L1645.49,711.843L1645.52,712.112C1645.53,712.248 1645.8,715.23 1647.09,716.443C1645.89,716.21 1642.36,715.242 1640.11,711.732L1640.08,711.692L1640.04,711.683C1640.01,711.677 1639.33,711.54 1638.26,711.54C1636.46,711.54 1633.8,711.931 1631.36,713.795C1628.4,716.059 1626.56,719.885 1625.89,725.173L1625.87,725.352L1626.03,725.285C1626.06,725.277 1628.73,724.24 1631.55,724.24C1634.7,724.24 1636.8,725.468 1637.79,727.888C1639.3,731.546 1637.42,733.117 1636.76,733.538C1636.85,733.066 1636.97,732.009 1636.34,731.02C1635.65,729.944 1634.3,729.288 1632.31,729.067L1632.1,729.043L1632.21,729.226C1632.22,729.244 1633.08,730.788 1632.51,732.149C1632.17,732.971 1631.38,733.566 1630.16,733.921C1630.16,733.475 1630.09,732.138 1629.15,731.087C1628.4,730.254 1627.29,729.805 1625.85,729.755L1625.63,729.748L1625.75,729.925C1625.76,729.94 1626.84,731.466 1626.41,732.671C1626.2,733.254 1625.67,733.677 1624.84,733.926C1624.78,733.508 1624.44,732.302 1622.52,732.302C1621.87,732.302 1621.1,732.44 1620.22,732.711C1620.06,732.701 1618.9,732.591 1618.39,731.616C1617.76,730.403 1618.37,728.308 1620.18,725.539C1620.25,725.364 1621.94,721.214 1620.3,718.757C1619.12,717 1616.52,716.59 1612.62,717.554C1612.95,716.74 1614.4,713.597 1617.09,713.597C1617.2,713.597 1617.31,713.602 1617.42,713.61L1617.75,713.642L1617.5,713.421C1617.47,713.394 1614.41,710.714 1615.74,707.042C1616.21,707.727 1618.03,710.115 1620.6,710.115L1620.87,710.115L1620.67,709.93C1620.66,709.92 1619.74,709.053 1619.31,707.636C1618.76,705.809 1619.24,703.955 1620.75,702.121C1620.75,703.012 1620.92,705.63 1622.54,707.326C1623.47,708.303 1624.74,708.801 1626.29,708.801C1628.82,708.801 1632.15,707.477 1636.18,704.871L1636.27,704.815L1636.22,704.726C1636.16,704.627 1630.4,694.71 1636.06,685.837L1636.12,685.736L1636.01,685.683C1636,685.673 1634.04,684.725 1631.04,684.725C1626.79,684.725 1620.42,686.601 1614.21,695.553C1614.16,695.685 1608.86,708.714 1601.12,708.715C1600.44,708.715 1599.76,708.615 1599.08,708.416C1596.55,707.674 1594.8,705.898 1593.87,703.141C1591.9,697.262 1594.34,688.742 1596.95,685.224C1600.3,680.714 1604.77,667.703 1602.23,662.653C1601.46,661.121 1600.12,660.37 1598.26,660.438L1598.23,660.443C1598.15,660.474 1596.19,661.205 1596.09,662.491C1596.03,663.22 1596.58,663.961 1597.72,664.702C1596.6,664.469 1594.14,663.768 1593.44,661.993C1592.9,660.605 1593.53,658.83 1595.32,656.719L1595.38,656.644L1595.31,656.574C1595.27,656.533 1594.34,655.591 1593.19,655.591C1592.14,655.591 1591.29,656.365 1590.65,657.891C1590.38,657.001 1589.67,654.22 1590.83,652.577C1591.42,651.728 1592.44,651.299 1593.84,651.299C1593.96,651.299 1594.09,651.302 1594.21,651.308L1594.51,651.323L1594.29,651.122C1594.25,651.084 1590.32,647.329 1591.21,643.749C1591.85,641.157 1593.58,639.996 1595.01,639.996C1595.62,639.996 1596.19,640.198 1596.67,640.587C1596.54,640.571 1596.39,640.558 1596.22,640.558C1595.53,640.558 1594.97,640.783 1594.63,641.213C1594.16,641.781 1594.07,642.696 1594.33,643.931C1594.74,645.861 1596.57,647.793 1598.69,650.033C1603.92,655.563 1611.08,663.138 1605.03,678.107L1604.94,678.311L1605.15,678.251C1605.16,678.25 1605.99,678.017 1606.94,678.017C1608.09,678.017 1608.91,678.341 1609.37,678.981C1609.94,679.757 1609.97,680.992 1609.47,682.656C1609.21,682.063 1608.47,680.764 1607.09,680.764C1606.14,680.764 1605.07,681.376 1603.9,682.586L1603.79,682.708L1603.95,682.764C1603.97,682.768 1605.51,683.333 1606.01,684.676C1606.3,685.449 1606.19,686.332 1605.69,687.304C1605.45,686.696 1604.67,685.109 1603.06,685.109C1602.38,685.109 1601.64,685.389 1600.85,685.941L1600.72,686.032L1600.85,686.119C1600.87,686.13 1602.37,687.155 1602.62,688.585C1602.72,689.184 1602.59,689.78 1602.22,690.351C1602.06,689.781 1601.57,688.413 1600.37,688.413C1599.74,688.413 1599,688.812 1598.19,689.596C1596.65,691.097 1595.85,693.89 1596.07,697.068C1596.29,700.381 1597.53,703.251 1599.3,704.556C1600.15,705.188 1601.05,705.507 1601.97,705.507C1605.3,705.507 1609.02,701.4 1613.01,693.304C1615.61,688.04 1622.09,682.412 1632.5,682.412C1634.67,682.412 1636.72,682.706 1638.27,683.235C1639.47,683.644 1641.02,683.863 1642.76,683.863C1648.9,683.863 1659.27,680.94 1662.71,672.895L1662.88,672.496L1662.54,672.768C1662.49,672.805 1658.01,676.405 1655.37,677.053C1655.87,676.304 1657.4,673.885 1657.26,672.533L1657.24,672.271L1657.07,672.475C1657.03,672.518 1653.55,676.761 1648.3,676.866ZM1696.04,732.184C1696.79,730.99 1696.07,729.433 1696.07,729.415L1695.94,729.162L1696.2,729.271C1698.1,730.071 1699.11,730.969 1699.21,731.942C1699.29,732.751 1698.7,733.376 1698.37,733.668C1698.44,733.67 1698.51,733.67 1698.58,733.67C1701.6,733.67 1701.72,730.594 1701.72,730.462C1702.58,723.895 1697.6,723.144 1692.34,722.35C1689.41,721.91 1686.38,721.453 1684.59,719.863C1682.06,717.617 1681.54,714.327 1681.55,711.962C1681.56,709.407 1682.17,707.35 1682.18,707.329L1682.22,707.199L1682.34,707.268C1683.21,707.796 1684.18,708.062 1685.22,708.062C1686.94,708.062 1688.45,707.312 1689.09,706.939C1686.09,706.917 1685.29,703.768 1685.28,703.735L1685.24,703.588L1685.39,703.603C1685.68,703.628 1685.96,703.641 1686.24,703.641C1690.51,703.641 1692.84,700.483 1693.55,699.33C1692.24,700.208 1690.94,700.653 1689.67,700.653C1686.45,700.653 1684.5,697.773 1684.48,697.742L1684.36,697.559L1684.58,697.576C1687.77,697.804 1690.04,697.074 1691.31,695.418C1692.69,693.621 1692.54,691.154 1692.36,689.946C1692.22,690.638 1691.84,691.486 1691.12,692.241C1690.34,693.047 1688.9,694.009 1686.44,694.009C1684.2,694.009 1681.53,693.219 1678.49,691.66C1675.08,689.915 1671.57,689.029 1668.06,689.029C1661.89,689.029 1657.58,691.805 1656.81,692.329L1660.72,695.187L1660.48,695.231C1653.6,696.526 1652.06,703.183 1651.83,704.479C1656.23,701.992 1660.31,700.729 1663.94,700.729C1669.06,700.729 1672.22,703.208 1673.97,705.289C1675.86,707.543 1677.65,711.416 1677.09,714.594C1676.41,718.491 1673.92,719.073 1672.49,719.073C1672.04,719.073 1671.66,719.018 1671.4,718.969C1672.66,720.137 1674.34,720.393 1675.57,720.393C1676.24,720.393 1676.69,720.313 1676.69,720.312L1676.95,720.266L1676.8,720.481C1674.91,723.27 1673.1,723.855 1671.92,723.855C1671.74,723.855 1671.58,723.843 1671.43,723.818C1672.75,724.619 1674.01,725.025 1675.19,725.025C1676.96,725.023 1677.9,724.098 1677.92,724.087L1678.09,723.917L1678.1,724.157C1678.24,726.768 1676.68,727.87 1675.98,728.233C1676.59,728.342 1677.18,728.394 1677.72,728.394C1681.18,728.394 1681.99,726.161 1682,726.138L1682.05,725.982L1682.17,726.092C1684.56,728.246 1685.75,730.188 1685.7,731.862C1685.68,732.728 1685.33,733.282 1685.1,733.554C1687.05,733.518 1688.26,733.063 1688.7,732.203C1689.34,730.933 1688.06,729.175 1688.04,729.158L1687.91,728.976L1688.13,728.987C1689.94,729.074 1691.09,729.579 1691.55,730.487C1692.14,731.65 1691.42,733.096 1691.14,733.568C1691.47,733.588 1691.78,733.598 1692.08,733.598C1694.11,733.598 1695.44,733.121 1696.04,732.184ZM1659.38,633.466L1659.51,633.493L1659.46,633.614C1654.3,646.225 1657.2,655.307 1660.55,660.706C1663.68,665.746 1667.76,668.604 1668.87,669.319C1667.62,666.094 1668.98,661.78 1669,661.735L1669.09,661.444L1669.2,661.728C1671.03,666.472 1677.5,668.813 1679.56,669.449C1677.99,668.223 1677.14,666.247 1676.69,664.731C1676.16,662.912 1676.08,661.344 1676.08,661.328L1676.05,660.845L1676.28,661.272C1678.5,665.463 1685.3,666.222 1687.29,666.356C1682.76,664.059 1682.43,657.851 1682.42,657.787L1682.42,657.666L1682.54,657.675C1682.9,657.697 1683.26,657.711 1683.61,657.711C1688.24,657.711 1689.86,655.5 1690.28,654.746C1689.77,654.947 1689.24,655.049 1688.72,655.049C1685.8,655.05 1683.85,651.919 1683.77,651.786L1683.65,651.593L1683.88,651.625C1684.35,651.686 1684.82,651.717 1685.24,651.717C1689.44,651.717 1690.32,648.807 1690.5,647.558C1690.08,648.278 1689.13,649.497 1687.52,649.497C1686.15,649.497 1684.6,648.637 1682.9,646.934C1679.9,643.936 1676.73,643.306 1674.61,643.306C1672.6,643.306 1671.22,643.853 1671.21,643.859L1670.87,643.998L1671.08,643.696C1672.34,641.932 1674.16,640.919 1676.09,640.919C1676.61,640.919 1677.15,640.993 1677.69,641.143C1678.06,641.246 1678.46,641.3 1678.87,641.3C1680.43,641.3 1681.86,640.522 1682.53,640.099C1680.93,640.188 1679.7,638.867 1679.65,638.812C1677.49,636.07 1674.44,635.896 1674.41,635.895L1673.64,635.858L1674.39,635.683C1676.89,635.094 1681.71,631.734 1682.29,630.429C1682.54,629.867 1683.15,629.57 1684.05,629.57C1684.58,629.57 1685.08,629.671 1685.34,629.733C1684.74,627.44 1683.38,626.279 1681.3,626.279C1678.46,626.279 1675.25,628.473 1675.22,628.496L1675.09,628.586L1675.05,628.432C1674.53,626.255 1674.11,625.37 1672.09,625.37C1670.39,625.37 1667.5,626.064 1663.37,627.183C1661.4,627.716 1659.57,627.987 1657.91,627.987C1653.12,627.987 1650.99,625.714 1650.34,624.824C1650.93,631.699 1659.29,633.45 1659.38,633.466ZM1682.08,635.475C1681.7,635.475 1681.38,635.449 1681.12,635.411C1682.93,636.335 1684.63,636.802 1686.19,636.802C1688.77,636.802 1690.56,635.55 1691.97,634.326C1692.65,633.743 1693.58,633.447 1694.75,633.447C1696.17,633.447 1697.61,633.893 1698.31,634.142C1697.54,633.347 1695.4,631.402 1692.78,631.402C1691.52,631.402 1690.31,631.846 1689.16,632.721C1686.18,634.996 1683.67,635.475 1682.08,635.475Z"/>
    </g>
    <g transform="matrix(1,0,0,1,-1441.66,-620.456)">
        <path d="M1496.55,632.028C1496.55,631.951 1496.55,631.907 1496.55,631.907C1496.55,631.947 1496.55,631.988 1496.55,632.028C1496.53,632.972 1496.67,639.014 1504.49,634.614C1504.49,634.614 1494.3,641.158 1501.38,644.731C1501.38,644.731 1497.08,644.994 1494.31,642.151C1494.31,642.151 1500.32,649.622 1495.69,656.101C1495.69,656.101 1496.42,651.803 1494.44,649.951C1494.44,649.951 1495.69,658.548 1487.76,665.621C1479.83,672.695 1483.53,688.231 1489.61,691.006C1489.61,691.006 1486.04,690.412 1483.53,688.231C1483.53,688.231 1489.94,698.013 1494.64,704.558C1499.33,711.102 1503.5,723.003 1495.76,729.548C1488.03,736.092 1473.88,738.208 1468.98,724.588C1464.09,710.971 1479.56,704.557 1481.75,705.352C1481.75,705.352 1485.84,708.327 1486.31,709.12C1486.31,709.12 1472.42,710.905 1475.79,722.341C1479.17,733.779 1503.17,727.299 1488.16,709.12C1488.16,709.12 1468.79,694.512 1467.8,687.041C1467.8,687.041 1466.08,689.752 1466.21,691.868C1466.21,691.868 1464.03,680.627 1468.26,673.489C1468.26,673.489 1463.83,678.18 1464.16,683.007C1464.16,683.007 1462.18,675.339 1458.54,683.999C1458.54,683.999 1461.91,683.535 1462.31,685.386C1462.7,687.24 1462.77,688.826 1461.32,688.891C1461.32,688.891 1464.76,692.658 1458.01,694.447C1458.01,694.447 1462.31,689.354 1456.89,689.024C1456.89,689.024 1451.79,688.826 1453.71,694.775C1453.71,694.775 1454.77,698.147 1456.69,694.311C1456.69,694.311 1457.61,697.09 1455.1,698.147C1455.1,698.147 1453.18,698.875 1452.32,696.56C1452.32,696.56 1446.11,696.096 1451.07,689.488C1451.07,689.488 1447.37,688.166 1445.38,692.198C1445.38,692.198 1444.26,694.711 1446.64,694.642C1446.64,694.642 1440.16,696.692 1443.33,690.149C1443.33,690.149 1441.29,688.626 1444,686.445C1446.71,684.265 1449.15,684.793 1449.68,685.256C1449.68,685.256 1445.05,678.38 1441.94,684.528C1441.94,684.528 1440.03,681.09 1446.18,679.9C1446.18,679.9 1447.3,676.462 1451,680.43C1454.7,684.396 1458.54,678.248 1459.2,675.339C1459.2,675.339 1456.29,676.795 1453.85,672.892C1453.85,672.892 1460.19,675.735 1462.31,667.209C1464.42,658.68 1468.92,657.091 1474.27,656.301C1474.27,656.301 1470.38,655.043 1467.4,656.101C1467.4,656.101 1469.12,653.457 1474.87,654.382C1474.87,654.382 1476.85,654.977 1478.17,653.325C1478.17,653.325 1474.41,654.316 1473.68,650.35C1473.68,650.35 1477.25,655.968 1483.13,647.11C1483.13,647.11 1480.89,648.497 1476.72,647.506C1472.56,646.515 1474.14,648.231 1472.29,648.432C1472.29,648.432 1473.61,644.994 1478.17,644.465C1478.17,644.465 1480.95,643.606 1481.48,641.755C1481.48,641.755 1477.98,642.349 1475.33,639.903C1472.69,637.457 1470.44,637.126 1469.25,638.515C1469.25,638.515 1467.99,632.169 1481.02,636.334C1481.02,636.334 1479.83,632.433 1483.99,633.557C1488.16,634.68 1488.49,636.004 1489.94,635.54C1491.4,635.077 1491.06,632.762 1489.21,632.962C1489.21,632.962 1494.04,630.053 1493.64,636.069C1493.64,636.069 1496.41,633.682 1496.55,632.028ZM1467.21,722.961C1466.48,716.677 1463.21,714.763 1463.21,714.763C1468.96,711.085 1464.59,707.296 1464.59,707.296C1468.27,707.756 1468.73,704.536 1468.73,704.536C1471.26,698.331 1464.93,697.067 1464.93,697.067C1474.36,696.376 1477.81,705.111 1477.81,705.111C1466.12,708.219 1467.04,721.223 1467.21,722.961C1467.22,723.024 1467.23,723.088 1467.23,723.153C1467.23,723.153 1467.23,723.086 1467.21,722.961ZM1531.57,665.444C1531.51,665.983 1529.48,684.07 1539.81,683.628C1539.81,683.628 1522.66,690.069 1532.7,694.109C1532.7,694.109 1519.67,693.285 1524.53,701.445C1524.53,701.445 1516.45,698.977 1514.5,706.312C1514.5,706.312 1507.46,704.741 1504.99,710.055C1504.99,710.055 1502.74,707.211 1498.18,707.884L1496.38,704.969C1496.38,704.969 1505.29,708.038 1517.64,696.356C1517.64,696.356 1526.63,689.545 1522.29,679.135C1522.29,679.135 1528.73,689.617 1531.57,665.444C1531.57,665.436 1531.57,665.432 1531.57,665.432L1531.57,665.444ZM1508.6,620.654L1508.6,620.646C1508.6,620.646 1508.6,620.649 1508.6,620.654C1508.32,643.684 1523.78,628.262 1528.99,622.425C1525.07,626.978 1521.1,631.718 1521.71,637.539C1522.39,644.205 1534.81,640.643 1534.81,640.643C1534.81,640.643 1520.1,645.355 1518.37,651.676C1516.65,657.997 1529.75,657.881 1529.75,657.881C1517,658.457 1514.35,665.924 1514.35,665.924C1511.52,674.768 1519.98,677.124 1520.21,677.186L1520.21,677.187L1520.21,677.186C1515.5,675.924 1512.05,678.221 1512.05,678.221C1505.84,682.242 1511.82,689.255 1511.82,689.255C1507.45,685.576 1504.81,686.265 1504.81,686.265C1497.23,687.646 1500.67,698.216 1500.67,698.216C1500.67,698.216 1499.53,695.458 1492.06,691.207C1484.59,686.958 1480.22,672.246 1494.24,662.133C1508.13,652.113 1508.6,621.231 1508.6,620.654ZM1447.88,636.188C1447.88,636.188 1449.7,632.045 1453.53,637.193C1453.53,637.193 1456.61,631.267 1451.71,631.907C1451.71,631.907 1454.78,628.466 1456.98,632.798C1456.98,632.798 1462.25,633.613 1456.35,640.77C1456.35,640.77 1462.57,641.523 1460.75,636.312C1460.75,636.312 1464.77,637.506 1461.75,642.151C1461.75,642.151 1464.64,644.976 1457.92,645.855C1457.92,645.855 1455.66,646.231 1457.3,656.841C1457.3,656.841 1458.24,653.89 1461.44,654.582C1461.44,654.582 1455.22,658.725 1463.2,661.612C1463.2,661.612 1462.07,662.617 1461.25,665.88C1460.43,669.146 1460.12,670.588 1459.05,670.965C1459.05,670.965 1461.38,665.19 1455.54,665.128C1455.54,665.128 1452.71,665.252 1451.14,667.763C1451.14,667.763 1453.4,662.427 1451.21,660.608C1449.01,658.786 1447.88,661.048 1447.88,661.048C1447.88,661.048 1448,657.091 1452.52,658.033C1452.52,658.033 1454.41,649.119 1452.02,648.24C1452.02,648.24 1448.69,653.764 1447.69,648.868C1447.69,648.868 1443.49,648.868 1445.37,644.097C1445.37,644.097 1445.43,647.486 1448.57,646.733C1451.71,645.981 1453.84,639.076 1447.88,639.076C1447.88,639.076 1445.24,639.137 1445.93,641.648C1445.93,641.648 1443.3,637.82 1447.88,636.188ZM1466.74,641.358C1466.74,641.358 1467.8,642.944 1470.24,641.293C1470.24,641.293 1471.96,640.233 1474.21,642.02C1476.11,643.525 1477.9,642.868 1478.42,642.625C1477.88,642.886 1475.88,643.738 1472.69,643.738C1468.92,643.738 1467.33,646.713 1469.38,648.432C1469.38,648.432 1464.95,646.912 1469.38,643.275C1469.38,643.275 1465.75,644.4 1465.22,641.293C1464.69,638.185 1467.73,637.984 1467.73,637.984C1467.73,637.984 1465.09,639.111 1466.74,641.358ZM1478.57,642.548C1478.57,642.548 1478.52,642.581 1478.42,642.625C1478.52,642.578 1478.57,642.548 1478.57,642.548ZM1530.68,620.456C1530.68,620.456 1530.04,621.246 1528.99,622.425C1529.56,621.766 1530.12,621.111 1530.68,620.456Z"/>
    </g>
</svg>
