<?xml version="1.0" encoding="iso-8859-1"?>
<!-- Generator: Adobe Illustrator 18.0.0, SVG Export Plug-In . SVG Version: 6.00 Build 0)  -->
<!DOCTYPE svg PUBLIC "-//W3C//DTD SVG 1.1//EN" "http://www.w3.org/Graphics/SVG/1.1/DTD/svg11.dtd">
<svg version="1.1" id="Capa_1" xmlns="http://www.w3.org/2000/svg" xmlns:xlink="http://www.w3.org/1999/xlink" x="0px" y="0px"
	 viewBox="0 0 492.975 492.975" style="enable-background:new 0 0 492.975 492.975;" xml:space="preserve">
<g>
	<path d="M252.281,326.181c0.841-2.282,1.78-4.523,2.788-6.749c-5.035-7.285-7.74-15.912-7.74-24.951
		c0-11.776,4.599-22.84,12.883-31.103c8.321-8.345,19.393-12.934,31.178-12.934c9.032,0,17.643,2.703,24.926,7.722
		c2.232-0.995,4.47-1.928,6.764-2.785c3.789-20.46,21.755-36.006,43.303-36.006c4.968,0,9.727,0.907,14.192,2.436
		c8.045-6.045,13.324-15.58,13.324-26.416c0-18.308-14.845-33.15-33.149-33.15h-20.186c-3.675-15.757-9.889-30.494-18.194-43.832
		l14.312-14.301c12.946-12.941,12.946-33.936,0-46.877c-12.951-12.947-33.959-12.947-46.88,0l-14.305,14.301
		c-13.341-8.312-28.083-14.525-43.832-18.193V33.15c0-18.308-14.861-33.15-33.154-33.15c-18.318,0-33.15,14.843-33.15,33.15v20.191
		c-15.765,3.668-30.512,9.882-43.847,18.193l-14.291-14.292c-12.936-12.948-33.943-12.948-46.879,0
		c-12.951,12.942-12.951,33.936,0,46.876l14.291,14.293c-8.3,13.338-14.52,28.075-18.173,43.832H36.257
		c-18.309,0-33.149,14.843-33.149,33.15c0,18.307,14.841,33.15,33.149,33.15H56.46c3.653,15.759,9.873,30.503,18.194,43.841
		l-14.313,14.301c-12.951,12.941-12.951,33.935,0,46.877c6.474,6.475,14.955,9.712,23.438,9.712c8.481,0,16.963-3.237,23.441-9.712
		l14.307-14.301c13.335,8.304,28.066,14.519,43.831,18.186v20.191c0,18.307,14.831,33.15,33.15,33.15
		c7.641,0,14.602-2.695,20.203-7.05c-1.521-4.483-2.445-9.257-2.445-14.251C216.266,347.951,231.807,329.969,252.281,326.181z
		 M198.508,261.734c-36.643,0-66.359-29.702-66.359-66.34c0-36.639,29.717-66.34,66.359-66.34c36.632,0,66.334,29.701,66.334,66.34
		C264.842,232.032,235.14,261.734,198.508,261.734z"/>
	<path d="M472.452,352.079h-12.303c-2.461-13.393-7.688-25.809-15.121-36.606l8.68-8.667c6.795-6.799,6.795-17.829,0-24.628
		c-3.4-3.406-7.869-5.106-12.318-5.106c-4.453,0-8.918,1.7-12.318,5.106l-8.679,8.677c-10.776-7.446-23.208-12.666-36.611-15.143
		v-12.293c0-9.615-7.786-17.408-17.399-17.408c-9.613,0-17.399,7.793-17.399,17.408v12.293
		c-13.403,2.478-25.819,7.697-36.617,15.136l-8.673-8.659c-3.4-3.4-7.855-5.108-12.303-5.108c-4.471,0-8.934,1.708-12.318,5.108
		c-6.815,6.789-6.815,17.819,0,24.618l8.658,8.667c-7.428,10.798-12.655,23.213-15.115,36.606h-12.303
		c-9.613,0-17.415,7.794-17.415,17.409c0,9.623,7.802,17.417,17.415,17.417h12.303c2.46,13.393,7.688,25.801,15.131,36.604
		l-8.674,8.677c-6.815,6.797-6.815,17.821,0,24.618c3.4,3.4,7.848,5.107,12.318,5.107c4.447,0,8.902-1.707,12.303-5.107l8.673-8.666
		c10.798,7.428,23.214,12.649,36.617,15.125v12.294c0,9.622,7.786,17.417,17.399,17.417c9.613,0,17.399-7.795,17.399-17.417v-12.286
		c13.403-2.483,25.815-7.705,36.611-15.142l8.679,8.683c3.4,3.4,7.865,5.1,12.318,5.1c4.449,0,8.918-1.699,12.318-5.1
		c6.795-6.797,6.795-17.829,0-24.626l-8.68-8.677c7.434-10.804,12.66-23.211,15.121-36.604h12.303
		c9.613,0,17.415-7.794,17.415-17.417C489.867,359.873,482.065,352.079,472.452,352.079z M366.381,405.438
		c-19.86,0-35.951-16.096-35.951-35.949c0-19.854,16.091-35.951,35.951-35.951c19.86,0,35.946,16.098,35.946,35.951
		C402.328,389.342,386.242,405.438,366.381,405.438z"/>
</g>
<g>
</g>
<g>
</g>
<g>
</g>
<g>
</g>
<g>
</g>
<g>
</g>
<g>
</g>
<g>
</g>
<g>
</g>
<g>
</g>
<g>
</g>
<g>
</g>
<g>
</g>
<g>
</g>
<g>
</g>
</svg>
