<?xml version="1.0" encoding="UTF-8" standalone="no"?>
<!DOCTYPE svg PUBLIC "-//W3C//DTD SVG 1.1//EN" "http://www.w3.org/Graphics/SVG/1.1/DTD/svg11.dtd">
<svg width="100%" height="100%" viewBox="0 0 49 15" version="1.1" xmlns="http://www.w3.org/2000/svg" xmlns:xlink="http://www.w3.org/1999/xlink" xml:space="preserve" style="fill-rule:evenodd;clip-rule:evenodd;stroke-linejoin:round;stroke-miterlimit:1.41421;">
    <g transform="matrix(1,0,0,1,-0.000622061,-0.000316207)">
        <g transform="matrix(0.188459,0,0,0.188459,-83.5956,-65.7568)">
            <g transform="matrix(0.183388,0,0,0.183444,95.7626,346.617)">
                <g transform="matrix(1,0,0,1,1843.78,0.346685)">
                    <path d="M547.859,153.681C546.314,151.434 544.138,149.574 541.33,148.099C538.522,146.625 535.503,145.888 532.274,145.888C524.27,145.888 518.057,148.275 513.634,153.049C509.211,157.823 507,164.071 507,171.793C507,179.516 509.211,185.764 513.634,190.538C518.057,195.312 524.27,197.699 532.274,197.699C535.784,197.699 538.803,196.927 541.33,195.382C543.857,193.838 546.034,192.012 547.859,189.906L568.71,211.81C563.795,216.865 558.004,220.41 551.334,222.446C544.665,224.482 538.311,225.5 532.274,225.5C524.411,225.5 517.004,224.236 510.054,221.709C503.103,219.182 497.066,215.566 491.941,210.862C486.816,206.159 482.779,200.507 479.831,193.908C476.882,187.309 475.408,179.937 475.408,171.793C475.408,163.65 476.882,156.278 479.831,149.679C482.779,143.08 486.816,137.428 491.941,132.724C497.066,128.021 503.103,124.405 510.054,121.878C517.004,119.35 524.411,118.087 532.274,118.087C538.311,118.087 544.665,119.105 551.334,121.141C558.004,123.177 563.795,126.722 568.71,131.777L547.859,153.681ZM637.581,210.125C634.07,215.601 629.402,219.533 623.575,221.92C617.748,224.307 611.605,225.5 605.146,225.5C600.372,225.5 595.774,224.833 591.351,223.499C586.928,222.165 583.032,220.164 579.662,217.497C576.292,214.829 573.624,211.529 571.658,207.598C569.693,203.666 568.71,199.103 568.71,193.908C568.71,188.011 569.798,183.026 571.974,178.954C574.151,174.882 577.099,171.513 580.82,168.845C584.541,166.177 588.788,164.106 593.562,162.632C598.336,161.157 603.286,160.069 608.411,159.367C613.536,158.665 618.661,158.244 623.785,158.103C628.91,157.963 633.649,157.893 638.002,157.893C638.002,152.276 636.001,147.818 631.999,144.519C627.998,141.219 623.259,139.569 617.783,139.569C612.588,139.569 607.849,140.658 603.567,142.834C599.284,145.01 595.458,147.994 592.088,151.785L575.239,134.515C581.136,129.039 588.016,124.932 595.879,122.194C603.742,119.456 611.886,118.087 620.31,118.087C629.577,118.087 637.195,119.245 643.162,121.562C649.129,123.879 653.903,127.284 657.484,131.777C661.064,136.27 663.556,141.781 664.961,148.31C666.365,154.839 667.067,162.386 667.067,170.951L667.067,222.973L638.002,222.973L638.002,210.125L637.581,210.125ZM748.559,145.888L720.758,145.888L720.758,180.007C720.758,182.816 720.898,185.378 721.179,187.695C721.46,190.012 722.091,192.012 723.074,193.697C724.057,195.382 725.567,196.681 727.602,197.594C729.638,198.506 732.341,198.963 735.711,198.963C737.396,198.963 739.608,198.787 742.346,198.436C745.083,198.085 747.155,197.278 748.559,196.014L748.559,222.341C745.048,223.605 741.398,224.447 737.607,224.868C733.816,225.289 730.095,225.5 726.444,225.5C721.109,225.5 716.194,224.938 711.701,223.815C707.208,222.692 703.277,220.902 699.907,218.444C696.537,215.987 693.904,212.793 692.009,208.862C690.113,204.93 689.165,200.156 689.165,194.54L689.165,145.888L668.946,145.888L668.946,120.614L689.165,120.614L689.165,90.286L720.758,90.286L720.758,120.614L748.559,120.614L748.559,145.888ZM789.937,171.793C789.937,163.65 791.411,156.278 794.36,149.679C797.309,143.08 801.345,137.428 806.47,132.724C811.595,128.021 817.633,124.405 824.583,121.878C831.533,119.35 838.94,118.087 846.803,118.087C854.666,118.087 862.073,119.35 869.023,121.878C875.973,124.405 882.011,128.021 887.136,132.724C892.261,137.428 896.297,143.08 899.246,149.679C902.195,156.278 903.669,163.65 903.669,171.793C903.669,179.937 902.195,187.309 899.246,193.908C896.297,200.507 892.261,206.159 887.136,210.862C882.011,215.566 875.973,219.182 869.023,221.709C862.073,224.236 854.666,225.5 846.803,225.5C838.94,225.5 831.533,224.236 824.583,221.709C817.633,219.182 811.595,215.566 806.47,210.862C801.345,206.159 797.309,200.507 794.36,193.908C791.411,187.309 789.937,179.937 789.937,171.793ZM785.973,222.973L754.38,222.973L754.38,120.614L785.973,120.614L785.973,222.973ZM939.296,222.973L907.704,222.973L907.704,120.614L938.032,120.614L938.032,134.515L938.453,134.515C939.436,132.549 940.84,130.583 942.666,128.617C944.491,126.652 946.667,124.897 949.195,123.352C951.722,121.808 954.601,120.544 957.83,119.561C961.059,118.578 964.57,118.087 968.361,118.087C976.364,118.087 982.823,119.315 987.737,121.772C992.652,124.23 996.478,127.635 999.216,131.987C1001.95,136.34 1003.81,141.465 1004.8,147.362C1005.78,153.259 1006.27,159.648 1006.27,166.528L1006.27,222.973L974.679,222.973L974.679,172.846C974.679,169.898 974.574,166.844 974.363,163.685C974.153,160.526 973.521,157.612 972.468,154.944C971.415,152.276 969.8,150.1 967.624,148.415C965.447,146.73 962.323,145.888 958.251,145.888C954.179,145.888 950.88,146.625 948.352,148.099C945.825,149.574 943.894,151.539 942.56,153.996C941.227,156.454 940.349,159.227 939.928,162.316C939.507,165.405 939.296,168.634 939.296,172.004L939.296,222.973ZM638.002,178.112L630.209,178.112C627.822,178.112 624.838,178.217 621.258,178.428C617.678,178.638 614.238,179.235 610.938,180.218C607.638,181.201 604.83,182.675 602.513,184.641C600.197,186.607 599.038,189.345 599.038,192.855C599.038,196.646 600.653,199.454 603.882,201.279C607.112,203.105 610.482,204.017 613.992,204.017C617.081,204.017 620.065,203.596 622.943,202.754C625.821,201.911 628.384,200.718 630.63,199.173C632.877,197.629 634.667,195.663 636.001,193.276C637.335,190.889 638.002,188.081 638.002,184.851L638.002,178.112ZM821.529,171.793C821.529,179.516 823.741,185.764 828.164,190.538C832.587,195.312 838.8,197.699 846.803,197.699C854.806,197.699 861.019,195.312 865.442,190.538C869.865,185.764 872.077,179.516 872.077,171.793C872.077,164.071 869.865,157.823 865.442,153.049C861.019,148.275 854.806,145.888 846.803,145.888C838.8,145.888 832.587,148.275 828.164,153.049C823.741,157.823 821.529,164.071 821.529,171.793Z" style="fill:white;"/>
                </g>
                <g transform="matrix(1,0,0,1,1843.78,0.346685)">
                    <path d="M786.34,440.552L754.748,440.552L754.748,290.173L783.813,290.173L783.813,303.652L784.234,303.652C785.498,301.827 787.147,299.966 789.183,298.071C791.219,296.175 793.606,294.455 796.344,292.911C799.082,291.366 802.066,290.103 805.295,289.12C808.525,288.137 811.965,287.646 815.615,287.646C823.198,287.646 830.078,288.944 836.256,291.542C842.434,294.139 847.734,297.79 852.157,302.494C856.58,307.198 859.985,312.779 862.372,319.238C864.759,325.697 865.952,332.787 865.952,340.51C865.952,347.671 864.864,354.516 862.688,361.045C860.511,367.574 857.422,373.366 853.421,378.42C849.419,383.475 844.54,387.512 838.783,390.531C833.026,393.549 826.497,395.059 819.196,395.059C812.597,395.059 806.454,394.041 800.767,392.005C795.081,389.969 790.412,386.494 786.761,381.58L786.34,381.58L786.34,440.552ZM553.82,341.352C553.82,333.208 555.295,325.837 558.243,319.238C561.192,312.638 565.229,306.987 570.354,302.283C575.478,297.58 581.516,293.964 588.466,291.437C595.417,288.909 602.823,287.646 610.686,287.646C618.549,287.646 625.956,288.909 632.906,291.437C639.856,293.964 645.894,297.58 651.019,302.283C656.144,306.987 660.181,312.638 663.129,319.238C666.078,325.837 667.552,333.208 667.552,341.352C667.552,349.496 666.078,356.867 663.129,363.467C660.181,370.066 656.144,375.717 651.019,380.421C645.894,385.125 639.856,388.74 632.906,391.268C625.956,393.795 618.549,395.059 610.686,395.059C602.823,395.059 595.417,393.795 588.466,391.268C581.516,388.74 575.478,385.125 570.354,380.421C565.229,375.717 561.192,370.066 558.243,363.467C555.295,356.867 553.82,349.496 553.82,341.352ZM869.841,341.352C869.841,333.208 871.316,325.837 874.264,319.238C877.213,312.638 881.25,306.987 886.375,302.283C891.5,297.58 897.537,293.964 904.487,291.437C911.438,288.909 918.844,287.646 926.707,287.646C934.57,287.646 941.977,288.909 948.927,291.437C955.877,293.964 961.915,297.58 967.04,302.283C972.165,306.987 976.202,312.638 979.15,319.238C982.099,325.837 983.573,333.208 983.573,341.352C983.573,349.496 982.099,356.867 979.15,363.467C976.202,370.066 972.165,375.717 967.04,380.421C961.915,385.125 955.877,388.74 948.927,391.268C941.977,393.795 934.57,395.059 926.707,395.059C918.844,395.059 911.438,393.795 904.487,391.268C897.537,388.74 891.5,385.125 886.375,380.421C881.25,375.717 877.213,370.066 874.264,363.467C871.316,356.867 869.841,349.496 869.841,341.352ZM1161.12,392.531L1132.06,392.531L1132.06,379.684L1131.64,379.684C1128.13,385.16 1123.46,389.091 1117.63,391.478C1111.8,393.865 1105.66,395.059 1099.2,395.059C1094.43,395.059 1089.83,394.392 1085.41,393.058C1080.98,391.724 1077.09,389.723 1073.72,387.056C1070.35,384.388 1067.68,381.088 1065.71,377.157C1063.75,373.225 1062.77,368.662 1062.77,363.467C1062.77,357.57 1063.85,352.585 1066.03,348.513C1068.21,344.441 1071.15,341.071 1074.88,338.404C1078.6,335.736 1082.84,333.665 1087.62,332.19C1092.39,330.716 1097.34,329.628 1102.47,328.926C1107.59,328.224 1112.72,327.803 1117.84,327.662C1122.97,327.522 1127.7,327.452 1132.06,327.452C1132.06,321.835 1130.06,317.377 1126.06,314.078C1122.05,310.778 1117.32,309.128 1111.84,309.128C1106.64,309.128 1101.9,310.216 1097.62,312.393C1093.34,314.569 1089.51,317.553 1086.14,321.344L1069.3,304.073C1075.19,298.597 1082.07,294.491 1089.93,291.753C1097.8,289.015 1105.94,287.646 1114.37,287.646C1123.63,287.646 1131.25,288.804 1137.22,291.121C1143.18,293.437 1147.96,296.842 1151.54,301.335C1155.12,305.829 1157.61,311.34 1159.02,317.869C1160.42,324.398 1161.12,331.945 1161.12,340.51L1161.12,392.531ZM1213.11,290.173L1240.91,290.173L1240.91,315.447L1213.11,315.447L1213.11,349.566C1213.11,352.374 1213.25,354.937 1213.53,357.254C1213.82,359.57 1214.45,361.571 1215.43,363.256C1216.41,364.941 1217.92,366.24 1219.96,367.152C1221.99,368.065 1224.7,368.521 1228.07,368.521C1229.75,368.521 1231.96,368.346 1234.7,367.995C1237.44,367.644 1239.51,366.837 1240.91,365.573L1240.91,391.9C1237.4,393.163 1233.75,394.006 1229.96,394.427C1226.17,394.848 1222.45,395.059 1218.8,395.059C1213.46,395.059 1208.55,394.497 1204.06,393.374C1199.56,392.251 1195.63,390.46 1192.26,388.003C1188.89,385.546 1186.26,382.352 1184.36,378.42C1182.47,374.489 1181.52,369.715 1181.52,364.099L1181.52,315.447L1161.3,315.447L1161.3,290.173L1181.52,290.173L1181.52,259.844L1213.11,259.844L1213.11,290.173ZM1344.65,374.84C1339.6,381.299 1333.21,386.283 1325.48,389.794C1317.76,393.304 1309.76,395.059 1301.47,395.059C1293.61,395.059 1286.2,393.795 1279.25,391.268C1272.3,388.74 1266.27,385.125 1261.14,380.421C1256.02,375.717 1251.98,370.066 1249.03,363.467C1246.08,356.867 1244.61,349.496 1244.61,341.352C1244.61,333.208 1246.08,325.837 1249.03,319.238C1251.98,312.638 1256.02,306.987 1261.14,302.283C1266.27,297.58 1272.3,293.964 1279.25,291.437C1286.2,288.909 1293.61,287.646 1301.47,287.646C1308.78,287.646 1315.41,288.909 1321.38,291.437C1327.34,293.964 1332.4,297.58 1336.54,302.283C1340.68,306.987 1343.88,312.638 1346.12,319.238C1348.37,325.837 1349.49,333.208 1349.49,341.352L1349.49,351.251L1276.2,351.251C1277.46,357.289 1280.2,362.098 1284.41,365.678C1288.63,369.259 1293.82,371.049 1300,371.049C1305.19,371.049 1309.58,369.89 1313.16,367.574C1316.74,365.257 1319.87,362.273 1322.54,358.623L1344.65,374.84ZM1464.65,392.531L1435.59,392.531L1435.59,379.052L1435.17,379.052C1433.9,380.878 1432.25,382.738 1430.22,384.633C1428.18,386.529 1425.79,388.249 1423.06,389.794C1420.32,391.338 1417.3,392.602 1414,393.585C1410.7,394.567 1407.3,395.059 1403.79,395.059C1396.2,395.059 1389.32,393.76 1383.14,391.163C1376.97,388.565 1371.67,384.914 1367.24,380.211C1362.82,375.507 1359.41,369.926 1357.03,363.467C1354.64,357.008 1353.45,349.917 1353.45,342.195C1353.45,335.034 1354.54,328.189 1356.71,321.66C1358.89,315.131 1361.98,309.339 1365.98,304.284C1369.98,299.229 1374.86,295.193 1380.62,292.174C1386.37,289.155 1392.9,287.646 1400.2,287.646C1406.8,287.646 1412.95,288.664 1418.63,290.699C1424.32,292.735 1428.99,296.211 1432.64,301.125L1433.06,301.125L1433.06,233.307L1464.65,233.307L1464.65,392.531ZM707.958,392.531L676.366,392.531L676.366,290.173L707.958,290.173L707.958,306.601L708.38,306.601C711.749,300.282 715.751,295.544 720.385,292.384C725.018,289.225 730.845,287.646 737.866,287.646C739.691,287.646 741.516,287.716 743.342,287.856C745.167,287.997 746.852,288.277 748.396,288.699L748.396,317.553C746.15,316.851 743.938,316.324 741.762,315.973C739.586,315.622 737.304,315.447 734.917,315.447C728.879,315.447 724.105,316.289 720.595,317.974C717.085,319.659 714.382,322.011 712.486,325.03C710.591,328.048 709.362,331.664 708.801,335.876C708.239,340.089 707.958,344.722 707.958,349.777L707.958,392.531ZM1024.55,392.531L992.954,392.531L992.954,290.173L1024.55,290.173L1024.55,306.601L1024.97,306.601C1028.34,300.282 1032.34,295.544 1036.97,292.384C1041.61,289.225 1047.43,287.646 1054.45,287.646C1056.28,287.646 1058.1,287.716 1059.93,287.856C1061.76,287.997 1063.44,288.277 1064.98,288.699L1064.98,317.553C1062.74,316.851 1060.53,316.324 1058.35,315.973C1056.17,315.622 1053.89,315.447 1051.51,315.447C1045.47,315.447 1040.69,316.289 1037.18,317.974C1033.67,319.659 1030.97,322.011 1029.08,325.03C1027.18,328.048 1025.95,331.664 1025.39,335.876C1024.83,340.089 1024.55,344.722 1024.55,349.777L1024.55,392.531ZM1124.27,347.671C1121.88,347.671 1118.89,347.776 1115.31,347.987C1111.73,348.197 1108.29,348.794 1104.99,349.777C1101.69,350.76 1098.89,352.234 1096.57,354.2C1094.25,356.165 1093.09,358.903 1093.09,362.414C1093.09,366.205 1094.71,369.013 1097.94,370.838C1101.17,372.664 1104.54,373.576 1108.05,373.576C1111.14,373.576 1114.12,373.155 1117,372.313C1119.88,371.47 1122.44,370.277 1124.69,368.732C1126.93,367.188 1128.72,365.222 1130.06,362.835C1131.39,360.448 1132.06,357.64 1132.06,354.41L1132.06,347.671L1124.27,347.671ZM585.412,341.352C585.412,349.075 587.624,355.323 592.047,360.097C596.47,364.871 602.683,367.258 610.686,367.258C618.69,367.258 624.903,364.871 629.326,360.097C633.748,355.323 635.96,349.075 635.96,341.352C635.96,333.63 633.748,327.381 629.326,322.608C624.903,317.834 618.69,315.447 610.686,315.447C602.683,315.447 596.47,317.834 592.047,322.608C587.624,327.381 585.412,333.63 585.412,341.352ZM783.813,341.352C783.813,349.075 786.024,355.323 790.447,360.097C794.87,364.871 801.083,367.258 809.086,367.258C817.09,367.258 823.303,364.871 827.726,360.097C832.149,355.323 834.36,349.075 834.36,341.352C834.36,333.63 832.149,327.381 827.726,322.608C823.303,317.834 817.09,315.447 809.086,315.447C801.083,315.447 794.87,317.834 790.447,322.608C786.024,327.381 783.813,333.63 783.813,341.352ZM901.434,341.352C901.434,349.075 903.645,355.323 908.068,360.097C912.491,364.871 918.704,367.258 926.707,367.258C934.711,367.258 940.924,364.871 945.347,360.097C949.77,355.323 951.981,349.075 951.981,341.352C951.981,333.63 949.77,327.381 945.347,322.608C940.924,317.834 934.711,315.447 926.707,315.447C918.704,315.447 912.491,317.834 908.068,322.608C903.645,327.381 901.434,333.63 901.434,341.352ZM1435.59,341.352C1435.59,333.63 1433.38,327.381 1428.95,322.608C1424.53,317.834 1418.32,315.447 1410.31,315.447C1402.31,315.447 1396.1,317.834 1391.67,322.608C1387.25,327.381 1385.04,333.63 1385.04,341.352C1385.04,349.075 1387.25,355.323 1391.67,360.097C1396.1,364.871 1402.31,367.258 1410.31,367.258C1418.32,367.258 1424.53,364.871 1428.95,360.097C1433.38,355.323 1435.59,349.075 1435.59,341.352ZM1317.9,329.768C1318.04,324.433 1316.29,319.87 1312.64,316.078C1308.99,312.287 1304.28,310.392 1298.53,310.392C1295.02,310.392 1291.93,310.954 1289.26,312.077C1286.59,313.2 1284.31,314.639 1282.41,316.394C1280.52,318.15 1279.04,320.185 1277.99,322.502C1276.94,324.819 1276.34,327.241 1276.2,329.768L1317.9,329.768Z" style="fill:white;"/>
                </g>
                <g transform="matrix(1.08926,0,0,1.08926,1776.27,-2.69977)">
                    <path d="M769.043,14.004L779.265,45.466L812.346,45.466L785.583,64.911L795.806,96.373L769.043,76.928L742.28,96.373L752.502,64.911L725.739,45.466L758.82,45.466L769.043,14.004Z" style="fill:white;"/>
                </g>
                <g transform="matrix(1,0,0,1,1843.78,0.346685)">
                    <path d="M461.98,163.644C459.937,172.49 456.723,180.634 452.337,188.076C447.952,195.517 442.494,201.976 435.964,207.452C429.435,212.928 421.882,217.211 413.306,220.3C404.73,223.389 395.317,224.933 385.067,224.933C374.676,224.933 365.906,223.389 358.757,220.3C351.607,217.211 346.031,212.928 342.03,207.452C338.029,201.976 335.554,195.517 334.604,188.076C333.654,180.634 334.201,172.49 336.243,163.644L357.394,72.027L390.25,72.027L369.39,162.381C368.321,167.014 368.069,171.297 368.636,175.228C369.202,179.16 370.487,182.565 372.491,185.443C374.494,188.321 377.169,190.568 380.518,192.183C383.866,193.797 387.716,194.605 392.069,194.605C396.421,194.605 400.609,193.797 404.633,192.183C408.656,190.568 412.334,188.321 415.666,185.443C418.999,182.565 421.856,179.16 424.238,175.228C426.62,171.297 428.346,167.014 429.415,162.381L450.275,72.027L483.131,72.027L461.98,163.644ZM227.673,222.098L173.966,222.098L208.392,72.983L257.676,72.983C269.61,72.983 280.64,74.317 290.766,76.985C300.891,79.653 309.267,83.971 315.893,89.938C322.518,95.905 327.081,103.663 329.58,113.211C332.08,122.759 331.757,134.342 328.613,147.962C325.825,160.037 321.088,170.673 314.401,179.87C307.715,189.067 299.789,196.79 290.624,203.038C281.459,209.286 271.449,214.025 260.594,217.254C249.739,220.484 238.765,222.098 227.673,222.098ZM157.926,221.532L52.829,221.532L87.255,72.417L188.561,72.417L181.559,102.745L113.109,102.745L106.691,130.546L171.35,130.546L164.348,160.875L99.689,160.875L92.687,191.203L164.928,191.203L157.926,221.532ZM213.824,191.77L230.883,191.77C238.465,191.77 245.699,190.998 252.585,189.453C259.471,187.909 265.714,185.346 271.314,181.766C276.915,178.185 281.757,173.482 285.84,167.655C289.923,161.828 292.937,154.702 294.882,146.277C296.568,138.976 296.666,132.622 295.176,127.217C293.686,121.811 291.029,117.353 287.206,113.843C283.383,110.332 278.55,107.7 272.707,105.945C266.864,104.19 260.502,103.312 253.622,103.312L234.246,103.312L213.824,191.77Z" style="fill:url(#_Linear1);"/>
                </g>
                <g transform="matrix(1,0,0,1,1843.78,0.346685)">
                    <path d="M540.735,281.78C538.413,277.849 535.144,274.83 530.926,272.724C526.709,270.618 521.511,269.564 515.333,269.564C509.155,269.564 503.158,270.758 497.341,273.145C491.525,275.532 486.191,278.867 481.342,283.149C476.492,287.432 472.298,292.521 468.76,298.419C465.222,304.316 462.659,310.704 461.071,317.585C459.45,324.605 459.055,331.029 459.886,336.856C460.717,342.683 462.534,347.737 465.336,352.02C468.138,356.302 471.827,359.637 476.4,362.024C480.974,364.411 486.21,365.605 492.107,365.605C498.847,365.605 505.138,364.201 510.982,361.392C516.825,358.584 522.015,354.653 526.552,349.598L549.216,370.028C540.855,378.873 531.344,385.402 520.683,389.615C510.023,393.827 499.567,395.933 489.317,395.933C477.663,395.933 467.344,394.108 458.358,390.457C449.372,386.806 442.085,381.576 436.496,374.766C430.907,367.956 427.23,359.707 425.465,350.019C423.7,340.331 424.196,329.519 426.951,317.585C429.706,305.65 434.203,294.838 440.442,285.15C446.68,275.462 454.166,267.213 462.899,260.403C471.632,253.593 481.334,248.363 492.006,244.712C502.677,241.061 513.84,239.236 525.494,239.236C529.706,239.236 534.005,239.622 538.39,240.394C542.775,241.167 546.984,242.395 551.018,244.08C555.052,245.765 558.781,248.012 562.204,250.82C565.628,253.628 568.484,257.068 570.774,261.14L540.735,281.78ZM237.645,392.142L204.789,392.142L239.215,243.027L272.071,243.027L237.645,392.142ZM291.128,392.142L258.272,392.142L292.698,243.027L337.349,243.027L376.82,346.649L377.242,346.649L401.165,243.027L434.021,243.027L399.595,392.142L356.629,392.142L316.056,285.992L315.635,285.992L291.128,392.142Z" style="fill:url(#_Linear2);"/>
                </g>
            </g>
        </g>
    </g>
    <defs>
        <linearGradient id="_Linear1" x1="0" y1="0" x2="1" y2="0" gradientUnits="userSpaceOnUse" gradientTransform="matrix(9.13066e-15,149.115,-149.115,9.13066e-15,156.853,72.4166)"><stop offset="0%" style="stop-color:rgb(237,28,36);stop-opacity:1"/><stop offset="41%" style="stop-color:rgb(249,161,26);stop-opacity:1"/><stop offset="66%" style="stop-color:rgb(255,242,0);stop-opacity:1"/><stop offset="87%" style="stop-color:rgb(216,230,12);stop-opacity:1"/><stop offset="94%" style="stop-color:rgb(115,200,44);stop-opacity:1"/><stop offset="99%" style="stop-color:rgb(0,166,80);stop-opacity:1"/><stop offset="100%" style="stop-color:rgb(0,166,80);stop-opacity:1"/></linearGradient>
        <linearGradient id="_Linear2" x1="0" y1="0" x2="1" y2="0" gradientUnits="userSpaceOnUse" gradientTransform="matrix(9.35704e-15,152.812,-152.812,9.35704e-15,293.264,239.635)"><stop offset="0%" style="stop-color:rgb(237,28,36);stop-opacity:1"/><stop offset="41%" style="stop-color:rgb(249,161,26);stop-opacity:1"/><stop offset="66%" style="stop-color:rgb(255,242,0);stop-opacity:1"/><stop offset="87%" style="stop-color:rgb(216,230,12);stop-opacity:1"/><stop offset="94%" style="stop-color:rgb(115,200,44);stop-opacity:1"/><stop offset="99%" style="stop-color:rgb(0,166,80);stop-opacity:1"/><stop offset="100%" style="stop-color:rgb(0,166,80);stop-opacity:1"/></linearGradient>
    </defs>
</svg>
