<?xml version="1.0" encoding="UTF-8" standalone="no"?>
<!DOCTYPE svg PUBLIC "-//W3C//DTD SVG 1.1//EN" "http://www.w3.org/Graphics/SVG/1.1/DTD/svg11.dtd">
<svg width="100%" height="100%" viewBox="0 0 47 9" version="1.1" xmlns="http://www.w3.org/2000/svg" xmlns:xlink="http://www.w3.org/1999/xlink" xml:space="preserve" style="fill-rule:evenodd;clip-rule:evenodd;stroke-linejoin:round;stroke-miterlimit:1.41421;">
    <g transform="matrix(1.00362,0,0,1.00362,-0.084849,-0.0837055)">
        <g>
            <path d="M1.323,5.733C1.35,5.741 1.367,5.752 1.384,5.775C1.399,5.799 1.407,5.821 1.419,5.848C1.436,5.887 1.441,5.896 1.46,5.934C1.508,6.022 1.563,6.106 1.633,6.179C1.678,6.226 1.729,6.269 1.784,6.305C2.09,6.504 2.472,6.463 2.813,6.4C3.499,6.272 4.152,5.943 4.669,5.475C4.903,5.263 5.125,5.018 5.221,4.712L5.239,4.681L5.268,4.66L5.303,4.652C5.475,4.653 5.649,4.653 5.821,4.665C5.891,4.67 5.96,4.679 6.03,4.688L6.158,4.702L6.192,4.713L6.218,4.738C6.236,4.781 6.242,4.825 6.252,4.87C6.265,4.915 6.278,4.958 6.294,5.002C6.323,5.074 6.358,5.141 6.407,5.201C6.437,5.236 6.47,5.267 6.507,5.294C6.555,5.328 6.608,5.353 6.664,5.371C6.928,5.461 7.214,5.37 7.446,5.235C7.505,5.2 7.562,5.161 7.615,5.118C7.68,5.064 7.739,5.004 7.794,4.94L7.821,4.92L7.854,4.911L7.887,4.916C7.921,4.929 7.955,4.94 7.991,4.949C8.023,4.956 8.056,4.961 8.089,4.963C8.215,4.968 8.332,4.934 8.441,4.871C8.501,4.836 8.556,4.793 8.611,4.75C8.695,4.685 8.775,4.616 8.852,4.543L8.882,4.525L8.916,4.52L8.949,4.53L8.976,4.552L8.992,4.583L8.994,4.618C8.984,4.682 8.975,4.745 8.97,4.809C8.964,4.9 8.963,4.991 8.98,5.081C8.99,5.132 9.005,5.182 9.03,5.227C9.05,5.264 9.076,5.297 9.109,5.323C9.134,5.343 9.162,5.357 9.191,5.37C9.412,5.466 9.633,5.298 9.782,5.149C9.81,5.121 9.836,5.092 9.863,5.063C9.99,4.917 10.113,4.768 10.238,4.619C10.305,4.539 10.319,4.522 10.385,4.44C10.42,4.396 10.457,4.341 10.5,4.301C10.512,4.291 10.522,4.286 10.536,4.279C10.582,4.263 10.621,4.282 10.648,4.319C10.656,4.334 10.658,4.347 10.661,4.363C10.661,4.377 10.66,4.391 10.658,4.405C10.643,4.49 10.626,4.573 10.611,4.658C10.594,4.774 10.583,4.891 10.596,5.008C10.603,5.08 10.619,5.151 10.644,5.219C10.658,5.257 10.674,5.294 10.701,5.323C10.749,5.374 10.819,5.388 10.886,5.39C11.027,5.395 11.163,5.338 11.28,5.263C11.32,5.238 11.358,5.21 11.395,5.179C11.438,5.142 11.479,5.102 11.519,5.061C11.631,4.939 11.74,4.813 11.848,4.688C11.913,4.61 11.978,4.532 12.045,4.455L12.117,4.374L12.193,4.291L12.222,4.27L12.257,4.263L12.291,4.271L12.32,4.292L12.337,4.324L12.34,4.359C12.331,4.425 12.324,4.491 12.318,4.558C12.311,4.671 12.309,4.783 12.325,4.896C12.336,4.97 12.354,5.044 12.383,5.114C12.402,5.16 12.427,5.204 12.46,5.242C12.481,5.267 12.507,5.29 12.535,5.307C12.557,5.32 12.579,5.33 12.603,5.337C12.749,5.382 12.893,5.279 12.998,5.189C13.026,5.165 13.053,5.139 13.079,5.113C13.106,5.087 13.141,5.051 13.165,5.023C13.204,4.98 13.242,4.936 13.28,4.892C13.318,4.848 13.356,4.803 13.393,4.758C13.492,4.639 13.516,4.607 13.613,4.485L13.64,4.462L13.674,4.453L13.709,4.458L13.739,4.477L13.758,4.507L13.764,4.542C13.76,4.609 13.761,4.676 13.762,4.744C13.764,4.79 13.767,4.835 13.775,4.88C13.805,5.056 13.881,5.246 14.049,5.331C14.108,5.36 14.174,5.377 14.239,5.363C14.289,5.352 14.33,5.324 14.371,5.295C14.432,5.251 14.489,5.202 14.543,5.15C14.647,5.045 14.747,4.932 14.847,4.824C14.961,4.7 15.075,4.576 15.19,4.452L15.26,4.376L15.287,4.357C15.297,4.354 15.307,4.349 15.318,4.349C15.364,4.347 15.404,4.383 15.407,4.429C15.408,4.44 15.404,4.45 15.403,4.461C15.38,4.527 15.38,4.526 15.36,4.594C15.306,4.804 15.279,5.044 15.421,5.228C15.461,5.28 15.503,5.321 15.565,5.345C15.611,5.362 15.66,5.375 15.709,5.379C15.767,5.383 15.826,5.374 15.882,5.355C16.053,5.297 16.189,5.166 16.309,5.037C16.466,4.864 16.466,4.865 16.622,4.692C16.675,4.632 16.724,4.568 16.783,4.513C16.833,4.475 16.935,4.482 16.951,4.556C16.958,4.584 16.957,4.605 16.947,4.632C16.89,4.763 16.821,4.889 16.759,5.017C16.695,5.149 16.636,5.284 16.571,5.417C16.491,5.587 16.411,5.757 16.332,5.928C16.266,6.071 16.208,6.217 16.154,6.364C16.113,6.474 16.076,6.585 16.042,6.697C15.997,6.843 15.95,6.989 15.916,7.138C15.878,7.304 15.856,7.471 15.847,7.64C15.841,7.771 15.847,7.916 15.941,8.019C15.96,8.039 15.981,8.056 16.004,8.071C16.023,8.083 16.044,8.098 16.065,8.107C16.076,8.11 16.085,8.111 16.097,8.112C16.194,8.107 16.282,8.045 16.359,7.993C16.463,7.923 16.569,7.85 16.66,7.763C16.739,7.688 16.812,7.607 16.885,7.527C16.996,7.405 17.105,7.28 17.207,7.15C17.29,7.044 17.368,6.932 17.44,6.818C17.592,6.576 17.721,6.32 17.804,6.047C17.865,5.844 17.904,5.633 17.858,5.422C17.841,5.345 17.813,5.272 17.779,5.2L17.771,5.17C17.774,5.138 17.774,5.138 17.789,5.11C17.824,5.081 17.863,5.058 17.898,5.03C18.112,4.845 18.293,4.621 18.48,4.411L18.51,4.389L18.546,4.382L18.581,4.391L18.61,4.414L18.626,4.447L18.627,4.483C18.614,4.549 18.601,4.614 18.591,4.68C18.577,4.789 18.567,4.9 18.577,5.01C18.583,5.071 18.595,5.133 18.619,5.19C18.637,5.234 18.663,5.274 18.697,5.307C18.721,5.329 18.749,5.347 18.778,5.361C18.809,5.376 18.84,5.387 18.873,5.393C19.037,5.424 19.193,5.324 19.311,5.222C19.338,5.198 19.364,5.174 19.389,5.149C19.417,5.121 19.444,5.093 19.47,5.063C19.521,5.005 19.572,4.946 19.623,4.887C19.697,4.798 19.771,4.708 19.845,4.619C19.895,4.56 19.944,4.5 19.992,4.44C20.027,4.396 20.064,4.341 20.107,4.301C20.119,4.291 20.129,4.286 20.143,4.279C20.189,4.263 20.228,4.282 20.255,4.319C20.263,4.334 20.265,4.347 20.268,4.363C20.268,4.377 20.267,4.391 20.265,4.405C20.25,4.49 20.233,4.573 20.218,4.658C20.201,4.774 20.19,4.891 20.203,5.008C20.21,5.08 20.226,5.151 20.251,5.219C20.265,5.257 20.281,5.294 20.309,5.323C20.356,5.374 20.426,5.388 20.493,5.39C20.634,5.395 20.77,5.338 20.887,5.263C20.927,5.238 20.965,5.21 21.002,5.179C21.046,5.142 21.086,5.102 21.126,5.061C21.261,4.915 21.392,4.763 21.52,4.61C21.572,4.547 21.625,4.486 21.679,4.424L21.737,4.36L21.765,4.339L21.799,4.332L21.833,4.338L21.862,4.358L21.88,4.388L21.885,4.422C21.881,4.483 21.881,4.482 21.879,4.543C21.879,4.6 21.879,4.6 21.882,4.657C21.892,4.766 21.908,4.878 21.95,4.98C21.975,5.041 22.009,5.097 22.051,5.147C22.112,5.221 22.189,5.288 22.275,5.33C22.369,5.377 22.473,5.394 22.577,5.398C22.755,5.404 22.935,5.374 23.098,5.304C23.191,5.263 23.276,5.205 23.359,5.147C23.474,5.067 23.582,4.98 23.687,4.886C23.86,4.726 24.025,4.556 24.194,4.391C24.326,4.261 24.456,4.128 24.589,4C24.652,3.944 24.651,3.944 24.716,3.89C24.846,3.789 24.982,3.694 25.128,3.617C25.11,3.602 25.093,3.589 25.073,3.578C24.985,3.54 24.906,3.621 24.843,3.672C24.826,3.687 24.809,3.701 24.792,3.716C24.688,3.807 24.593,3.905 24.498,4.005C24.358,4.152 24.221,4.302 24.079,4.448C24.017,4.511 23.953,4.572 23.888,4.633C23.823,4.692 23.758,4.752 23.69,4.807C23.633,4.852 23.575,4.895 23.515,4.935C23.461,4.97 23.406,5.003 23.35,5.033C23.309,5.055 23.268,5.075 23.226,5.093C23.187,5.109 23.148,5.124 23.107,5.136C22.953,5.184 22.739,5.216 22.618,5.079C22.598,5.055 22.58,5.031 22.565,5.003C22.544,4.962 22.529,4.918 22.519,4.873C22.499,4.787 22.489,4.701 22.49,4.613C22.492,4.483 22.517,4.357 22.551,4.232L22.565,4.188C22.569,4.179 22.572,4.169 22.578,4.161C22.595,4.139 22.604,4.139 22.628,4.129C22.67,4.128 22.71,4.134 22.752,4.133C22.862,4.126 22.968,4.093 23.069,4.049C23.203,3.991 23.33,3.917 23.452,3.837C23.64,3.713 23.824,3.575 23.976,3.408C24.081,3.291 24.168,3.159 24.2,3.004C24.226,2.88 24.214,2.742 24.138,2.636C24.089,2.569 24.015,2.517 23.945,2.476C23.79,2.387 23.614,2.333 23.435,2.348C23.342,2.355 23.255,2.383 23.169,2.42C23.059,2.467 22.954,2.529 22.858,2.602C22.673,2.744 22.517,2.922 22.381,3.11C22.323,3.19 22.265,3.273 22.217,3.36C22.178,3.43 22.145,3.504 22.113,3.578C22.053,3.717 22.001,3.859 21.96,4.005L21.942,4.038C21.81,4.19 21.682,4.345 21.548,4.495C21.51,4.537 21.466,4.585 21.427,4.625C21.326,4.729 21.208,4.831 21.065,4.869C21.033,4.878 20.998,4.884 20.964,4.881C20.861,4.871 20.81,4.778 20.804,4.682C20.8,4.633 20.805,4.583 20.813,4.534C20.826,4.446 20.848,4.358 20.875,4.273C20.934,4.09 21.021,3.923 21.113,3.755C21.158,3.675 21.202,3.595 21.254,3.519C21.306,3.444 21.363,3.374 21.422,3.304C21.463,3.255 21.504,3.206 21.55,3.16C21.607,3.103 21.668,3.053 21.734,3.007L21.742,3.002C21.594,2.815 21.35,2.737 21.121,2.719C21.111,2.726 21.102,2.734 21.093,2.742C21.069,2.769 21.069,2.768 21.046,2.796C20.974,2.894 20.91,2.998 20.843,3.099C20.785,3.188 20.722,3.273 20.664,3.362C20.596,3.466 20.525,3.57 20.459,3.676L20.431,3.722C20.299,3.914 20.17,4.109 20.025,4.291C19.924,4.417 19.817,4.538 19.701,4.649C19.631,4.718 19.558,4.786 19.474,4.837C19.451,4.851 19.425,4.863 19.399,4.871C19.378,4.878 19.355,4.881 19.332,4.879C19.317,4.878 19.302,4.874 19.287,4.867C19.196,4.829 19.192,4.712 19.2,4.629C19.202,4.612 19.204,4.596 19.206,4.58C19.209,4.563 19.212,4.545 19.216,4.528C19.234,4.432 19.261,4.339 19.294,4.247C19.383,4.01 19.508,3.786 19.642,3.571C19.803,3.315 19.982,3.07 20.182,2.842C20.16,2.824 20.135,2.811 20.11,2.798C20.008,2.746 19.898,2.709 19.785,2.685C19.746,2.676 19.707,2.67 19.667,2.667C19.651,2.666 19.631,2.663 19.615,2.667C19.6,2.673 19.586,2.682 19.572,2.692C19.445,2.791 19.346,2.931 19.255,3.062C19.071,3.329 18.922,3.619 18.797,3.918L18.781,3.942C18.643,4.094 18.505,4.245 18.362,4.393C18.243,4.515 18.123,4.639 17.987,4.743C17.966,4.76 17.943,4.776 17.921,4.791C17.888,4.813 17.855,4.835 17.821,4.857C17.805,4.868 17.774,4.888 17.756,4.898C17.741,4.907 17.725,4.915 17.71,4.924C17.696,4.931 17.683,4.938 17.67,4.945C17.629,4.966 17.561,5.005 17.512,4.982C17.492,4.972 17.493,4.972 17.476,4.957C17.469,4.951 17.465,4.943 17.461,4.935C17.451,4.913 17.453,4.902 17.454,4.878L17.455,4.873C17.477,4.811 17.481,4.813 17.522,4.732C17.56,4.657 17.6,4.581 17.64,4.507C17.727,4.345 17.82,4.186 17.919,4.031C17.981,3.934 18.048,3.839 18.132,3.758C18.173,3.718 18.22,3.678 18.272,3.651C18.25,3.626 18.224,3.604 18.2,3.581C18.105,3.498 18.009,3.419 17.91,3.341C17.84,3.285 17.77,3.229 17.697,3.177C17.68,3.167 17.664,3.159 17.648,3.147C17.623,3.121 17.604,3.072 17.628,3.038C17.635,3.028 17.643,3.019 17.651,3.009C17.662,2.999 17.675,2.992 17.689,2.985C17.765,2.957 17.844,2.943 17.924,2.932L17.944,2.93C17.904,2.887 17.862,2.847 17.819,2.808C17.651,2.655 17.429,2.519 17.195,2.518C16.998,2.517 16.812,2.636 16.659,2.749C16.265,3.04 15.951,3.424 15.699,3.841C15.658,3.894 15.609,3.94 15.563,3.988C15.378,4.181 15.187,4.367 14.997,4.555C14.916,4.636 14.835,4.717 14.752,4.796C14.71,4.835 14.711,4.835 14.668,4.872C14.637,4.896 14.606,4.92 14.571,4.937C14.537,4.953 14.501,4.965 14.463,4.959C14.39,4.949 14.33,4.879 14.316,4.809C14.307,4.766 14.312,4.722 14.318,4.679C14.326,4.627 14.335,4.575 14.348,4.524C14.38,4.397 14.433,4.276 14.491,4.16C14.542,4.057 14.597,3.957 14.658,3.86C14.743,3.724 14.836,3.58 14.969,3.486C14.907,3.444 14.844,3.404 14.78,3.364C14.706,3.321 14.63,3.28 14.547,3.257C14.517,3.248 14.486,3.242 14.454,3.24C14.428,3.238 14.401,3.239 14.376,3.245C14.302,3.259 14.253,3.306 14.207,3.364C14.167,3.415 14.132,3.471 14.098,3.528C14.016,3.669 13.942,3.817 13.884,3.97L13.876,3.993L13.857,4.06L13.84,4.091C13.656,4.31 13.473,4.529 13.28,4.74C13.257,4.764 13.234,4.787 13.209,4.809C13.171,4.838 13.132,4.863 13.086,4.873C13.067,4.877 13.047,4.878 13.027,4.876C12.904,4.863 12.84,4.726 12.831,4.616C12.821,4.494 12.85,4.369 12.882,4.251C12.936,4.055 13.01,3.865 13.088,3.678L13.118,3.609C13.123,3.598 13.148,3.525 13.171,3.511L13.171,3.503L13.179,3.475C13.232,3.364 13.232,3.364 13.288,3.253C13.397,3.043 13.509,2.835 13.631,2.633C13.709,2.502 13.793,2.375 13.876,2.248C13.938,2.153 13.999,2.058 14.064,1.965C14.169,1.815 14.28,1.671 14.395,1.53L14.423,1.508L14.456,1.499C14.863,1.477 15.269,1.458 15.676,1.439C16.299,1.413 16.922,1.391 17.545,1.378C17.507,1.344 17.468,1.312 17.426,1.282C17.394,1.262 17.359,1.239 17.32,1.235C17.212,1.23 17.103,1.235 16.994,1.235C16.708,1.237 16.638,1.238 16.353,1.242C15.821,1.251 15.29,1.264 14.758,1.278L14.726,1.273L14.698,1.255L14.679,1.228L14.671,1.195L14.677,1.163L14.695,1.135C14.751,1.076 14.808,1.019 14.866,0.962C14.992,0.846 15.124,0.738 15.27,0.648C15.244,0.627 15.215,0.609 15.187,0.591C14.991,0.483 14.757,0.464 14.538,0.494C14.441,0.508 14.338,0.531 14.253,0.58C14.164,0.631 14.094,0.706 14.031,0.787C13.918,0.94 13.812,1.105 13.707,1.259C13.686,1.282 13.673,1.289 13.643,1.296C13.511,1.306 13.511,1.306 13.379,1.314C13.154,1.323 12.929,1.324 12.703,1.325C12.733,1.378 12.769,1.427 12.805,1.476C12.848,1.53 12.905,1.598 12.978,1.607C13.025,1.613 13.074,1.607 13.12,1.605L13.348,1.583C13.358,1.584 13.369,1.583 13.379,1.586C13.421,1.597 13.447,1.64 13.44,1.683C13.438,1.693 13.432,1.702 13.428,1.712C13.353,1.833 13.354,1.833 13.281,1.956C12.929,2.579 12.635,3.234 12.429,3.92L12.411,3.953C12.251,4.131 12.1,4.317 11.941,4.495C11.903,4.537 11.859,4.585 11.82,4.625C11.719,4.729 11.601,4.831 11.458,4.869C11.426,4.878 11.391,4.884 11.357,4.881C11.254,4.871 11.203,4.778 11.197,4.682C11.193,4.633 11.198,4.583 11.206,4.534C11.219,4.446 11.241,4.358 11.268,4.273C11.327,4.09 11.414,3.923 11.506,3.755C11.551,3.675 11.595,3.595 11.647,3.519C11.699,3.444 11.756,3.374 11.815,3.304C11.856,3.255 11.897,3.206 11.942,3.16C12,3.103 12.061,3.053 12.127,3.007L12.135,3.002C11.987,2.815 11.743,2.737 11.514,2.719C11.504,2.726 11.495,2.734 11.486,2.742C11.462,2.769 11.462,2.768 11.439,2.796C11.367,2.894 11.303,2.998 11.236,3.099C11.178,3.188 11.115,3.273 11.057,3.362C10.989,3.466 10.918,3.57 10.852,3.676L10.824,3.722C10.692,3.914 10.563,4.109 10.418,4.291C10.317,4.417 10.21,4.538 10.094,4.649C10.024,4.718 9.951,4.786 9.867,4.837C9.843,4.851 9.818,4.863 9.792,4.871C9.771,4.878 9.748,4.881 9.725,4.879C9.71,4.878 9.695,4.874 9.68,4.867C9.589,4.829 9.585,4.712 9.593,4.629C9.594,4.612 9.597,4.596 9.599,4.58C9.602,4.563 9.605,4.545 9.609,4.528C9.627,4.432 9.653,4.339 9.687,4.247C9.775,4.01 9.901,3.786 10.035,3.571C10.196,3.315 10.375,3.07 10.575,2.842C10.553,2.824 10.527,2.811 10.503,2.798C10.401,2.746 10.291,2.709 10.178,2.685C10.139,2.676 10.1,2.67 10.06,2.667C10.044,2.666 10.024,2.663 10.008,2.667C9.992,2.673 9.979,2.682 9.965,2.692C9.838,2.791 9.739,2.931 9.648,3.062C9.489,3.292 9.361,3.538 9.244,3.791C9.222,3.84 9.201,3.89 9.181,3.939C9.161,3.989 9.165,3.99 9.139,4.036C9.069,4.127 8.998,4.217 8.923,4.304C8.878,4.356 8.833,4.409 8.783,4.457C8.725,4.513 8.663,4.565 8.599,4.614C8.52,4.675 8.439,4.739 8.343,4.77C8.261,4.797 8.174,4.798 8.094,4.767C8.047,4.748 8.007,4.708 8.025,4.652C8.029,4.643 8.035,4.634 8.04,4.625C8.078,4.579 8.114,4.531 8.15,4.483C8.299,4.269 8.416,4.037 8.512,3.794C8.581,3.619 8.639,3.438 8.679,3.254C8.702,3.151 8.72,3.032 8.695,2.927C8.684,2.884 8.664,2.843 8.644,2.804C8.481,2.502 8.115,2.405 7.795,2.408C7.715,2.408 7.636,2.415 7.558,2.433C7.47,2.453 7.384,2.485 7.304,2.526C7.1,2.631 6.929,2.795 6.784,2.971C6.656,3.125 6.549,3.296 6.46,3.475C6.389,3.618 6.329,3.767 6.288,3.923C6.246,4.082 6.226,4.245 6.218,4.409L6.215,4.473L6.206,4.508L6.183,4.536L6.151,4.551L6.115,4.553C5.988,4.529 5.862,4.504 5.734,4.487C5.613,4.473 5.492,4.465 5.37,4.457C5.361,4.455 5.35,4.454 5.341,4.45C5.31,4.437 5.3,4.413 5.291,4.382C5.285,4.334 5.285,4.334 5.277,4.285C5.254,4.184 5.218,4.089 5.169,3.998C5.059,3.79 4.821,3.665 4.604,3.604C4.547,3.589 4.489,3.577 4.43,3.569C4.367,3.56 4.304,3.556 4.241,3.552C4.172,3.547 4.104,3.544 4.035,3.542C3.955,3.539 3.874,3.543 3.794,3.537C3.78,3.535 3.768,3.532 3.754,3.527C3.736,3.52 3.71,3.508 3.7,3.491C3.693,3.481 3.687,3.47 3.681,3.46L3.68,3.456C3.674,3.42 3.678,3.398 3.699,3.368C3.71,3.356 3.722,3.348 3.736,3.34C3.746,3.336 3.755,3.332 3.765,3.329C3.815,3.315 3.865,3.305 3.915,3.293C4.032,3.264 4.063,3.255 4.179,3.225C4.604,3.105 5.027,2.973 5.426,2.782C5.524,2.736 5.62,2.686 5.714,2.632C5.944,2.502 6.158,2.347 6.336,2.15C6.44,2.036 6.53,1.911 6.586,1.766C6.631,1.652 6.654,1.531 6.66,1.409C6.663,1.333 6.65,1.256 6.631,1.182C6.606,1.09 6.567,1.001 6.515,0.92C6.445,0.812 6.354,0.719 6.251,0.642C6.1,0.528 5.927,0.447 5.751,0.38C5.308,0.21 4.835,0.127 4.363,0.097C3.541,0.045 2.699,0.143 1.911,0.379C1.76,0.424 1.612,0.476 1.465,0.534C1.334,0.585 1.205,0.642 1.079,0.705C0.813,0.838 0.557,1.003 0.344,1.213C0.236,1.32 0.134,1.444 0.094,1.594C0.083,1.636 0.084,1.682 0.085,1.725C0.087,1.782 0.093,1.838 0.1,1.895C0.114,2.014 0.134,2.135 0.207,2.234L0.219,2.249L0.23,2.26C0.253,2.232 0.278,2.206 0.304,2.18C0.466,2.029 0.652,1.909 0.844,1.8C1.104,1.651 1.375,1.524 1.653,1.412C2.283,1.157 2.941,0.973 3.612,0.863C3.968,0.804 4.329,0.758 4.69,0.759C4.937,0.76 5.185,0.783 5.427,0.834C5.599,0.871 5.768,0.923 5.93,0.991C6.025,1.032 6.118,1.079 6.202,1.14C6.254,1.178 6.303,1.221 6.343,1.272C6.367,1.303 6.388,1.336 6.404,1.372C6.415,1.398 6.424,1.426 6.43,1.454C6.469,1.649 6.345,1.837 6.222,1.976C6.186,2.016 6.165,2.04 6.126,2.077C5.924,2.273 5.681,2.421 5.433,2.552C5.066,2.745 4.68,2.898 4.285,3.023C3.917,3.139 3.543,3.235 3.166,3.315C3.043,3.341 2.919,3.364 2.795,3.386C2.728,3.398 2.659,3.413 2.592,3.419C2.578,3.419 2.567,3.418 2.553,3.416C2.536,3.412 2.537,3.41 2.517,3.4L2.512,3.397C2.487,3.371 2.477,3.35 2.477,3.314C2.479,3.301 2.482,3.289 2.488,3.276C2.494,3.265 2.493,3.265 2.5,3.255C2.58,3.142 2.672,3.037 2.76,2.93C2.896,2.769 3.033,2.609 3.174,2.451C3.346,2.258 3.522,2.072 3.732,1.919C3.879,1.811 4.036,1.725 4.204,1.654L4.212,1.651C4.087,1.577 3.955,1.514 3.815,1.474C3.706,1.444 3.596,1.433 3.483,1.43C3.317,1.426 3.144,1.44 2.993,1.514C2.898,1.561 2.812,1.624 2.732,1.692C2.604,1.801 2.489,1.925 2.381,2.053C2.077,2.415 1.821,2.817 1.595,3.232C1.489,3.426 1.389,3.624 1.295,3.825C1.186,4.061 1.084,4.3 0.992,4.543C0.889,4.812 0.8,5.085 0.725,5.362C0.705,5.437 0.686,5.511 0.668,5.586C0.659,5.625 0.635,5.7 0.634,5.74C0.636,5.76 0.643,5.777 0.65,5.795C0.675,5.851 0.708,5.902 0.742,5.952C0.824,6.07 0.923,6.198 1.069,6.234L1.071,6.234C1.088,6.176 1.101,6.117 1.117,6.059C1.144,5.973 1.174,5.889 1.206,5.805C1.214,5.788 1.223,5.775 1.235,5.76C1.247,5.748 1.248,5.75 1.267,5.738C1.279,5.734 1.279,5.735 1.295,5.731C1.311,5.732 1.311,5.731 1.323,5.733ZM17.375,5.196C17.4,5.199 17.423,5.203 17.446,5.212C17.575,5.263 17.609,5.412 17.615,5.536C17.617,5.564 17.617,5.607 17.616,5.635C17.614,5.659 17.608,5.716 17.605,5.74C17.601,5.775 17.596,5.81 17.59,5.845C17.581,5.9 17.571,5.955 17.559,6.009C17.519,6.189 17.467,6.37 17.398,6.541C17.347,6.667 17.28,6.789 17.211,6.906C17.09,7.112 16.95,7.307 16.793,7.488C16.73,7.56 16.665,7.63 16.594,7.695C16.551,7.734 16.506,7.771 16.457,7.801C16.423,7.823 16.387,7.842 16.348,7.854C16.323,7.861 16.297,7.867 16.272,7.866C16.257,7.866 16.242,7.864 16.228,7.859C16.22,7.856 16.207,7.851 16.199,7.845C16.117,7.788 16.125,7.679 16.14,7.592C16.145,7.568 16.15,7.545 16.156,7.522C16.163,7.494 16.169,7.472 16.177,7.444C16.192,7.394 16.2,7.368 16.216,7.318C16.231,7.273 16.246,7.229 16.263,7.184C16.289,7.113 16.317,7.042 16.346,6.972C16.441,6.744 16.543,6.519 16.653,6.297C16.831,5.933 17.025,5.579 17.244,5.238L17.27,5.213L17.303,5.2C17.327,5.197 17.351,5.195 17.375,5.196ZM31.57,0.233C31.304,0.239 31.038,0.273 30.781,0.343C30.292,0.478 29.845,0.735 29.444,1.042C29.094,1.311 28.772,1.625 28.561,2.018C28.514,2.104 28.473,2.194 28.439,2.286C28.412,2.358 28.389,2.432 28.37,2.507C28.351,2.582 28.336,2.658 28.325,2.735C28.287,3.014 28.288,3.342 28.491,3.562C28.58,3.658 28.693,3.713 28.812,3.759C28.88,3.786 28.949,3.811 29.018,3.834C29.233,3.907 29.454,3.964 29.677,4.007C29.843,4.04 30.011,4.064 30.178,4.095C30.305,4.12 30.305,4.12 30.431,4.147C30.536,4.171 30.566,4.177 30.67,4.204C30.862,4.253 31.081,4.297 31.209,4.464C31.229,4.491 31.246,4.52 31.26,4.55C31.277,4.589 31.289,4.63 31.296,4.671C31.306,4.734 31.304,4.797 31.296,4.861L31.292,4.889C31.284,4.932 31.271,4.973 31.222,4.984C31.212,4.986 31.2,4.985 31.19,4.985C31.032,4.96 31.032,4.96 30.873,4.936C30.613,4.903 30.352,4.874 30.09,4.858C29.627,4.83 29.163,4.835 28.702,4.873C28.214,4.912 27.725,4.996 27.257,5.141C26.93,5.242 26.597,5.381 26.336,5.609C26.293,5.646 26.252,5.687 26.214,5.73C26.195,5.752 26.163,5.792 26.146,5.815C26.021,5.981 25.89,6.211 25.984,6.42C25.996,6.448 26.012,6.474 26.03,6.498C26.141,6.649 26.327,6.735 26.495,6.806C26.901,6.977 27.347,7.042 27.785,7.056C28.124,7.068 28.464,7.049 28.8,7.013C29.304,6.958 29.811,6.855 30.281,6.66C30.626,6.518 30.952,6.322 31.235,6.078C31.451,5.893 31.638,5.679 31.801,5.447L31.823,5.425C31.851,5.413 31.851,5.413 31.882,5.411C31.953,5.421 32.024,5.433 32.095,5.447C32.267,5.483 32.436,5.527 32.607,5.568L32.688,5.588C32.662,5.541 32.63,5.499 32.59,5.463C32.547,5.425 32.497,5.395 32.449,5.366C32.316,5.285 32.174,5.226 32.027,5.179L32,5.164C31.993,5.156 31.984,5.15 31.979,5.141C31.965,5.116 31.969,5.107 31.97,5.08C31.98,5.032 31.989,4.984 31.997,4.935C32.008,4.85 32.015,4.766 32.009,4.681C32.006,4.622 31.996,4.563 31.979,4.506C31.967,4.466 31.951,4.426 31.931,4.389C31.874,4.285 31.784,4.206 31.68,4.151C31.623,4.121 31.562,4.099 31.501,4.078C31.422,4.051 31.342,4.025 31.262,4.001C31.015,3.926 30.762,3.866 30.508,3.821C30.333,3.79 30.157,3.768 29.982,3.742C29.856,3.72 29.856,3.72 29.731,3.697C29.626,3.674 29.596,3.669 29.492,3.644C29.454,3.634 29.415,3.624 29.377,3.614C29.195,3.565 28.995,3.5 28.899,3.323C28.884,3.296 28.872,3.267 28.863,3.236C28.85,3.19 28.846,3.142 28.847,3.094C28.85,3.017 28.867,2.94 28.889,2.867C28.917,2.777 28.956,2.691 29.003,2.61C29.077,2.48 29.17,2.363 29.271,2.253C29.638,1.85 30.078,1.511 30.55,1.24C30.903,1.038 31.284,0.869 31.681,0.774C31.739,0.76 31.798,0.748 31.857,0.738C31.912,0.729 31.967,0.722 32.023,0.717C32.076,0.713 32.129,0.71 32.182,0.711C32.39,0.716 32.641,0.785 32.737,0.989C32.752,1.021 32.763,1.054 32.77,1.088C32.782,1.147 32.782,1.208 32.773,1.268C32.761,1.348 32.733,1.425 32.698,1.498C32.647,1.607 32.579,1.707 32.505,1.8C32.4,1.932 32.28,2.051 32.154,2.163C32.084,2.225 32.011,2.283 31.945,2.348C31.917,2.377 31.891,2.406 31.866,2.437C31.836,2.478 31.808,2.52 31.788,2.567C31.746,2.66 31.738,2.762 31.766,2.86C31.785,2.923 31.816,2.981 31.847,3.038C31.879,3.095 31.912,3.151 31.958,3.197L31.966,3.204C32.066,3.081 32.159,2.95 32.254,2.823C32.386,2.654 32.527,2.492 32.658,2.322C32.696,2.27 32.734,2.218 32.769,2.163C32.811,2.097 32.851,2.03 32.888,1.96C33.046,1.663 33.154,1.292 33.019,0.967C32.993,0.904 32.959,0.845 32.919,0.791C32.856,0.705 32.779,0.631 32.695,0.567C32.593,0.487 32.48,0.422 32.361,0.372C32.182,0.297 31.994,0.259 31.802,0.241C31.725,0.235 31.648,0.233 31.57,0.233ZM29.749,5.232C30.181,5.241 30.61,5.272 31.039,5.316C31.05,5.317 31.061,5.318 31.071,5.321C31.096,5.332 31.108,5.341 31.124,5.363L31.125,5.365C31.128,5.373 31.132,5.381 31.134,5.389C31.14,5.415 31.133,5.423 31.126,5.449C31.121,5.458 31.12,5.457 31.113,5.467C31.113,5.468 31.115,5.465 31.115,5.466C31.08,5.523 31.079,5.522 31.042,5.578C30.919,5.749 30.78,5.905 30.615,6.037C30.412,6.201 30.177,6.325 29.939,6.432C29.479,6.638 28.986,6.754 28.486,6.809C28.271,6.832 28.054,6.843 27.838,6.841C27.57,6.838 27.303,6.813 27.039,6.769C26.891,6.744 26.744,6.714 26.603,6.666C26.565,6.653 26.527,6.638 26.49,6.622C26.363,6.566 26.211,6.474 26.187,6.324C26.183,6.3 26.182,6.276 26.184,6.252C26.186,6.224 26.194,6.195 26.204,6.169C26.221,6.124 26.247,6.083 26.277,6.045C26.32,5.991 26.37,5.944 26.423,5.901C26.643,5.721 26.903,5.606 27.172,5.522C27.388,5.455 27.609,5.407 27.831,5.368C28.276,5.291 28.725,5.254 29.176,5.238C29.367,5.234 29.558,5.232 29.749,5.232ZM4.473,4.693C4.503,4.71 4.525,4.727 4.53,4.764C4.531,4.774 4.528,4.785 4.528,4.795C4.517,4.836 4.505,4.875 4.492,4.915C4.399,5.162 4.239,5.37 4.048,5.551C3.738,5.844 3.348,6.058 2.935,6.166C2.72,6.222 2.498,6.247 2.276,6.216C2.205,6.206 2.132,6.191 2.063,6.167C2.002,6.145 1.945,6.114 1.894,6.075C1.85,6.041 1.807,6.002 1.778,5.953C1.678,5.787 1.753,5.569 1.861,5.427C1.959,5.299 2.095,5.209 2.236,5.136C2.335,5.085 2.436,5.041 2.54,5.003C2.765,4.919 2.998,4.86 3.234,4.817C3.633,4.742 4.037,4.706 4.442,4.689C4.452,4.69 4.463,4.692 4.473,4.693ZM36.847,3.646C36.865,3.652 36.865,3.652 36.882,3.663C36.891,3.671 36.898,3.683 36.905,3.692C36.917,3.716 36.917,3.74 36.914,3.765C36.902,3.826 36.876,3.891 36.858,3.946C36.83,4.038 36.801,4.128 36.776,4.22C36.729,4.416 36.701,4.619 36.711,4.82C36.716,4.912 36.725,5.007 36.756,5.095C36.774,5.146 36.801,5.195 36.836,5.237C36.879,5.289 36.937,5.336 36.998,5.365C37.179,5.449 37.392,5.349 37.523,5.22C37.613,5.121 37.699,5.019 37.785,4.917C37.917,4.757 38.048,4.597 38.182,4.439L38.192,4.426L38.219,4.404L38.252,4.394L38.287,4.399L38.316,4.417L38.336,4.446L38.343,4.48C38.342,4.547 38.342,4.547 38.344,4.614C38.348,4.677 38.348,4.676 38.355,4.738C38.376,4.868 38.408,4.996 38.473,5.111C38.503,5.162 38.539,5.21 38.583,5.251C38.616,5.282 38.653,5.308 38.693,5.33C38.976,5.482 39.313,5.387 39.574,5.235C39.634,5.2 39.69,5.161 39.743,5.118C39.808,5.064 39.867,5.004 39.922,4.94L39.949,4.92L39.982,4.911L40.015,4.916C40.05,4.929 40.083,4.94 40.119,4.949C40.151,4.956 40.184,4.961 40.217,4.963C40.343,4.968 40.461,4.934 40.569,4.871C40.633,4.833 40.692,4.787 40.75,4.742C40.842,4.669 40.929,4.592 41.013,4.511L41.04,4.493C41.051,4.491 41.061,4.487 41.072,4.487C41.105,4.487 41.136,4.507 41.15,4.537C41.154,4.547 41.155,4.558 41.157,4.569C41.159,4.623 41.159,4.622 41.163,4.677C41.178,4.815 41.207,4.952 41.27,5.077C41.297,5.131 41.331,5.182 41.373,5.227C41.404,5.26 41.44,5.289 41.478,5.312C41.518,5.338 41.562,5.356 41.607,5.371C41.871,5.461 42.157,5.37 42.389,5.235C42.448,5.2 42.505,5.161 42.558,5.118C42.623,5.064 42.682,5.004 42.737,4.94L42.764,4.92L42.797,4.911L42.83,4.916C42.864,4.929 42.898,4.94 42.933,4.949C42.966,4.956 42.999,4.961 43.032,4.963C43.157,4.968 43.275,4.934 43.384,4.871C43.432,4.843 43.477,4.809 43.521,4.775C43.61,4.707 43.695,4.635 43.778,4.559L43.823,4.516L43.866,4.472L43.893,4.454C43.904,4.451 43.914,4.447 43.925,4.447C43.958,4.446 43.99,4.466 44.004,4.496C44.008,4.506 44.009,4.517 44.011,4.527C44.015,4.597 44.012,4.666 44.016,4.735C44.022,4.816 44.036,4.894 44.06,4.972C44.1,5.103 44.164,5.232 44.282,5.309C44.358,5.358 44.454,5.39 44.543,5.364C44.585,5.351 44.621,5.327 44.657,5.301C44.716,5.259 44.77,5.212 44.823,5.162C44.974,5.007 45.116,4.842 45.261,4.681C45.377,4.551 45.494,4.42 45.612,4.292C45.694,4.206 45.693,4.206 45.776,4.122C45.867,4.032 45.959,3.943 46.058,3.862C46.195,3.75 46.343,3.65 46.493,3.557C46.483,3.544 46.472,3.533 46.459,3.523C46.447,3.514 46.435,3.508 46.421,3.503C46.407,3.501 46.394,3.5 46.38,3.501C46.265,3.522 46.163,3.589 46.074,3.662C45.894,3.809 45.75,3.989 45.596,4.162C45.496,4.271 45.393,4.376 45.294,4.484C45.191,4.597 45.091,4.712 44.984,4.82C44.933,4.87 44.88,4.917 44.82,4.957C44.788,4.978 44.755,4.996 44.719,5.009C44.698,5.016 44.676,5.021 44.654,5.022C44.64,5.023 44.625,5.022 44.611,5.019C44.493,4.996 44.454,4.855 44.443,4.752C44.432,4.643 44.441,4.535 44.456,4.427C44.471,4.315 44.495,4.204 44.526,4.094C44.539,4.049 44.552,4.004 44.568,3.96C44.581,3.922 44.595,3.882 44.622,3.851C44.667,3.807 44.71,3.762 44.754,3.716C45.133,3.305 45.496,2.877 45.841,2.437C46.114,2.088 46.383,1.735 46.622,1.363C46.699,1.242 46.774,1.118 46.835,0.988C46.869,0.916 46.902,0.839 46.912,0.759C46.93,0.616 46.866,0.487 46.768,0.386C46.668,0.284 46.542,0.207 46.396,0.208C46.359,0.209 46.322,0.213 46.286,0.222C46.174,0.248 46.069,0.306 45.974,0.371C45.789,0.497 45.634,0.664 45.497,0.84C45.127,1.32 44.839,1.862 44.598,2.416C44.37,2.94 44.179,3.487 44.062,4.048L44.056,4.067C44.011,4.139 43.947,4.209 43.892,4.274C43.839,4.337 43.785,4.4 43.726,4.457C43.668,4.513 43.606,4.565 43.542,4.614C43.478,4.663 43.414,4.714 43.34,4.749C43.254,4.789 43.156,4.804 43.064,4.776C43.018,4.762 42.967,4.739 42.964,4.683C42.964,4.673 42.965,4.662 42.968,4.652C42.971,4.643 42.978,4.634 42.983,4.625C43.021,4.579 43.057,4.531 43.092,4.483C43.242,4.269 43.359,4.037 43.455,3.794C43.524,3.619 43.582,3.438 43.622,3.254C43.645,3.151 43.663,3.032 43.637,2.927C43.627,2.884 43.607,2.843 43.586,2.804C43.43,2.515 43.086,2.413 42.777,2.408C42.707,2.407 42.636,2.409 42.566,2.42C42.478,2.434 42.391,2.46 42.31,2.496C42.106,2.586 41.933,2.736 41.786,2.901C41.482,3.242 41.269,3.671 41.189,4.121L41.183,4.141C41.146,4.2 41.095,4.253 41.051,4.306C40.952,4.42 40.847,4.522 40.727,4.614C40.655,4.669 40.583,4.727 40.498,4.76C40.41,4.796 40.312,4.802 40.223,4.767C40.175,4.748 40.135,4.708 40.154,4.652C40.157,4.643 40.163,4.634 40.168,4.625C40.206,4.579 40.243,4.531 40.278,4.483C40.427,4.269 40.544,4.037 40.64,3.794C40.709,3.619 40.767,3.438 40.807,3.254C40.83,3.151 40.849,3.032 40.823,2.927C40.812,2.884 40.793,2.843 40.772,2.804C40.616,2.515 40.272,2.413 39.963,2.408C39.892,2.407 39.821,2.409 39.751,2.42C39.663,2.434 39.577,2.46 39.495,2.496C39.291,2.586 39.118,2.736 38.972,2.901C38.672,3.237 38.46,3.658 38.378,4.1L38.37,4.124L38.355,4.145C38.269,4.231 38.184,4.317 38.101,4.405C38.012,4.499 37.926,4.595 37.835,4.685C37.798,4.72 37.761,4.754 37.72,4.784C37.71,4.791 37.7,4.796 37.689,4.801C37.656,4.813 37.623,4.824 37.588,4.827C37.566,4.829 37.543,4.827 37.522,4.822C37.509,4.818 37.495,4.813 37.484,4.805C37.38,4.74 37.403,4.596 37.424,4.495C37.428,4.476 37.432,4.457 37.437,4.438C37.448,4.397 37.461,4.355 37.475,4.315C37.563,4.062 37.692,3.822 37.842,3.6C37.962,3.421 38.096,3.249 38.263,3.111L38.268,3.106C38.137,2.931 37.962,2.792 37.748,2.739C37.699,2.727 37.645,2.714 37.595,2.715C37.58,2.717 37.568,2.721 37.554,2.726C37.443,2.778 37.35,2.864 37.261,2.947C37.128,3.074 36.999,3.207 36.869,3.337C36.825,3.381 36.781,3.424 36.738,3.467C36.694,3.51 36.642,3.567 36.59,3.609C36.57,3.623 36.549,3.633 36.523,3.633C36.503,3.631 36.504,3.631 36.484,3.624C36.467,3.615 36.462,3.608 36.45,3.593C36.441,3.578 36.439,3.569 36.436,3.553C36.433,3.51 36.452,3.468 36.468,3.43C36.509,3.341 36.552,3.253 36.596,3.165C36.671,3.017 36.746,2.869 36.826,2.723C37.078,2.265 37.362,1.821 37.68,1.406C37.767,1.293 37.857,1.182 37.949,1.073C38.132,0.855 38.337,0.655 38.592,0.523L38.609,0.515C38.531,0.424 38.43,0.354 38.327,0.294C38.267,0.258 38.205,0.224 38.14,0.198C38.043,0.161 37.937,0.141 37.844,0.196C37.806,0.225 37.771,0.257 37.735,0.289C37.458,0.553 37.234,0.867 37.032,1.191C36.926,1.361 36.822,1.533 36.722,1.708C36.324,2.405 35.979,3.133 35.682,3.879L35.661,3.909C35.404,4.151 35.159,4.404 34.887,4.629C34.797,4.703 34.707,4.777 34.611,4.843C34.54,4.893 34.467,4.939 34.392,4.982C34.345,5.009 34.297,5.034 34.248,5.057C34.201,5.079 34.153,5.099 34.103,5.116C34.039,5.139 33.972,5.159 33.904,5.168C33.747,5.189 33.565,5.155 33.46,5.027C33.439,5.001 33.424,4.971 33.411,4.941C33.394,4.898 33.386,4.85 33.385,4.803C33.381,4.72 33.397,4.637 33.411,4.556C33.436,4.41 33.476,4.273 33.537,4.138C33.638,3.916 33.764,3.704 33.911,3.51C34.05,3.327 34.212,3.163 34.395,3.024C34.496,2.948 34.601,2.878 34.716,2.827C34.736,2.819 34.756,2.811 34.776,2.804C34.796,2.797 34.815,2.791 34.835,2.785C34.928,2.761 35.065,2.745 35.11,2.856C35.117,2.874 35.12,2.894 35.119,2.914C35.119,2.939 35.113,2.964 35.105,2.988C35.084,3.045 35.05,3.098 35.018,3.149C34.977,3.215 34.927,3.276 34.878,3.336C34.858,3.36 34.835,3.382 34.818,3.408C34.809,3.423 34.802,3.438 34.797,3.455C34.776,3.563 34.884,3.646 34.953,3.709C34.973,3.666 34.995,3.624 35.017,3.582C35.06,3.503 35.109,3.428 35.156,3.351C35.181,3.31 35.179,3.309 35.206,3.268C35.247,3.204 35.302,3.149 35.341,3.084C35.35,3.066 35.357,3.048 35.362,3.028C35.378,2.947 35.35,2.874 35.307,2.805C35.241,2.697 35.147,2.604 35.04,2.536C34.998,2.51 34.954,2.487 34.908,2.469C34.595,2.346 34.232,2.441 33.956,2.612C33.902,2.645 33.85,2.682 33.8,2.722C33.729,2.779 33.661,2.841 33.598,2.907C33.486,3.025 33.388,3.157 33.3,3.294C33.065,3.661 32.881,4.096 32.906,4.54C32.92,4.79 32.991,5.06 33.198,5.219C33.24,5.251 33.285,5.277 33.332,5.298C33.393,5.326 33.457,5.345 33.522,5.355C33.597,5.367 33.673,5.367 33.748,5.358C33.892,5.341 34.028,5.29 34.157,5.227C34.294,5.16 34.425,5.081 34.548,4.991C34.704,4.877 34.859,4.761 35.006,4.636C35.122,4.537 35.233,4.432 35.344,4.326L35.371,4.309C35.381,4.307 35.392,4.303 35.402,4.303C35.447,4.303 35.485,4.339 35.487,4.383C35.488,4.394 35.484,4.404 35.483,4.415C35.448,4.519 35.414,4.623 35.382,4.728C35.359,4.811 35.336,4.894 35.318,4.978C35.297,5.075 35.263,5.194 35.323,5.284C35.336,5.302 35.351,5.318 35.367,5.332C35.395,5.356 35.424,5.377 35.453,5.397C35.487,5.42 35.521,5.44 35.557,5.459L35.59,5.475C35.631,5.389 35.674,5.304 35.717,5.219C35.781,5.097 35.846,4.976 35.913,4.855C36.146,4.441 36.386,4.025 36.73,3.691C36.745,3.678 36.759,3.666 36.776,3.656C36.792,3.648 36.792,3.649 36.81,3.644C36.822,3.642 36.835,3.643 36.847,3.646ZM3.136,3.73C3.344,3.734 3.557,3.736 3.761,3.781C3.829,3.797 3.896,3.821 3.96,3.847C4.062,3.887 4.159,3.936 4.251,3.995C4.396,4.088 4.558,4.234 4.549,4.423L4.534,4.454L4.507,4.477L4.474,4.486C4.35,4.496 4.227,4.507 4.103,4.519C3.938,4.537 3.773,4.557 3.609,4.58C3.198,4.643 2.79,4.729 2.399,4.871C2.228,4.933 2.058,5.002 1.9,5.094C1.815,5.144 1.733,5.2 1.658,5.265C1.629,5.291 1.601,5.317 1.574,5.346C1.557,5.363 1.542,5.381 1.523,5.396L1.511,5.404C1.496,5.412 1.495,5.409 1.472,5.416L1.469,5.416L1.433,5.411L1.403,5.391L1.401,5.389L1.385,5.368C1.377,5.343 1.374,5.325 1.378,5.299C1.392,5.239 1.412,5.181 1.431,5.122C1.49,4.949 1.56,4.78 1.642,4.616C1.761,4.379 1.899,4.151 2.033,3.921L2.069,3.862C2.089,3.839 2.089,3.839 2.116,3.825C2.155,3.813 2.194,3.803 2.234,3.793C2.437,3.751 2.643,3.74 2.85,3.732C2.994,3.73 2.993,3.73 3.136,3.73ZM30.979,5.363L30.978,5.366C30.979,5.365 30.98,5.362 30.979,5.363ZM7.379,3.362C7.405,3.369 7.42,3.382 7.439,3.398L7.442,3.402C7.447,3.409 7.453,3.415 7.456,3.423C7.466,3.445 7.463,3.456 7.462,3.479C7.453,3.5 7.455,3.5 7.449,3.529C7.439,3.576 7.43,3.623 7.422,3.67C7.405,3.771 7.39,3.873 7.386,3.975C7.382,4.074 7.389,4.173 7.406,4.271C7.429,4.408 7.473,4.543 7.562,4.651C7.589,4.683 7.618,4.711 7.65,4.738L7.669,4.761C7.679,4.789 7.679,4.789 7.679,4.819C7.67,4.841 7.671,4.841 7.659,4.861C7.625,4.912 7.578,4.953 7.531,4.992C7.438,5.068 7.332,5.118 7.214,5.141C7.145,5.155 7.074,5.151 7.009,5.119C6.971,5.101 6.94,5.074 6.911,5.044C6.887,5.02 6.868,4.993 6.854,4.962C6.833,4.918 6.823,4.87 6.816,4.823C6.807,4.752 6.808,4.679 6.812,4.608C6.825,4.382 6.888,4.17 6.969,3.959C7.048,3.756 7.14,3.56 7.284,3.394L7.297,3.382C7.311,3.371 7.312,3.374 7.333,3.364C7.349,3.36 7.362,3.36 7.379,3.362ZM42.322,3.362C42.348,3.369 42.363,3.382 42.382,3.398L42.385,3.402C42.39,3.409 42.395,3.415 42.399,3.423C42.409,3.445 42.406,3.456 42.405,3.479C42.396,3.5 42.398,3.5 42.392,3.529C42.382,3.576 42.373,3.623 42.365,3.67C42.348,3.771 42.333,3.873 42.329,3.975C42.325,4.074 42.332,4.173 42.349,4.271C42.372,4.408 42.416,4.543 42.505,4.651C42.531,4.683 42.561,4.711 42.593,4.738L42.612,4.761C42.622,4.789 42.622,4.789 42.622,4.819C42.613,4.841 42.614,4.841 42.602,4.861C42.568,4.912 42.521,4.953 42.474,4.992C42.381,5.068 42.275,5.118 42.157,5.141C42.087,5.155 42.017,5.151 41.952,5.119C41.914,5.101 41.883,5.074 41.854,5.044C41.83,5.02 41.811,4.993 41.796,4.962C41.776,4.918 41.765,4.87 41.759,4.823C41.75,4.752 41.751,4.679 41.755,4.608C41.768,4.382 41.831,4.17 41.912,3.959C41.991,3.756 42.083,3.56 42.227,3.394L42.24,3.382C42.254,3.371 42.255,3.374 42.275,3.364C42.292,3.36 42.305,3.36 42.322,3.362ZM39.507,3.362C39.533,3.369 39.548,3.382 39.567,3.398L39.571,3.402C39.575,3.409 39.581,3.415 39.584,3.423C39.594,3.445 39.591,3.456 39.59,3.479C39.582,3.5 39.584,3.5 39.577,3.529C39.567,3.576 39.558,3.623 39.55,3.67C39.534,3.771 39.518,3.873 39.514,3.975C39.51,4.074 39.518,4.173 39.534,4.271C39.557,4.408 39.601,4.543 39.69,4.651C39.717,4.683 39.747,4.711 39.778,4.738L39.798,4.761C39.807,4.789 39.807,4.789 39.807,4.819C39.799,4.841 39.8,4.841 39.788,4.861C39.753,4.912 39.707,4.953 39.659,4.992C39.566,5.068 39.46,5.118 39.342,5.141C39.273,5.155 39.202,5.151 39.137,5.119C39.099,5.101 39.069,5.074 39.039,5.044C39.016,5.02 38.996,4.993 38.982,4.962C38.932,4.854 38.933,4.724 38.94,4.608C38.953,4.382 39.017,4.17 39.098,3.959C39.122,3.896 39.146,3.834 39.175,3.773C39.215,3.684 39.26,3.594 39.318,3.515C39.323,3.508 39.33,3.503 39.336,3.495C39.341,3.488 39.343,3.479 39.348,3.472C39.362,3.452 39.395,3.413 39.411,3.395C39.417,3.389 39.423,3.382 39.43,3.378C39.44,3.373 39.451,3.369 39.461,3.364C39.478,3.36 39.49,3.36 39.507,3.362ZM17.402,3.117C17.429,3.123 17.429,3.123 17.452,3.136C17.509,3.169 17.489,3.251 17.472,3.299C17.439,3.381 17.391,3.465 17.351,3.543C17.229,3.767 17.099,3.985 16.951,4.193C16.751,4.471 16.508,4.717 16.247,4.939C16.225,4.955 16.203,4.969 16.178,4.981C16.152,4.991 16.124,4.997 16.096,4.997C15.974,4.996 15.882,4.882 15.877,4.767C15.874,4.692 15.896,4.619 15.922,4.551C15.957,4.461 16.001,4.376 16.051,4.295C16.159,4.118 16.294,3.959 16.438,3.81C16.703,3.538 17.003,3.312 17.337,3.131C17.351,3.125 17.362,3.122 17.377,3.118C17.385,3.117 17.394,3.117 17.402,3.117ZM8.327,2.97C8.345,2.971 8.362,2.974 8.379,2.981C8.5,3.03 8.493,3.18 8.474,3.287C8.471,3.304 8.468,3.321 8.464,3.338C8.461,3.356 8.457,3.374 8.453,3.392C8.398,3.628 8.303,3.855 8.201,4.073C8.116,4.255 8.025,4.439 7.905,4.6L7.886,4.621C7.866,4.638 7.862,4.645 7.835,4.65C7.786,4.657 7.739,4.617 7.707,4.586C7.622,4.505 7.589,4.389 7.588,4.275C7.587,4.062 7.654,3.852 7.736,3.658C7.79,3.529 7.854,3.406 7.932,3.29C7.961,3.248 7.982,3.219 8.014,3.179C8.082,3.091 8.168,2.999 8.28,2.973C8.296,2.97 8.311,2.969 8.327,2.97ZM43.27,2.97C43.288,2.971 43.305,2.974 43.322,2.981C43.443,3.03 43.436,3.18 43.417,3.287C43.414,3.304 43.411,3.321 43.407,3.338C43.404,3.356 43.4,3.374 43.396,3.392C43.341,3.628 43.246,3.855 43.144,4.073C43.059,4.255 42.968,4.439 42.847,4.6L42.829,4.621C42.809,4.638 42.804,4.645 42.777,4.65C42.729,4.657 42.682,4.617 42.65,4.586C42.565,4.505 42.532,4.389 42.531,4.275C42.53,4.062 42.597,3.852 42.679,3.658C42.733,3.529 42.796,3.406 42.875,3.29C42.904,3.248 42.925,3.219 42.957,3.179C43.025,3.091 43.111,2.999 43.223,2.973C43.239,2.97 43.254,2.969 43.27,2.97ZM40.456,2.97C40.473,2.971 40.491,2.974 40.507,2.981C40.629,3.03 40.621,3.18 40.602,3.287C40.599,3.304 40.596,3.321 40.593,3.338C40.589,3.356 40.585,3.374 40.581,3.392C40.526,3.628 40.431,3.855 40.329,4.073C40.244,4.255 40.153,4.439 40.033,4.6L40.014,4.621C39.994,4.638 39.99,4.645 39.963,4.65C39.915,4.657 39.867,4.617 39.835,4.586C39.75,4.505 39.717,4.389 39.717,4.275C39.715,4.062 39.782,3.852 39.864,3.658C39.919,3.529 39.982,3.406 40.06,3.29C40.089,3.248 40.111,3.219 40.142,3.179C40.21,3.091 40.296,2.999 40.408,2.973C40.424,2.97 40.44,2.969 40.456,2.97ZM23.814,2.71C23.848,2.713 23.885,2.718 23.915,2.735C24.009,2.791 24.053,2.921 24.042,3.026C24.035,3.087 24.012,3.146 23.981,3.2C23.917,3.311 23.821,3.406 23.726,3.491C23.537,3.662 23.312,3.807 23.081,3.916C23.051,3.93 23.019,3.944 22.987,3.956C22.927,3.98 22.867,3.997 22.802,4.005C22.761,4.01 22.731,4.008 22.693,3.991C22.681,3.985 22.673,3.974 22.664,3.964C22.655,3.951 22.656,3.951 22.648,3.931C22.641,3.901 22.647,3.874 22.658,3.846C22.689,3.783 22.712,3.715 22.742,3.651C22.87,3.384 23.038,3.124 23.271,2.936C23.397,2.834 23.542,2.752 23.701,2.718C23.74,2.712 23.775,2.709 23.814,2.71ZM39.331,3.52L39.331,3.521C39.331,3.521 39.331,3.52 39.331,3.52ZM46.602,0.645C46.621,0.647 46.64,0.651 46.659,0.66C46.671,0.666 46.683,0.673 46.693,0.682C46.776,0.758 46.721,0.885 46.683,0.968C46.674,0.987 46.66,1.018 46.65,1.037C46.636,1.062 46.623,1.088 46.609,1.113C46.593,1.141 46.577,1.17 46.56,1.198C46.527,1.254 46.483,1.326 46.449,1.381C46.162,1.84 45.842,2.278 45.511,2.706C45.409,2.837 45.305,2.968 45.197,3.095C45.161,3.137 45.125,3.179 45.088,3.221C45.059,3.254 45.03,3.291 44.995,3.319C44.986,3.325 44.986,3.325 44.976,3.33C44.963,3.336 44.963,3.334 44.941,3.339L44.938,3.34C44.91,3.336 44.91,3.336 44.885,3.323L44.883,3.322C44.865,3.305 44.865,3.305 44.853,3.283C44.834,3.246 44.856,3.19 44.869,3.155C44.875,3.137 44.882,3.119 44.889,3.101C44.954,2.94 45.035,2.786 45.116,2.633C45.268,2.347 45.432,2.067 45.605,1.792C45.757,1.552 45.914,1.315 46.087,1.088C46.109,1.059 46.131,1.031 46.153,1.002C46.221,0.916 46.291,0.829 46.373,0.755C46.431,0.702 46.497,0.654 46.577,0.645C46.585,0.645 46.593,0.645 46.602,0.645ZM15.25,2.031C14.99,2.06 14.789,2.302 14.756,2.553C14.739,2.684 14.766,2.839 14.878,2.923C14.902,2.941 14.93,2.957 14.958,2.967C14.986,2.978 15.014,2.984 15.043,2.985C15.12,2.988 15.197,2.961 15.263,2.924C15.358,2.869 15.43,2.786 15.485,2.693C15.531,2.614 15.564,2.529 15.573,2.438C15.586,2.299 15.547,2.143 15.42,2.069C15.395,2.053 15.367,2.044 15.339,2.036C15.309,2.031 15.28,2.029 15.25,2.031ZM38.689,0.481L38.688,0.482C38.689,0.482 38.691,0.481 38.689,0.481Z" style="fill:white;"/>
        </g>
    </g>
</svg>
