<?xml version="1.0" encoding="UTF-8" standalone="no"?>
<!DOCTYPE svg PUBLIC "-//W3C//DTD SVG 1.1//EN" "http://www.w3.org/Graphics/SVG/1.1/DTD/svg11.dtd">
<svg width="100%" height="100%" viewBox="0 0 140 140" version="1.1" xmlns="http://www.w3.org/2000/svg" xmlns:xlink="http://www.w3.org/1999/xlink" xml:space="preserve" style="fill-rule:evenodd;clip-rule:evenodd;stroke-linejoin:round;stroke-miterlimit:1.41421;">
    <g transform="matrix(1,0,0,1,-1339.79,-387.106)">
        <g transform="matrix(1,0,0,1,-19.4247,-47.9947)">
            <path d="M1409.88,479.832L1408.2,479.379C1408.06,479.341 1393.98,475.476 1393.16,469.398C1395.04,469.948 1404.44,472.72 1406.89,473.751L1407.1,473.343C1406.96,473.257 1393.25,464.858 1392.79,458.924C1394.36,459.627 1401.16,462.772 1406.69,466.703C1408.68,468.404 1410.13,469.438 1410.15,469.449L1410.43,469.091C1409.44,468.196 1408.27,467.266 1406.95,466.33C1402.6,462.596 1395.28,455.325 1394.52,447.995C1396.71,450.419 1406.44,460.771 1414.84,463.596C1415.59,463.848 1416.29,464.077 1416.94,464.292C1424.58,466.804 1425.95,467.256 1425.47,476.2C1424.92,486.403 1431.54,491.997 1434.02,492.882L1435.01,493.235L1434.26,492.5C1434.22,492.467 1430.86,489.113 1432.32,483.349L1432.75,481.653L1431.9,483.18C1431.83,483.296 1430.61,485.526 1430.7,487.642C1429.95,485.892 1429.22,482.309 1431.86,476.849L1431.47,476.618C1431.38,476.744 1429.69,479.241 1428.86,481.525C1428.87,479.593 1429.38,475.814 1432.54,471.868L1433.53,470.621L1432.22,471.538C1432.11,471.614 1429.86,473.204 1428.34,475.048C1428.8,472.811 1430.49,467.129 1435.94,465.197L1437.56,464.624L1435.84,464.749C1435.71,464.761 1432.84,464.98 1431.02,465.618C1431.65,464.505 1433.72,461.916 1439.48,461.916C1440.26,461.916 1441.09,461.964 1441.96,462.058L1442.63,462.131L1442.14,461.661C1442.07,461.6 1440.58,460.226 1437.07,460.091C1437.83,459.747 1439.14,459.309 1440.9,459.309C1443.2,459.309 1445.63,460.034 1448.13,461.462L1449.26,462.106L1448.43,461.115C1448.34,461.013 1446.58,458.955 1443.82,457.906C1445.64,458.059 1448.78,458.822 1452.9,461.719L1453.74,462.309L1453.23,461.417C1453.16,461.305 1451.8,458.955 1448.84,457.616C1450.5,457.769 1453.72,458.651 1457.13,462.751L1457.51,463.196L1457.54,462.617C1457.55,462.541 1457.61,461.055 1456.14,459.308C1458.09,460.483 1461.52,463.077 1462.38,467.169L1462.42,467.378L1462.63,467.35C1462.64,467.349 1463.04,467.295 1463.63,467.295C1464.22,467.295 1465.07,467.351 1465.85,467.608C1465.51,468.268 1464.75,469.452 1463.99,469.568L1462.05,469.868L1464.01,470.025C1464.21,470.04 1468.78,470.469 1469.28,475.519C1468.69,474.459 1467.44,472.985 1464.97,472.424L1464.22,472.252L1464.76,472.808C1464.86,472.914 1467.11,475.3 1466.15,478.412C1465.91,477.443 1465.32,475.84 1463.92,474.944C1463.95,474.326 1464.02,471.893 1463.07,470.932L1462.56,470.423L1462.67,471.131C1462.97,473.001 1463.38,478.004 1461.7,478.664L1461.62,478.694L1461.58,478.77C1461.52,478.891 1459.97,481.848 1460.29,489.058C1460.28,489.067 1460.12,490.288 1458.72,490.09L1458.64,490.079L1458.57,490.124C1458.55,490.134 1457.02,491.095 1456.01,491.095C1455.75,491.095 1455.57,491.031 1455.44,490.899C1455.29,490.731 1455.23,490.434 1455.27,490.02C1455.46,487.738 1454.93,485.066 1454.08,484.069C1453.86,483.813 1453.63,483.673 1453.39,483.654L1453.12,483.633L1453.14,483.902C1453.29,485.806 1453.35,487.998 1453.21,488.585C1452.8,488.35 1451.77,487.741 1451.23,487.146C1450.9,486.776 1450.96,486.348 1451.15,485.415C1451.27,484.781 1451.42,483.992 1451.45,482.937C1451.49,481.845 1450.91,481.351 1450.32,480.832C1449.4,480.036 1448.36,479.135 1448.83,475.652L1449,474.373L1448.4,475.514C1448.36,475.582 1444.83,482.495 1450.87,492.03L1450.94,492.105C1451.01,492.145 1457.56,496.18 1456.71,504.037L1456.69,504.211L1456.86,504.275C1456.96,504.315 1459.38,505.244 1462.86,505.244C1463.44,505.244 1464.02,505.216 1464.59,505.166C1464.95,505.132 1465.28,505.115 1465.58,505.115C1467.65,505.115 1467.73,505.872 1467.8,506.542C1467.83,506.842 1467.86,507.124 1468.06,507.322C1468.46,507.729 1470.7,513.434 1470.65,515.895C1470.64,516.427 1470.52,516.619 1470.45,516.685C1469.68,517.41 1468.7,519.633 1467.85,521.598C1467.35,522.759 1466.87,523.852 1466.52,524.44C1466.1,525.128 1465.74,525.207 1465.02,525.364C1464.26,525.53 1463.1,525.78 1461.26,526.99C1459.71,528.017 1458.75,528.229 1458.21,528.229C1457.71,528.229 1457.46,528.045 1457.36,527.939C1457.88,526.504 1459.29,522.393 1458.89,521.667C1458.87,521.665 1458.96,521.576 1459.38,521.576C1460.15,521.576 1461.48,521.873 1462.71,522.538C1463.03,522.708 1463.34,522.796 1463.62,522.796C1465.16,522.796 1465.42,520.319 1465.43,520.211L1465.47,519.749L1465.08,519.995C1465.07,520 1464.33,520.457 1463.46,520.457C1462.49,520.457 1461.76,519.888 1461.28,518.766C1461.64,518.949 1462.13,519.129 1462.7,519.129C1463.34,519.129 1463.93,518.904 1464.48,518.46L1464.8,518.199L1464.4,518.067C1464.39,518.063 1463.62,517.793 1463.3,517.138C1463.16,516.858 1463.12,516.54 1463.19,516.19C1463.54,516.398 1464.16,516.703 1464.86,516.703C1465.75,516.703 1466.47,516.247 1467.04,515.351C1467.16,515.263 1467.44,515.02 1467.58,514.493C1467.82,513.606 1467.65,511.868 1465.55,508.626L1465.51,508.551L1465.42,508.528C1465.39,508.521 1464.79,508.361 1463.85,508.361C1462.99,508.361 1461.69,508.503 1460.33,509.179C1454.89,511.903 1452.48,512.474 1451.41,512.474C1451.07,512.474 1450.8,512.415 1450.64,512.297C1450.19,511.972 1449.81,511.409 1449.4,510.809C1448.54,509.553 1447.57,508.131 1445.52,507.964L1444.22,507.86L1445.4,508.401C1445.43,508.416 1447.96,509.61 1449.42,513.284C1449.77,514.16 1449.62,515.069 1448.99,515.992C1447.35,518.408 1442.8,520.28 1439.99,520.28L1439.86,520.277C1439.74,520.277 1439.62,520.276 1439.48,520.276C1435.77,520.276 1424.65,521.406 1421.57,525.046L1421.52,525.135C1421.44,525.43 1419.59,532.405 1420.5,534.764C1420.69,535.266 1420.66,535.741 1420.42,536.218C1419.74,537.54 1417.52,538.525 1415.66,539.004C1413.15,539.657 1406.27,545.137 1405.98,545.616C1405.61,546.235 1406.29,552.49 1407.44,553.734C1407.72,554.038 1408.23,554.4 1408.87,554.859C1410.86,556.281 1414.16,558.641 1414.49,562.176C1414.04,562.186 1412.99,562.206 1411.81,562.206C1408.49,562.206 1407.4,562.056 1407.06,561.947C1406.86,561.559 1406.01,559.664 1407.24,558.277C1407.71,557.759 1407.7,556.93 1407.24,555.881C1406.37,553.942 1404.07,551.642 1402.99,551.642C1402.88,551.642 1402.78,551.667 1402.68,551.712C1402.2,551.485 1400.21,550.489 1399.27,548.757C1399.57,548.878 1399.95,548.984 1400.4,548.984C1401.14,548.984 1401.85,548.697 1402.5,548.135L1402.89,547.796L1402.38,547.735C1402.35,547.73 1399.38,547.334 1398.4,544.895C1398.99,545.247 1400,545.689 1401.4,545.689C1401.76,545.689 1402.11,545.66 1402.47,545.605L1403.84,545.391L1402.48,545.15C1402.45,545.145 1399.89,544.679 1399.1,543.04C1398.78,542.386 1398.78,541.626 1399.1,540.767C1399.2,541.161 1399.38,541.626 1399.75,541.994C1400.42,542.688 1401.48,542.824 1402.87,542.387C1406.53,541.226 1409.35,538.263 1409.47,538.137C1409.67,538.003 1410.68,536.691 1408.01,527.044C1405.57,518.235 1406.82,516.866 1409.08,514.385C1409.35,514.09 1409.63,513.78 1409.92,513.442L1410.23,513.087L1409.76,513.062C1409.76,513.062 1409.71,513.06 1409.61,513.06C1408.83,513.06 1406.14,513.23 1404.28,515.414C1402.65,517.319 1402.14,520.218 1402.75,524.025C1403.88,531.074 1403.07,533.263 1402.5,533.942C1402.45,533.995 1402.4,534.037 1402.36,534.076C1402.76,533.297 1403.18,531.765 1402.11,529.675L1401.81,529.103L1401.68,529.731C1401.66,529.83 1399.49,539.549 1393.07,539.549C1391.37,539.549 1389.5,538.875 1387.5,537.534C1388.17,537.707 1389,537.862 1389.88,537.862C1391.72,537.862 1393.12,537.197 1394.07,535.887L1394.39,535.431L1393.85,535.524C1393.84,535.526 1393.04,535.656 1391.86,535.656C1389.5,535.656 1386.2,535.159 1383.86,532.783C1382.31,531.22 1381.41,529.04 1381.17,526.288C1381.61,527.5 1382.37,529.018 1383.59,529.878L1384.32,530.396L1383.93,529.593C1383.91,529.554 1382.13,525.813 1384.02,522.132C1385.64,518.959 1385.58,517.416 1385.15,516.39C1385.59,516.747 1386.13,517.535 1386.08,519.259L1386.06,519.825L1386.47,519.431C1386.49,519.401 1389.27,516.632 1386.8,511.868C1387.48,512.007 1388.66,512.592 1388.84,515.004L1388.89,515.737L1389.27,515.102C1389.3,515.053 1392.03,510.292 1388.6,506.371C1389.59,506.575 1391.49,507.395 1392.05,510.66L1392.11,510.977L1392.39,510.819C1392.44,510.789 1393.72,510.06 1394.14,508.326C1394.53,506.705 1394.03,504.789 1392.66,502.629C1393.25,502.751 1394.27,503.092 1395.09,504.011C1396.09,505.144 1396.51,506.822 1396.33,508.994L1396.25,509.868L1396.74,509.142C1396.78,509.086 1400.21,503.88 1395.22,499.428C1396.86,500.164 1399.46,501.708 1400.32,504.358C1401.16,506.943 1400.19,510.021 1397.44,513.506C1391.34,521.24 1392.17,524.517 1392.56,525.338C1392.88,525.981 1393.44,526.349 1394.12,526.349C1394.93,526.349 1395.81,525.816 1396.47,524.926C1397.15,524.019 1397.63,522.374 1398.19,520.471C1399.48,516.097 1401.08,510.653 1405.94,510.653C1407.33,510.653 1408.94,511.1 1410.71,511.982L1410.82,512.036L1410.92,511.98C1410.94,511.976 1412.12,511.358 1413.8,511.358C1414.86,511.358 1415.89,511.599 1416.87,512.072C1417.24,512.252 1417.71,512.344 1418.25,512.344C1422.44,512.344 1431.73,506.687 1431.81,500.639L1431.83,499.728L1431.38,500.523C1431.35,500.588 1427.96,506.626 1425.8,507.759C1425.97,506.626 1426.48,503.285 1427.19,501.195C1427.41,500.682 1427.52,500.358 1427.52,500.358L1427.1,500.183C1426.99,500.428 1426.87,500.717 1426.76,501.044C1426.07,502.727 1423.64,508.152 1420.82,509.059C1421.03,507.937 1421.79,504.299 1423.32,501.238C1423.55,500.82 1423.68,500.562 1423.68,500.562L1423.27,500.345C1423.15,500.569 1423.03,500.8 1422.91,501.032C1420.96,504.641 1418.36,508.515 1416.78,508.851C1416.65,508.202 1416.47,505.666 1419.89,501.185L1420,501.041L1419.64,500.762L1419.53,500.907C1419.02,501.555 1414.56,507.175 1411.46,507.356C1411.7,506.49 1412.78,503.556 1417.21,499.559L1416.91,499.213C1416.84,499.269 1410.37,504.816 1406.04,504.816C1405.94,504.816 1405.85,504.815 1405.76,504.809C1406.4,503.779 1408.62,500.382 1411.72,497.925C1413.29,497.011 1414.42,496.195 1414.43,496.186L1414.19,495.794C1413.28,496.243 1412.35,496.841 1411.43,497.564C1409.27,498.823 1406.16,500.346 1403.75,500.346C1403.2,500.346 1402.72,500.267 1402.3,500.11C1403.14,499.239 1406.24,496.159 1409.57,494.372C1410.97,493.847 1411.98,493.358 1411.99,493.354L1411.82,492.928C1411.05,493.156 1410.22,493.506 1409.36,493.967C1407.61,494.627 1405.04,495.427 1402.91,495.427C1401.36,495.427 1400.27,494.999 1399.66,494.152C1401.03,493.618 1407.51,491.139 1411.04,490.431L1410.98,489.977C1410.97,489.978 1409.59,490.072 1407.73,490.072C1404.15,490.072 1398.03,489.726 1396.97,487.415C1397.07,487.165 1398.09,485.315 1408.42,484.999L1408.42,484.541C1408.3,484.532 1395.99,483.722 1394.71,478.791C1396.49,478.968 1405.35,479.832 1408.14,479.832L1409.88,479.832ZM1416.77,544.57C1417.27,544.844 1418.28,545.277 1419.62,545.277C1420.21,545.277 1420.82,545.189 1421.41,545.017L1421.62,544.96L1421.69,545.155C1421.71,545.18 1422.58,547.48 1421.08,548.93C1421.43,549.02 1421.95,549.127 1422.48,549.127C1423.14,549.127 1423.6,548.958 1423.86,548.63L1424.11,548.298L1424.25,548.688C1424.46,549.253 1424.59,550.42 1423.82,551.221C1423.94,551.243 1424.08,551.263 1424.23,551.263C1424.76,551.263 1425.16,551.061 1425.44,550.665C1425.59,550.443 1425.78,550.393 1425.9,550.393C1426.47,550.393 1426.92,551.353 1427.11,552.246C1427.33,553.315 1427.24,554.576 1426.47,555.333C1427.79,555.377 1430.16,555.665 1431.17,557.082C1431.68,557.8 1431.78,558.704 1431.46,559.771C1431.97,560.027 1433.63,560.77 1435.89,560.77C1436.89,560.77 1437.89,560.626 1438.86,560.342C1438.64,559.445 1437.41,555.646 1431.9,553.835C1431.82,553.805 1429.84,553.058 1429.11,550.418C1428.76,549.129 1427.89,548.264 1426.97,547.346C1426.13,546.516 1425.27,545.654 1424.8,544.44C1423.74,541.767 1429.1,538.791 1432.31,537.011C1432.93,536.664 1433.28,536.28 1433.36,535.842C1433.54,534.924 1432.57,533.738 1431.54,532.483C1430.87,531.667 1430.18,530.822 1429.66,529.912C1427.91,526.858 1427.62,525.543 1429.17,522.838C1427.91,522.981 1424.26,523.588 1422.57,525.932C1422.04,527.866 1420.86,532.977 1421.66,533.979L1421.7,534.067C1421.72,534.141 1423.53,541.5 1416.77,544.57ZM1471.22,502.322C1471.5,502.474 1471.9,502.634 1472.35,502.634C1472.83,502.634 1473.29,502.45 1473.7,502.089L1473.86,501.948L1474.02,502.101C1474.04,502.126 1474.64,502.729 1474.54,503.369C1474.49,503.702 1474.27,503.973 1473.89,504.174C1473.17,504.56 1472.62,505.604 1472.54,506.35C1472.51,506.635 1472.54,506.857 1472.62,506.927C1473,507.199 1475.89,509.308 1476.9,510.741C1477.16,509.283 1477.68,505.642 1476.6,503.888C1476,502.918 1475.8,502.097 1476,501.45C1476.15,500.97 1476.49,500.733 1476.62,500.656C1476.62,500.441 1476.24,499.032 1469.13,493.424L1469.08,493.38L1469.06,493.313C1469.05,493.286 1468.18,490.633 1466.67,490.633C1466.42,490.633 1466.16,490.706 1465.9,490.848C1465.5,491.068 1465,491.323 1464.43,491.607C1461.92,492.872 1458.15,494.77 1456.56,497.082C1456.88,497.68 1458.12,500.251 1457.64,503.267L1459.23,503.777C1459.96,503.033 1464.52,498.283 1466.13,494.451L1466.22,494.237L1466.43,494.331C1466.57,494.392 1469.95,495.901 1470.27,498.132C1470.39,499 1470.03,499.848 1469.2,500.655C1469.97,500.706 1471.36,500.64 1471.92,499.731L1472.17,499.321L1472.33,499.776C1472.35,499.816 1472.66,500.744 1472.21,501.528C1472,501.887 1471.67,502.154 1471.22,502.322Z" style="fill:rgb(83,45,130);"/>
        </g>
        <g transform="matrix(0.935299,0,0,0.935299,-107.121,12.9859)">
            <rect x="1547" y="400" width="149.685" height="149.685" style="fill:none;"/>
        </g>
    </g>
</svg>
