<?xml version="1.0" encoding="UTF-8" standalone="no"?>
<!DOCTYPE svg PUBLIC "-//W3C//DTD SVG 1.1//EN" "http://www.w3.org/Graphics/SVG/1.1/DTD/svg11.dtd">
<svg width="100%" height="100%" viewBox="0 0 124 21" version="1.1" xmlns="http://www.w3.org/2000/svg" xmlns:xlink="http://www.w3.org/1999/xlink" xml:space="preserve" style="fill-rule:evenodd;clip-rule:evenodd;stroke-linejoin:round;stroke-miterlimit:1.41421;">
    <g transform="matrix(1,0,0,1,-436.228,-421.789)">
        <path d="M552.773,442.066C550.078,442.066 548.407,441.304 547.792,440.953C547.233,440.308 546.855,438.199 546.855,436.206C547.059,435.825 547.733,435.796 547.968,436.119C548.555,438.023 550.517,440.719 553.007,440.719C555.176,440.719 556.171,439.225 556.171,437.759C556.171,435.386 553.944,433.978 552.187,433.1C550.078,432.045 547.763,430.287 547.763,427.386C547.733,424.075 550.312,421.789 554.561,421.789C555.528,421.789 556.728,421.906 557.902,422.258C558.283,422.375 558.546,422.434 558.898,422.492C559.132,423.137 559.426,424.719 559.426,426.683C559.277,427.034 558.546,427.063 558.283,426.77C557.784,425.276 556.523,423.137 554.414,423.137C552.481,423.137 551.426,424.397 551.426,425.863C551.426,427.21 552.626,428.441 554.093,429.203L556.026,430.228C557.843,431.195 560.156,432.895 560.156,436.119C560.156,439.723 557.197,442.066 552.773,442.066ZM527.689,426.478C527.689,423.752 527.514,423.577 526.198,423.313L525.464,423.166C525.229,422.99 525.2,422.346 525.522,422.17C526.929,422.228 528.394,422.258 529.8,422.258C531.236,422.258 532.672,422.228 534.078,422.17C534.313,422.346 534.313,422.99 534.078,423.166L533.375,423.284C532.058,423.518 531.88,423.752 531.88,426.478L531.88,433.247C531.88,436.675 532.261,440.455 536.716,440.455C540.467,440.455 541.608,437.174 541.608,433.158L541.608,429.612C541.608,427.239 541.491,425.012 541.171,424.25C540.905,423.635 540.261,423.459 539.471,423.313L538.679,423.166C538.445,422.931 538.503,422.346 538.679,422.17C540.261,422.228 541.405,422.258 542.605,422.258C543.689,422.258 544.774,422.228 545.888,422.17C546.063,422.346 546.122,422.931 545.888,423.166L545.361,423.284C544.598,423.459 544.042,423.635 543.777,424.25C543.455,425.012 543.337,427.239 543.337,429.612L543.337,432.895C543.337,435.649 543.074,438.17 541.464,439.957C540.174,441.334 538.034,442.066 535.66,442.066C533.435,442.066 531.44,441.715 529.858,440.426C528.335,439.166 527.689,436.997 527.689,433.803L527.689,426.478ZM516.263,442.066C513.568,442.066 511.897,441.304 511.282,440.953C510.724,440.308 510.345,438.199 510.345,436.206C510.548,435.825 511.223,435.796 511.458,436.119C512.043,438.023 514.007,440.719 516.498,440.719C518.665,440.719 519.661,439.225 519.661,437.759C519.661,435.386 517.435,433.978 515.677,433.1C513.568,432.045 511.251,430.287 511.251,427.386C511.223,424.075 513.801,421.789 518.05,421.789C519.017,421.789 520.218,421.906 521.392,422.258C521.771,422.375 522.035,422.434 522.387,422.492C522.621,423.137 522.915,424.719 522.915,426.683C522.767,427.034 522.035,427.063 521.771,426.77C521.274,425.276 520.013,423.137 517.903,423.137C515.971,423.137 514.916,424.397 514.916,425.863C514.916,427.21 516.115,428.441 517.581,429.203L519.515,430.228C521.333,431.195 523.646,432.895 523.646,436.119C523.646,439.723 520.686,442.066 516.263,442.066ZM489.304,438.286C489.304,439.517 489.363,440.103 489.92,440.221C490.037,440.337 490.007,440.835 489.832,440.924C489.334,441.012 488.572,441.099 487.78,441.363C486.755,441.686 484.236,442.066 482.594,442.066C480.601,442.066 478.901,441.861 476.821,441.041C473.392,439.664 471.049,436.411 471.049,432.191C471.049,428.528 472.69,425.305 476.205,423.342C478.198,422.258 480.572,421.789 483.063,421.789C486.315,421.789 487.927,422.492 488.865,422.492C488.953,423.371 488.982,425.423 489.274,427.21C489.157,427.532 488.367,427.561 488.162,427.268C487.223,424.514 485.377,423.137 482.653,423.137C477.992,423.137 475.737,427.005 475.737,431.634C475.737,435.825 477.172,438.316 479.078,439.605C480.485,440.543 482.009,440.719 483.091,440.719C484.762,440.719 485.115,440.396 485.115,438.492L485.115,436.646C485.115,435.064 484.938,434.888 483.531,434.682L482.241,434.506C481.919,434.331 481.919,433.656 482.241,433.481C484.322,433.54 485.759,433.569 487.194,433.569C488.601,433.569 490.037,433.54 491.033,433.481C491.268,433.656 491.268,434.331 491.033,434.506L490.359,434.623C489.48,434.77 489.304,435.064 489.304,436.646L489.304,438.286ZM497.391,434.975C496.688,434.975 496.599,435.004 496.424,435.562L495.282,438.961C495.105,439.547 495.077,439.781 495.077,440.015C495.077,440.191 495.458,440.367 496.278,440.514L497.157,440.66C497.332,440.865 497.391,441.539 497.099,441.686C496.073,441.627 495.018,441.627 493.788,441.597C492.791,441.597 492.117,441.686 490.769,441.686C490.447,441.51 490.476,440.894 490.681,440.66L491.472,440.572C492.176,440.484 492.761,440.25 493.259,439.107C493.758,437.935 494.314,436.529 495.105,434.418L497.773,427.268C498.446,425.423 498.944,424.397 498.857,423.548C500.264,423.225 501.348,421.789 501.406,421.789C501.787,421.789 501.964,421.935 502.08,422.375C502.315,423.225 502.667,424.309 503.399,426.39L507.382,437.877C508,439.635 508.263,440.308 509.346,440.484L510.461,440.66C510.637,440.806 510.695,441.51 510.432,441.686C509.024,441.627 507.442,441.597 505.919,441.597C504.454,441.597 503.31,441.627 501.964,441.686C501.641,441.51 501.582,440.894 501.905,440.66L502.842,440.514C503.516,440.396 503.633,440.191 503.633,440.015C503.633,439.81 503.428,439.107 503.077,438.023L502.285,435.502C502.14,435.034 501.905,434.975 500.879,434.975L497.391,434.975ZM460.031,429.876C460.031,430.697 460.061,430.756 460.851,430.756L462.874,430.756C464.398,430.756 464.749,430.55 465.042,429.144L465.188,428.411C465.394,428.177 466.127,428.177 466.272,428.441C466.213,429.378 466.185,430.433 466.185,431.547C466.185,432.66 466.213,433.715 466.272,434.653C466.127,434.917 465.394,434.945 465.188,434.682L465.042,433.95C464.749,432.544 464.398,432.309 462.874,432.309L460.851,432.309C460.061,432.309 460.031,432.338 460.031,433.217L460.031,436.704C460.031,438.052 460.149,438.99 460.5,439.488C460.882,440.015 461.438,440.25 463.577,440.25C466.127,440.25 467.123,440.162 468.734,436.851C468.969,436.529 469.702,436.646 469.818,436.997C469.702,438.521 468.998,440.894 468.587,441.686C467.035,441.627 464.221,441.597 461.818,441.597L458.009,441.597C456.603,441.597 455.168,441.627 452.969,441.686C452.735,441.51 452.735,440.806 452.969,440.66L454.348,440.455C455.665,440.25 455.842,440.074 455.842,437.378L455.842,426.448C455.842,423.782 455.665,423.606 454.348,423.342L453.614,423.195C453.35,423.02 453.381,422.346 453.672,422.17C455.05,422.228 456.485,422.258 457.892,422.258L464.105,422.258C465.979,422.258 467.651,422.228 468.031,422.17C468.06,422.638 468.266,424.748 468.412,426.712C468.295,427.034 467.621,427.093 467.328,426.829C467.005,425.803 466.596,424.924 466.213,424.514C465.657,423.957 464.779,423.606 463.342,423.606L460.997,423.606C460.031,423.606 460.031,423.664 460.031,424.748L460.031,429.876ZM438.757,427.005C438.757,424.046 438.699,423.694 437.468,423.548L436.56,423.43C436.296,423.284 436.296,422.638 436.618,422.434C438.552,422.287 440.838,422.17 443.386,422.17C445.878,422.17 447.519,422.462 448.749,422.931C450.537,423.606 452.324,425.159 452.324,428.001C452.324,432.807 447.489,433.511 445.937,433.511C445.585,433.511 445.321,433.511 444.998,433.481C444.764,433.334 444.706,432.865 444.91,432.689C447.344,431.927 447.842,430.199 447.842,428.03C447.842,425.863 446.728,423.518 444.091,423.518C443.006,423.518 442.947,423.84 442.947,425.012L442.947,437.378C442.947,440.103 443.123,440.337 444.443,440.543L445.381,440.69C445.702,440.835 445.702,441.51 445.381,441.686C443.738,441.627 442.303,441.597 440.896,441.597C439.49,441.597 438.083,441.627 436.501,441.686C436.179,441.51 436.12,440.835 436.443,440.69L437.263,440.543C438.582,440.308 438.757,440.103 438.757,437.378L438.757,427.005ZM500.731,433.422C501.406,433.422 501.552,433.334 501.318,432.572L500.556,430.199C500.147,428.939 499.618,427.357 499.354,426.741C499.12,427.415 498.535,428.997 498.095,430.345L497.363,432.544C497.099,433.334 497.246,433.422 497.978,433.422L500.731,433.422Z" style="fill:rgb(83,45,130);"/>
    </g>
</svg>
