<?xml version="1.0" encoding="UTF-8" standalone="no"?>
<!DOCTYPE svg PUBLIC "-//W3C//DTD SVG 1.1//EN" "http://www.w3.org/Graphics/SVG/1.1/DTD/svg11.dtd">
<svg width="100%" height="100%" viewBox="0 0 135 21" version="1.1" xmlns="http://www.w3.org/2000/svg" xmlns:xlink="http://www.w3.org/1999/xlink" xml:space="preserve" style="fill-rule:evenodd;clip-rule:evenodd;stroke-linejoin:round;stroke-miterlimit:1.41421;">
    <g transform="matrix(1,0,0,1,-715.087,-421.789)">
        <path d="M777.247,431.841C777.247,438.228 772.969,442.067 766.669,442.067C760.78,442.067 756.501,438.199 756.501,432.074C756.501,426.272 760.838,421.789 766.962,421.789C773.057,421.789 777.247,425.892 777.247,431.841ZM814.9,436.617C814.9,438.521 814.9,440.367 814.958,441.334C814.754,441.685 813.934,442.008 813.23,442.008C813.2,442.008 812.234,440.514 810.857,438.814L804.088,430.433C802.387,428.353 801.421,427.123 800.894,426.682C800.748,426.976 800.748,427.474 800.748,428.558L800.748,434.242C800.748,436.617 800.864,438.814 801.187,439.605C801.451,440.221 802.125,440.425 802.885,440.543L803.706,440.66C803.941,440.894 803.883,441.51 803.706,441.685C802.125,441.627 800.953,441.598 799.781,441.598C798.696,441.598 797.612,441.627 796.498,441.685C796.323,441.51 796.264,440.894 796.498,440.66L796.996,440.572C797.787,440.425 798.374,440.221 798.608,439.605C798.931,438.814 799.019,436.617 799.019,434.242L799.019,426.8C799.019,425.189 798.99,424.719 798.812,424.309C798.579,423.812 798.169,423.459 797.144,423.313L796.323,423.196C796.118,422.961 796.147,422.258 796.441,422.17C797.817,422.229 799.282,422.258 800.484,422.258C801.481,422.258 802.329,422.229 802.945,422.17C803.238,423.488 805.143,425.716 807.78,428.851L810.241,431.753C811.531,433.276 812.38,434.302 813.055,434.976C813.171,434.682 813.171,434.184 813.171,433.657L813.171,429.613C813.171,427.239 813.055,425.042 812.732,424.251C812.468,423.636 811.823,423.431 811.032,423.313L810.241,423.196C810.008,422.961 810.066,422.346 810.241,422.17C811.823,422.229 812.967,422.258 814.167,422.258C815.252,422.258 816.307,422.229 817.45,422.17C817.626,422.346 817.684,422.961 817.45,423.196L816.922,423.284C816.161,423.401 815.603,423.636 815.34,424.251C815.017,425.042 814.9,427.239 814.9,429.613L814.9,436.617ZM828.907,440.63C830.665,440.396 831.339,439.694 832.306,438.374C833.155,437.261 834.736,434.976 835.997,433.1C836.261,432.719 836.408,432.368 836.408,432.191C836.408,432.074 836.261,431.693 835.881,431.166C834.914,429.731 833.067,426.829 831.69,424.866C831.017,423.899 830.401,423.518 829.082,423.284L828.584,423.196C828.32,422.961 828.32,422.346 828.614,422.17C829.551,422.229 831.397,422.258 833.185,422.258C835.558,422.258 836.73,422.229 837.637,422.17C837.96,422.317 837.96,422.961 837.755,423.196L837.111,423.313C836.642,423.401 836.114,423.548 836.114,423.753C836.114,424.016 836.232,424.28 836.583,424.896C837.376,426.272 838.429,427.884 839.338,429.203C840.422,427.562 841.388,426.127 842.298,424.574C842.619,424.046 842.619,423.841 842.619,423.694C842.619,423.606 842.415,423.459 842.034,423.401L840.862,423.196C840.627,422.99 840.627,422.317 840.949,422.17C841.858,422.229 842.795,422.258 844.172,422.258C845.579,422.258 846.781,422.229 847.719,422.17C848.011,422.317 848.04,422.932 847.836,423.196L846.605,423.372C845.989,423.459 845.461,423.577 844.935,424.105C843.528,425.539 842.239,427.474 840.862,429.349C840.569,429.759 840.274,430.199 840.274,430.345C840.274,430.493 840.393,430.814 840.686,431.254C842.883,434.653 844.32,436.851 845.375,438.433C846.399,439.986 847.132,440.396 848.245,440.543L849.154,440.66C849.36,440.865 849.36,441.481 849.066,441.685C847.776,441.627 846.868,441.598 844.496,441.598C842.474,441.598 841.154,441.627 839.572,441.685C839.308,441.569 839.191,440.807 839.484,440.66L840.274,440.572C841.008,440.485 841.36,440.338 841.36,440.162C841.36,439.927 841.243,439.664 840.511,438.433C840.071,437.642 837.844,434.214 837.404,433.657C836.261,435.327 834.883,437.554 833.917,439.4C833.712,439.81 833.653,440.016 833.653,440.191C833.653,440.367 833.976,440.514 834.592,440.572L835.352,440.66C835.617,440.865 835.588,441.569 835.265,441.685C833.976,441.627 832.657,441.598 831.426,441.598C830.459,441.598 829.23,441.627 828.349,441.685C828.057,441.539 827.968,440.894 828.233,440.719L828.907,440.63ZM825.243,437.32C825.243,440.074 825.42,440.28 826.768,440.514L827.588,440.66C827.822,440.836 827.793,441.51 827.559,441.685C825.977,441.627 824.542,441.598 823.163,441.598C821.757,441.598 820.293,441.627 818.709,441.685C818.475,441.51 818.475,440.836 818.709,440.66L819.529,440.514C820.878,440.28 821.053,440.074 821.053,437.32L821.053,426.537C821.053,423.782 820.878,423.577 819.529,423.343L818.709,423.196C818.475,423.02 818.475,422.346 818.709,422.17C820.293,422.229 821.757,422.258 823.163,422.258C824.542,422.258 826.006,422.229 827.588,422.17C827.822,422.346 827.822,423.02 827.588,423.196L826.768,423.343C825.42,423.577 825.243,423.782 825.243,426.537L825.243,437.32ZM740.473,432.309C739.272,432.309 739.242,432.339 739.242,433.159L739.242,437.378C739.242,440.103 739.418,440.367 740.736,440.543L741.674,440.66C741.908,440.836 741.908,441.51 741.674,441.685C740.005,441.627 738.539,441.598 737.221,441.598C735.813,441.598 734.349,441.627 732.854,441.685C732.619,441.51 732.619,440.836 732.854,440.66L733.558,440.572C734.906,440.396 735.052,440.103 735.052,437.378L735.052,426.478C735.052,423.753 734.906,423.459 733.558,423.284L732.854,423.196C732.619,423.02 732.619,422.346 732.854,422.17C734.29,422.229 735.813,422.258 737.221,422.258C738.539,422.258 740.005,422.229 741.293,422.17C741.528,422.346 741.528,423.02 741.293,423.196L740.678,423.284C739.418,423.459 739.242,423.753 739.242,426.478L739.242,429.877C739.242,430.727 739.272,430.756 740.473,430.756L746.568,430.756C747.798,430.756 747.798,430.727 747.798,429.877L747.798,426.478C747.798,423.753 747.652,423.518 746.304,423.313L745.514,423.196C745.278,423.02 745.278,422.346 745.514,422.17C747.125,422.229 748.561,422.258 749.967,422.258C751.402,422.258 752.75,422.229 754.098,422.17C754.333,422.346 754.333,423.02 754.098,423.196L753.512,423.284C752.165,423.488 751.989,423.753 751.989,426.478L751.989,437.378C751.989,440.103 752.165,440.308 753.512,440.543L754.216,440.66C754.451,440.836 754.451,441.51 754.216,441.685C752.75,441.627 751.315,441.598 749.967,441.598C748.502,441.598 747.066,441.627 745.659,441.685C745.425,441.51 745.425,440.836 745.659,440.66L746.304,440.572C747.652,440.396 747.798,440.103 747.798,437.378L747.798,433.159C747.798,432.339 747.798,432.309 746.568,432.309L740.473,432.309ZM717.617,427.005C717.617,424.046 717.559,423.694 716.328,423.548L715.42,423.431C715.156,423.284 715.156,422.639 715.477,422.433C717.412,422.288 719.698,422.17 722.246,422.17C724.737,422.17 726.378,422.463 727.609,422.932C729.396,423.606 731.183,425.16 731.183,428.002C731.183,432.807 726.349,433.51 724.796,433.51C724.445,433.51 724.181,433.51 723.858,433.481C723.625,433.335 723.565,432.866 723.77,432.69C726.203,431.928 726.701,430.199 726.701,428.031C726.701,425.863 725.587,423.518 722.95,423.518C721.867,423.518 721.808,423.841 721.808,425.013L721.808,437.378C721.808,440.103 721.983,440.338 723.301,440.543L724.239,440.689C724.561,440.836 724.561,441.51 724.239,441.685C722.599,441.627 721.163,441.598 719.757,441.598C718.35,441.598 716.943,441.627 715.36,441.685C715.038,441.51 714.979,440.836 715.301,440.689L716.122,440.543C717.442,440.308 717.617,440.103 717.617,437.378L717.617,427.005ZM783.928,441.598C782.522,441.598 781.086,441.627 778.888,441.685C778.654,441.51 778.654,440.807 778.888,440.66L780.265,440.455C781.584,440.25 781.759,440.074 781.759,437.378L781.759,426.449C781.759,423.782 781.584,423.606 780.265,423.343L779.533,423.196C779.271,423.02 779.299,422.346 779.591,422.17C780.969,422.229 782.405,422.258 783.811,422.258L790.024,422.258C791.899,422.258 793.569,422.229 793.949,422.17C793.979,422.639 794.184,424.749 794.331,426.712C794.213,427.034 793.54,427.093 793.246,426.829C792.923,425.804 792.514,424.925 792.133,424.515C791.577,423.958 790.697,423.606 789.261,423.606L786.917,423.606C785.95,423.606 785.95,423.664 785.95,424.749L785.95,429.877C785.95,430.697 785.98,430.756 786.771,430.756L788.793,430.756C790.316,430.756 790.668,430.551 790.961,429.144L791.107,428.412C791.312,428.178 792.045,428.178 792.192,428.441C792.133,429.378 792.103,430.433 792.103,431.547C792.103,432.66 792.133,433.715 792.192,434.653C792.045,434.917 791.312,434.946 791.107,434.682L790.961,433.949C790.668,432.544 790.316,432.309 788.793,432.309L786.771,432.309C785.98,432.309 785.95,432.339 785.95,433.217L785.95,436.704C785.95,438.052 786.067,438.99 786.419,439.488C786.799,440.016 787.356,440.25 789.497,440.25C792.045,440.25 793.042,440.162 794.653,436.851C794.887,436.528 795.621,436.646 795.737,436.997C795.621,438.521 794.917,440.894 794.506,441.685C792.953,441.627 790.14,441.598 787.738,441.598L783.928,441.598ZM766.727,423.137C763.125,423.137 761.189,426.507 761.189,431.4C761.189,434.976 762.449,440.719 767.226,440.719C771.065,440.719 772.56,436.967 772.56,432.221C772.56,427.21 770.362,423.137 766.727,423.137Z" style="fill:rgb(229,29,38);"/>
    </g>
</svg>
