<?xml version="1.0" encoding="UTF-8" standalone="no"?>
<!DOCTYPE svg PUBLIC "-//W3C//DTD SVG 1.1//EN" "http://www.w3.org/Graphics/SVG/1.1/DTD/svg11.dtd">
<svg width="100%" height="100%" viewBox="0 0 140 140" version="1.1" xmlns="http://www.w3.org/2000/svg" xmlns:xlink="http://www.w3.org/1999/xlink" xml:space="preserve" style="fill-rule:evenodd;clip-rule:evenodd;stroke-linejoin:round;stroke-miterlimit:1.41421;">
    <g transform="matrix(1,0,0,1,-1562.79,-387.106)">
        <g transform="matrix(1,0,0,1,-80,-48.75)">
            <path d="M1721.48,450.449C1721.21,451.655 1721.46,454.012 1719.83,455.517C1723.1,454.263 1725.4,449.902 1725.6,449.509L1724.69,451.818C1723.73,454.528 1722.3,458.043 1717.67,458.754C1717.2,460.269 1716.68,462.612 1717.29,464.188C1718.26,466.683 1719.27,470.779 1718.89,472.538C1718.26,475.537 1720.91,474.824 1721.33,473.841C1721.1,474.792 1720.15,477.552 1716.99,475.701L1716.95,476.219C1718.26,477.824 1721.42,480.251 1725.7,473.94C1731.41,465.529 1732.61,451.81 1749.03,456.818C1749.03,456.818 1743.72,455.317 1741.12,460.323C1741.12,460.323 1748.93,455.716 1760.85,462.125C1760.85,462.125 1771.86,466.431 1772.06,458.42C1772.06,458.42 1771.26,454.114 1767.56,455.517C1767.56,455.517 1774.46,450.01 1776.66,459.922C1776.66,459.922 1778.07,471.937 1757.44,468.534C1757.44,468.534 1763.45,475.441 1773.16,468.534C1773.16,468.534 1766.75,478.747 1753.43,472.338C1753.43,472.338 1760.45,481.45 1768.06,475.441C1768.06,475.441 1765.55,486.157 1748.83,478.746C1748.83,478.746 1751.83,485.154 1759.55,482.451C1759.55,482.451 1753.94,487.458 1745.02,483.653C1745.02,483.653 1751.03,489.26 1759.04,486.057C1759.04,486.057 1750.03,495.068 1737.21,485.856C1737.21,485.856 1737.82,490.361 1744.62,491.363C1744.62,491.363 1736.01,493.666 1730.3,487.057C1730.3,487.057 1732.61,495.267 1742.92,493.766C1742.92,493.766 1729.9,500.574 1723.4,487.758C1723.4,487.758 1723.6,492.564 1726.1,494.568C1726.1,494.568 1721.29,494.266 1718.49,488.359C1718.49,488.359 1720.49,498.372 1728.51,496.871C1728.51,496.871 1726.4,500.073 1722.8,498.972C1722.8,498.972 1725.5,500.776 1727.5,500.275C1729.51,499.773 1730.11,503.377 1730.11,504.28C1730.11,504.28 1734.41,498.472 1738.72,503.678C1738.72,503.678 1739.92,506.082 1738.02,507.485C1738.02,507.485 1739.32,504.879 1736.22,503.98C1736.22,503.98 1732.61,504.28 1734.21,507.884C1734.21,507.884 1738.41,508.385 1737.51,511.889C1737.51,511.889 1737.51,513.992 1734.51,514.093C1734.51,514.093 1737.02,512.491 1734.81,510.988C1734.81,510.988 1733.51,510.188 1732.31,511.089C1732.31,511.089 1732.31,515.096 1728.4,513.892C1728.4,513.892 1725.5,513.591 1726.7,510.088C1726.7,510.088 1727.1,512.59 1729.1,511.589C1731.11,510.588 1730.21,506.262 1727,506.184C1724,506.108 1723.8,508.084 1723.8,508.084C1723.8,508.084 1724.62,501.101 1717.47,501.327L1716.92,501.318L1716.91,501.562C1717.36,504.124 1719.1,512.654 1722.91,516.511C1722.91,516.511 1719.62,519.186 1716.23,511.497L1716.18,512.181C1717.34,516.511 1720.38,526.54 1724.61,529.624C1724.61,529.624 1721.38,535.584 1716.95,525.055C1716.95,525.055 1720.53,543.531 1724.02,547.305C1724.02,547.305 1717.87,546.614 1714.38,529.37L1714.78,533.14C1715.49,540.115 1716.41,554.777 1712.79,562.202L1711.97,560.195C1708.34,549.476 1711.26,529.228 1711.26,529.228C1707.85,549.489 1701.56,547.305 1701.56,547.305C1705.05,543.531 1708.62,525.055 1708.62,525.055C1704.2,535.584 1700.96,529.624 1700.96,529.624C1706.41,525.651 1709.9,510.155 1709.9,510.155C1706.32,519.492 1702.66,516.511 1702.66,516.511C1706.69,512.428 1708.41,503.119 1708.73,501.181L1708.11,501.171C1700.95,500.945 1701.78,507.929 1701.78,507.929C1701.78,507.929 1701.58,505.95 1698.58,506.027C1695.36,506.107 1694.47,510.432 1696.47,511.433C1698.47,512.434 1698.87,509.932 1698.87,509.932C1700.08,513.436 1697.17,513.735 1697.17,513.735C1693.27,514.937 1693.27,510.933 1693.27,510.933C1692.07,510.032 1690.76,510.833 1690.76,510.833C1688.56,512.336 1691.06,513.937 1691.06,513.937C1688.06,513.837 1688.06,511.733 1688.06,511.733C1687.16,508.228 1691.37,507.729 1691.37,507.729C1692.97,504.123 1689.36,503.824 1689.36,503.824C1686.26,504.725 1687.56,507.329 1687.56,507.329C1685.65,505.926 1686.86,503.523 1686.86,503.523C1691.16,498.316 1695.47,504.123 1695.47,504.123C1695.47,503.222 1696.07,499.618 1698.07,500.119C1700.08,500.619 1702.78,498.817 1702.78,498.817C1699.17,499.917 1697.07,496.713 1697.07,496.713C1705.08,498.216 1707.08,488.203 1707.08,488.203C1704.28,494.112 1699.48,494.41 1699.48,494.41C1701.98,492.409 1702.18,487.602 1702.18,487.602C1695.67,500.418 1682.65,493.608 1682.65,493.608C1692.97,495.112 1695.27,486.901 1695.27,486.901C1689.56,493.51 1680.95,491.207 1680.95,491.207C1687.76,490.206 1688.36,485.7 1688.36,485.7C1675.54,494.912 1666.53,485.901 1666.53,485.901C1674.54,489.104 1680.55,483.496 1680.55,483.496C1671.64,487.302 1666.03,482.295 1666.03,482.295C1673.74,484.999 1676.75,478.59 1676.75,478.59C1660.02,486 1657.52,475.286 1657.52,475.286C1665.13,481.293 1672.14,472.182 1672.14,472.182C1658.82,478.591 1652.41,468.376 1652.41,468.376C1662.12,475.286 1668.13,468.376 1668.13,468.376C1647.51,471.782 1648.91,459.767 1648.91,459.767C1651.11,449.854 1658.02,455.36 1658.02,455.36C1654.32,453.959 1653.52,458.264 1653.52,458.264C1653.72,466.275 1664.73,461.969 1664.73,461.969C1676.64,455.56 1684.46,460.167 1684.46,460.167C1681.85,455.161 1676.55,456.662 1676.55,456.662C1692.97,451.656 1694.17,465.373 1699.88,473.784C1705.58,482.195 1709.29,475.086 1709.29,475.086C1705.56,477.797 1704.49,474.704 1704.24,473.686C1704.66,474.667 1707.32,475.382 1706.68,472.382C1705.98,469.078 1709.59,464.873 1709.59,464.873C1703.98,465.373 1702.18,462.969 1702.18,462.969C1702.18,462.969 1704.38,464.17 1705.28,462.77C1706.18,461.368 1707.89,461.168 1707.89,461.168C1705.78,461.368 1703.98,460.067 1703.98,460.067C1701.18,457.764 1700.68,460.566 1700.68,460.566C1699.38,458.064 1700.88,456.261 1700.88,456.261C1703.18,453.859 1708.29,456.061 1708.29,456.061C1707.79,454.76 1708.29,454.159 1711.79,454.86C1715.29,455.56 1716.8,454.259 1716.6,453.258C1716.39,452.257 1715.19,452.055 1715.19,452.055C1715.19,452.055 1715.5,450.754 1717.8,452.858C1718.42,453.426 1718.73,454.007 1718.86,454.556C1720.58,453.735 1721.34,450.983 1721.48,450.449C1721.48,450.418 1721.49,450.388 1721.5,450.358C1721.5,450.358 1721.49,450.39 1721.48,450.449ZM1688.16,451.944C1690.23,452.135 1694.74,450.782 1696.5,456.319C1698.15,461.539 1701.99,461.895 1702.57,461.919C1698.01,461.895 1694.3,459.473 1694.05,455.978C1693.83,452.775 1689.01,452.048 1688.16,451.944C1688.11,451.94 1688.07,451.935 1688.03,451.929C1688.03,451.929 1688.07,451.934 1688.16,451.944Z" style="fill:rgb(229,29,38);"/>
        </g>
        <g transform="matrix(0.935299,0,0,0.935299,115.879,12.9859)">
            <rect x="1547" y="400" width="149.685" height="149.685" style="fill:none;"/>
        </g>
    </g>
</svg>
